<svg width="24" height="24" viewBox="0 0 24 24" fill="none" xmlns="http://www.w3.org/2000/svg">
<g clip-path="url(#clip0_853_4179)">
<path d="M14.4232 21.8597C14.2253 21.909 14.0235 21.9528 13.8233 21.9897C13.2997 22.0871 12.9536 22.5906 13.0504 23.1146C13.0982 23.3724 13.2447 23.5871 13.4434 23.7273C13.6483 23.8715 13.909 23.9366 14.1747 23.8872C14.4132 23.8429 14.6536 23.7908 14.8895 23.732C15.4065 23.6033 15.7214 23.0796 15.5925 22.5628C15.4638 22.0456 14.9405 21.7309 14.4232 21.8597Z" fill="#10355B"/>
<path d="M21.5583 8.92761C21.6259 9.13129 21.7549 9.29756 21.9179 9.41246C22.1596 9.58265 22.4758 9.63992 22.7775 9.54014C23.2834 9.37216 23.5575 8.82664 23.3902 8.321C23.3139 8.09049 23.2293 7.85927 23.1392 7.63412C22.9413 7.13937 22.3801 6.89849 21.885 7.09639C21.3906 7.29419 21.1496 7.85555 21.3476 8.35046C21.4234 8.53969 21.4943 8.73393 21.5583 8.92761Z" fill="#10355B"/>
<path d="M17.5584 20.4825C17.3882 20.5948 17.2126 20.7036 17.0356 20.8055C16.5739 21.0718 16.4158 21.6619 16.682 22.1234C16.7543 22.2489 16.8505 22.3515 16.9614 22.43C17.259 22.6394 17.6632 22.6707 17.9998 22.4769C18.2102 22.3555 18.4194 22.2264 18.6221 22.0924C19.0665 21.7988 19.1888 21.2002 18.895 20.7556C18.6013 20.3108 18.003 20.1887 17.5584 20.4825Z" fill="#10355B"/>
<path d="M23.9894 11.6225C23.9684 11.0899 23.5199 10.6755 22.9872 10.6962C22.4552 10.7172 22.0404 11.1659 22.0613 11.6982C22.0693 11.9018 22.0714 12.1083 22.0667 12.3117C22.0592 12.6456 22.2225 12.9433 22.4764 13.1222C22.6276 13.2287 22.8111 13.2931 23.0101 13.2977C23.5426 13.3095 23.9839 12.8871 23.9957 12.3543C24.001 12.1114 23.999 11.8652 23.9894 11.6225Z" fill="#10355B"/>
<path d="M21.403 17.9443C20.976 17.6239 20.3719 17.7109 20.052 18.1371C19.9296 18.3003 19.8006 18.4616 19.6685 18.6168C19.3234 19.0223 19.3721 19.6314 19.7776 19.9768C19.8007 19.9964 19.8241 20.0144 19.8484 20.0313C20.2515 20.3155 20.8118 20.2502 21.1377 19.8677C21.2954 19.6825 21.4492 19.4899 21.5955 19.2949C21.9154 18.8687 21.8288 18.2642 21.403 17.9443Z" fill="#10355B"/>
<path d="M22.8198 14.4564C22.3114 14.297 21.77 14.58 21.6106 15.0885C21.5497 15.2827 21.4821 15.4779 21.4091 15.669C21.2489 16.0898 21.4024 16.5528 21.7543 16.8009C21.8188 16.8462 21.8899 16.8846 21.9671 16.9138C22.4649 17.1038 23.0224 16.8541 23.2121 16.356C23.2987 16.1288 23.3791 15.8966 23.4518 15.6657C23.611 15.1571 23.3281 14.6158 22.8198 14.4564Z" fill="#10355B"/>
<path d="M10.2149 21.9984C9.35229 21.8435 8.52483 21.5798 7.74019 21.212C7.7309 21.2071 7.72259 21.2016 7.71284 21.1972C7.52794 21.1101 7.34335 21.0169 7.16443 20.9195C7.16382 20.9188 7.16268 20.9183 7.1617 20.9179C6.83343 20.7371 6.51305 20.5371 6.2018 20.318C1.66326 17.1209 0.572018 10.8275 3.7693 6.28899C4.46454 5.30247 5.30588 4.47944 6.24385 3.82713C6.25541 3.81908 6.26696 3.81109 6.27842 3.80299C9.58368 1.52557 14.0717 1.37208 17.5814 3.71234L16.8276 4.80147C16.618 5.10462 16.7469 5.32553 17.1138 5.29251L20.3881 4.99938C20.7554 4.96636 20.9751 4.64861 20.8763 4.29387L19.9971 1.12589C19.8986 0.770743 19.6466 0.728233 19.4368 1.03133L18.6813 2.12304C16.1057 0.394079 13.0165 -0.265198 9.95028 0.266496C9.64146 0.319944 9.33697 0.385361 9.03666 0.461509C9.03434 0.461921 9.03248 0.462179 9.03063 0.462592C9.01902 0.465429 9.00725 0.469196 8.99596 0.472343C6.35193 1.15133 4.04505 2.69343 2.39895 4.89367C2.38507 4.91012 2.37078 4.92622 2.35768 4.94412C2.30294 5.01785 2.24861 5.09327 2.19542 5.1687C2.10844 5.29231 2.0227 5.41902 1.94067 5.54572C1.9304 5.56099 1.92256 5.57652 1.91358 5.59195C0.5552 7.6969 -0.100002 10.1304 0.0123622 12.6079C0.0126202 12.6161 0.0121558 12.6243 0.0123622 12.6326C0.0232478 12.8746 0.0424396 13.12 0.0684929 13.3616C0.0698858 13.3771 0.0733424 13.3919 0.0759736 13.4075C0.102904 13.6504 0.136696 13.8938 0.179052 14.1372C0.609525 16.6207 1.78105 18.8555 3.53652 20.5943C3.5406 20.5984 3.54483 20.6028 3.54896 20.6071C3.5504 20.6087 3.552 20.6095 3.55339 20.611C4.02504 21.0762 4.53805 21.5064 5.09044 21.8955C6.53601 22.9141 8.14569 23.5874 9.87439 23.8976C10.3989 23.9919 10.9 23.6427 10.9941 23.1184C11.0881 22.5938 10.7393 22.0924 10.2149 21.9984Z" fill="#10355B"/>
<path d="M11.4069 4.2923C10.9755 4.2923 10.626 4.64208 10.626 5.07292V12.8501L17.7388 16.527C17.8533 16.5863 17.9758 16.6142 18.0965 16.6142C18.379 16.6142 18.6518 16.4603 18.7906 16.1919C18.9884 15.8088 18.8387 15.3381 18.4556 15.1403L12.187 11.8995V5.07292C12.1869 4.64208 11.8378 4.2923 11.4069 4.2923Z" fill="#10355B"/>
</g>
<defs>
<clipPath id="clip0_853_4179">
<rect width="24" height="24" fill="white"/>
</clipPath>
</defs>
</svg>
