<svg width="360" height="94" viewBox="0 0 360 94" fill="none" xmlns="http://www.w3.org/2000/svg">
<rect width="360" height="94" fill="white"/>
<path d="M73.6055 16.1836L73.293 17.7812H72.543L72.957 16.1836H73.6055ZM74.6992 16.1836L74.3867 17.7812H73.6445L74.0547 16.1836H74.6992ZM80.7383 16.3984H81.7461V22H80.9844V17.3828L79.0273 20.3086H78.6445L76.6875 17.3828V22H75.9258V16.3984H76.9336L78.8359 19.2422L80.7383 16.3984ZM83.6484 16.75C83.5599 16.8385 83.4531 16.8828 83.3281 16.8828C83.2005 16.8828 83.0938 16.8385 83.0078 16.75C82.9193 16.6615 82.875 16.5534 82.875 16.4258C82.875 16.3008 82.9193 16.1953 83.0078 16.1094C83.0938 16.0234 83.2005 15.9805 83.3281 15.9805C83.4531 15.9805 83.5599 16.0234 83.6484 16.1094C83.7344 16.1979 83.7773 16.3047 83.7773 16.4297C83.7773 16.5547 83.7344 16.6615 83.6484 16.75ZM82.9648 22V17.6016H83.6836V22H82.9648ZM84.8477 22V16H85.5664V22H84.8477ZM86.7305 22V16H87.4492V22H86.7305ZM89.2969 16.75C89.2083 16.8385 89.1016 16.8828 88.9766 16.8828C88.849 16.8828 88.7422 16.8385 88.6562 16.75C88.5677 16.6615 88.5234 16.5534 88.5234 16.4258C88.5234 16.3008 88.5677 16.1953 88.6562 16.1094C88.7422 16.0234 88.849 15.9805 88.9766 15.9805C89.1016 15.9805 89.2083 16.0234 89.2969 16.1094C89.3828 16.1979 89.4258 16.3047 89.4258 16.4297C89.4258 16.5547 89.3828 16.6615 89.2969 16.75ZM88.6133 22V17.6016H89.332V22H88.6133ZM92.3047 21.3828L93.6719 17.6016H94.4453L92.7188 21.957C92.513 22.4466 92.2357 22.806 91.8867 23.0352C91.5404 23.2669 91.1016 23.3724 90.5703 23.3516L90.5273 22.8164C90.8997 22.8086 91.2096 22.7435 91.457 22.6211C91.7044 22.5013 91.8633 22.3398 91.9336 22.1367L90.1602 17.6016H90.9336L92.3047 21.3828ZM100.781 19.1328C101.073 19.1979 101.32 19.3581 101.523 19.6133C101.724 19.8685 101.824 20.1693 101.824 20.5156C101.824 20.9427 101.674 21.2969 101.375 21.5781C101.073 21.8594 100.706 22 100.273 22H97.4102V16.3984H100.074C100.507 16.3984 100.874 16.5339 101.176 16.8047C101.473 17.0781 101.621 17.4258 101.621 17.8477C101.621 18.168 101.543 18.4388 101.387 18.6602C101.233 18.8841 101.031 19.0417 100.781 19.1328ZM99.9258 17H98.1719V18.9062H99.9258C100.184 18.9062 100.405 18.8138 100.59 18.6289C100.772 18.4466 100.863 18.2214 100.863 17.9531C100.863 17.6875 100.772 17.4622 100.59 17.2773C100.405 17.0924 100.184 17 99.9258 17ZM98.1719 21.3984H100.125C100.383 21.3984 100.604 21.306 100.789 21.1211C100.971 20.9388 101.062 20.7135 101.062 20.4453C101.062 20.1797 100.971 19.9544 100.789 19.7695C100.604 19.5846 100.383 19.4922 100.125 19.4922H98.1719V21.3984ZM103.57 16.75C103.482 16.8385 103.375 16.8828 103.25 16.8828C103.122 16.8828 103.016 16.8385 102.93 16.75C102.841 16.6615 102.797 16.5534 102.797 16.4258C102.797 16.3008 102.841 16.1953 102.93 16.1094C103.016 16.0234 103.122 15.9805 103.25 15.9805C103.375 15.9805 103.482 16.0234 103.57 16.1094C103.656 16.1979 103.699 16.3047 103.699 16.4297C103.699 16.5547 103.656 16.6615 103.57 16.75ZM102.887 22V17.6016H103.605V22H102.887ZM104.691 17.6016H108.375V18.1836L105.609 21.3984H108.375V22H104.691V21.3984L107.449 18.1836H104.691V17.6016ZM109.465 17.9961L109.777 16.3984H110.527L110.113 17.9961H109.465ZM110.566 17.9961L110.879 16.3984H111.621L111.211 17.9961H110.566ZM114.848 20.1094V19.4922H116.844V20.1094H114.848ZM122.574 17.543C122.967 17.543 123.328 17.6406 123.656 17.8359C123.984 18.0312 124.243 18.3021 124.434 18.6484C124.624 18.9948 124.719 19.3789 124.719 19.8008C124.719 20.2227 124.624 20.6068 124.434 20.9531C124.241 21.3021 123.982 21.5716 123.656 21.7617C123.328 21.957 122.967 22.0547 122.574 22.0547C121.658 22.0547 121.061 21.776 120.785 21.2188L120.754 22H120.066V16H120.785V18.3789C120.936 18.1185 121.168 17.9141 121.48 17.7656C121.796 17.6172 122.16 17.543 122.574 17.543ZM121.258 20.9648C121.57 21.2826 121.949 21.4414 122.395 21.4414C122.84 21.4414 123.219 21.2839 123.531 20.9688C123.844 20.6536 124 20.2643 124 19.8008C124 19.3398 123.844 18.9505 123.531 18.6328C123.219 18.3177 122.84 18.1602 122.395 18.1602C121.947 18.1602 121.566 18.3177 121.254 18.6328C120.941 18.9505 120.785 19.3398 120.785 19.8008C120.785 20.2617 120.943 20.6497 121.258 20.9648ZM125.664 17.6016H126.383V19.8008C126.383 20.3477 126.478 20.7578 126.668 21.0312C126.861 21.3047 127.164 21.4414 127.578 21.4414C128.031 21.4414 128.384 21.2891 128.637 20.9844C128.889 20.6849 129.016 20.2904 129.016 19.8008V17.6016H129.734V22H129.047L129.016 21.2188C128.693 21.776 128.138 22.0547 127.352 22.0547C127.047 22.0547 126.785 22.0039 126.566 21.9023C126.348 21.7982 126.173 21.6471 126.043 21.4492C125.913 21.2487 125.816 21.0143 125.754 20.7461C125.694 20.4753 125.664 20.1602 125.664 19.8008V17.6016ZM138.52 17.543C139.129 17.543 139.561 17.7461 139.816 18.1523C140.056 18.5378 140.176 19.0872 140.176 19.8008V22H139.461V19.8008C139.461 19.2565 139.366 18.8477 139.176 18.5742C138.988 18.2982 138.69 18.1602 138.281 18.1602C137.833 18.1602 137.484 18.3112 137.234 18.6133C136.984 18.9128 136.859 19.3086 136.859 19.8008V22H136.141V19.8008C136.141 19.2539 136.046 18.8438 135.855 18.5703C135.665 18.2969 135.366 18.1602 134.957 18.1602C134.509 18.1602 134.16 18.3112 133.91 18.6133C133.66 18.9128 133.535 19.3086 133.535 19.8008V22H132.816V17.6016H133.504L133.535 18.3789C133.684 18.0846 133.889 17.8724 134.152 17.7422C134.418 17.6094 134.767 17.543 135.199 17.543C135.952 17.543 136.444 17.8711 136.676 18.5273C136.816 18.207 137.043 17.9635 137.355 17.7969C137.671 17.6276 138.059 17.543 138.52 17.543ZM141.953 16.75C141.865 16.8385 141.758 16.8828 141.633 16.8828C141.505 16.8828 141.398 16.8385 141.312 16.75C141.224 16.6615 141.18 16.5534 141.18 16.4258C141.18 16.3008 141.224 16.1953 141.312 16.1094C141.398 16.0234 141.505 15.9805 141.633 15.9805C141.758 15.9805 141.865 16.0234 141.953 16.1094C142.039 16.1979 142.082 16.3047 142.082 16.4297C142.082 16.5547 142.039 16.6615 141.953 16.75ZM141.27 22V17.6016H141.988V22H141.27ZM143.152 22V16H143.871V22H143.152ZM145.035 22V16H145.754V22H145.035ZM147.602 16.75C147.513 16.8385 147.406 16.8828 147.281 16.8828C147.154 16.8828 147.047 16.8385 146.961 16.75C146.872 16.6615 146.828 16.5534 146.828 16.4258C146.828 16.3008 146.872 16.1953 146.961 16.1094C147.047 16.0234 147.154 15.9805 147.281 15.9805C147.406 15.9805 147.513 16.0234 147.602 16.1094C147.688 16.1979 147.73 16.3047 147.73 16.4297C147.73 16.5547 147.688 16.6615 147.602 16.75ZM146.918 22V17.6016H147.637V22H146.918ZM150.609 21.3828L151.977 17.6016H152.75L151.023 21.957C150.818 22.4466 150.54 22.806 150.191 23.0352C149.845 23.2669 149.406 23.3724 148.875 23.3516L148.832 22.8164C149.204 22.8086 149.514 22.7435 149.762 22.6211C150.009 22.5013 150.168 22.3398 150.238 22.1367L148.465 17.6016H149.238L150.609 21.3828ZM157.582 22.0547C157.189 22.0547 156.829 21.957 156.504 21.7617C156.178 21.5716 155.919 21.3021 155.727 20.9531C155.534 20.6042 155.438 20.2201 155.438 19.8008C155.438 19.3815 155.534 18.9974 155.727 18.6484C155.917 18.3021 156.176 18.0312 156.504 17.8359C156.832 17.6406 157.191 17.543 157.582 17.543C158.501 17.543 159.099 17.8216 159.375 18.3789L159.402 17.6016H160.09V23.6016H159.375V21.2188C159.224 21.4792 158.991 21.6836 158.676 21.832C158.361 21.9805 157.996 22.0547 157.582 22.0547ZM159.375 19.8008C159.375 19.3372 159.217 18.9479 158.902 18.6328C158.587 18.3177 158.207 18.1602 157.762 18.1602C157.314 18.1602 156.936 18.3177 156.629 18.6328C156.316 18.9505 156.16 19.3398 156.16 19.8008C156.16 20.2617 156.316 20.651 156.629 20.9688C156.936 21.2839 157.314 21.4414 157.762 21.4414C158.21 21.4414 158.591 21.2839 158.906 20.9688C159.219 20.6536 159.375 20.2643 159.375 19.8008ZM163.176 17.543C163.59 17.543 163.954 17.6172 164.27 17.7656C164.585 17.9141 164.818 18.1185 164.969 18.3789L164.996 17.6016H165.684V22H164.996L164.969 21.2188C164.693 21.776 164.095 22.0547 163.176 22.0547C162.783 22.0547 162.423 21.957 162.098 21.7617C161.772 21.5716 161.513 21.3021 161.32 20.9531C161.128 20.6042 161.031 20.2201 161.031 19.8008C161.031 19.3815 161.128 18.9974 161.32 18.6484C161.51 18.3021 161.77 18.0312 162.098 17.8359C162.423 17.6406 162.783 17.543 163.176 17.543ZM162.223 20.9688C162.53 21.2839 162.908 21.4414 163.355 21.4414C163.798 21.4414 164.178 21.2826 164.496 20.9648C164.811 20.6497 164.969 20.2617 164.969 19.8008C164.969 19.3398 164.812 18.9505 164.5 18.6328C164.185 18.3177 163.803 18.1602 163.355 18.1602C162.908 18.1602 162.53 18.3177 162.223 18.6328C161.91 18.9505 161.754 19.3398 161.754 19.8008C161.754 20.2617 161.91 20.651 162.223 20.9688ZM168.777 17.543C169.191 17.543 169.556 17.6172 169.871 17.7656C170.186 17.9141 170.419 18.1185 170.57 18.3789V16H171.285V22H170.598L170.57 21.2188C170.294 21.776 169.697 22.0547 168.777 22.0547C168.384 22.0547 168.025 21.957 167.699 21.7617C167.374 21.5716 167.115 21.3021 166.922 20.9531C166.729 20.6042 166.633 20.2201 166.633 19.8008C166.633 19.3815 166.729 18.9974 166.922 18.6484C167.112 18.3021 167.371 18.0312 167.699 17.8359C168.025 17.6406 168.384 17.543 168.777 17.543ZM167.824 20.9688C168.132 21.2839 168.509 21.4414 168.957 21.4414C169.4 21.4414 169.78 21.2826 170.098 20.9648C170.413 20.6497 170.57 20.2617 170.57 19.8008C170.57 19.3398 170.414 18.9505 170.102 18.6328C169.786 18.3177 169.405 18.1602 168.957 18.1602C168.509 18.1602 168.132 18.3177 167.824 18.6328C167.512 18.9505 167.355 19.3398 167.355 19.8008C167.355 20.2617 167.512 20.651 167.824 20.9688ZM172.371 22V17.6016H173.059L173.094 18.4531C173.279 18.138 173.512 17.9089 173.793 17.7656C174.074 17.6198 174.428 17.5469 174.855 17.5469V18.1602C174.322 18.1602 173.895 18.3125 173.574 18.6172C173.254 18.9245 173.094 19.319 173.094 19.8008V22H172.371ZM176.484 16.75C176.396 16.8385 176.289 16.8828 176.164 16.8828C176.036 16.8828 175.93 16.8385 175.844 16.75C175.755 16.6615 175.711 16.5534 175.711 16.4258C175.711 16.3008 175.755 16.1953 175.844 16.1094C175.93 16.0234 176.036 15.9805 176.164 15.9805C176.289 15.9805 176.396 16.0234 176.484 16.1094C176.57 16.1979 176.613 16.3047 176.613 16.4297C176.613 16.5547 176.57 16.6615 176.484 16.75ZM175.801 22V17.6016H176.52V22H175.801ZM179.492 21.3828L180.859 17.6016H181.633L179.906 21.957C179.701 22.4466 179.423 22.806 179.074 23.0352C178.728 23.2669 178.289 23.3724 177.758 23.3516L177.715 22.8164C178.087 22.8086 178.397 22.7435 178.645 22.6211C178.892 22.5013 179.051 22.3398 179.121 22.1367L177.348 17.6016H178.121L179.492 21.3828ZM184.168 17.543C184.582 17.543 184.947 17.6172 185.262 17.7656C185.577 17.9141 185.81 18.1185 185.961 18.3789L185.988 17.6016H186.676V22H185.988L185.961 21.2188C185.685 21.776 185.087 22.0547 184.168 22.0547C183.775 22.0547 183.415 21.957 183.09 21.7617C182.764 21.5716 182.505 21.3021 182.312 20.9531C182.12 20.6042 182.023 20.2201 182.023 19.8008C182.023 19.3815 182.12 18.9974 182.312 18.6484C182.503 18.3021 182.762 18.0312 183.09 17.8359C183.415 17.6406 183.775 17.543 184.168 17.543ZM183.215 20.9688C183.522 21.2839 183.9 21.4414 184.348 21.4414C184.79 21.4414 185.171 21.2826 185.488 20.9648C185.803 20.6497 185.961 20.2617 185.961 19.8008C185.961 19.3398 185.805 18.9505 185.492 18.6328C185.177 18.3177 184.796 18.1602 184.348 18.1602C183.9 18.1602 183.522 18.3177 183.215 18.6328C182.902 18.9505 182.746 19.3398 182.746 19.8008C182.746 20.2617 182.902 20.651 183.215 20.9688ZM188.34 17.6016V16.5938H189.059V17.6016H190.262V18.1719H189.059V20.6914C189.059 20.931 189.099 21.1094 189.18 21.2266C189.263 21.3411 189.397 21.4036 189.582 21.4141C189.788 21.4401 190.014 21.4284 190.262 21.3789V21.9766C189.98 22.026 189.724 22.0508 189.492 22.0508C189.083 22.0508 188.789 21.9427 188.609 21.7266C188.43 21.5104 188.34 21.1719 188.34 20.7109V18.1719H187.668V17.6016H188.34ZM191.355 22V16H192.074V22H191.355ZM195.16 17.543C195.574 17.543 195.939 17.6172 196.254 17.7656C196.569 17.9141 196.802 18.1185 196.953 18.3789L196.98 17.6016H197.668V22H196.98L196.953 21.2188C196.677 21.776 196.079 22.0547 195.16 22.0547C194.767 22.0547 194.408 21.957 194.082 21.7617C193.757 21.5716 193.497 21.3021 193.305 20.9531C193.112 20.6042 193.016 20.2201 193.016 19.8008C193.016 19.3815 193.112 18.9974 193.305 18.6484C193.495 18.3021 193.754 18.0312 194.082 17.8359C194.408 17.6406 194.767 17.543 195.16 17.543ZM194.207 20.9688C194.514 21.2839 194.892 21.4414 195.34 21.4414C195.783 21.4414 196.163 21.2826 196.48 20.9648C196.796 20.6497 196.953 20.2617 196.953 19.8008C196.953 19.3398 196.797 18.9505 196.484 18.6328C196.169 18.3177 195.788 18.1602 195.34 18.1602C194.892 18.1602 194.514 18.3177 194.207 18.6328C193.895 18.9505 193.738 19.3398 193.738 19.8008C193.738 20.2617 193.895 20.651 194.207 20.9688ZM198.84 22V17.6016H199.527L199.562 18.4531C199.747 18.138 199.98 17.9089 200.262 17.7656C200.543 17.6198 200.897 17.5469 201.324 17.5469V18.1602C200.79 18.1602 200.363 18.3125 200.043 18.6172C199.723 18.9245 199.562 19.319 199.562 19.8008V22H198.84ZM206.172 21.3633L207.566 17.6016H208.328L206.68 22H205.66L204.012 17.6016H204.77L206.172 21.3633ZM210.855 17.543C211.27 17.543 211.634 17.6172 211.949 17.7656C212.264 17.9141 212.497 18.1185 212.648 18.3789L212.676 17.6016H213.363V22H212.676L212.648 21.2188C212.372 21.776 211.775 22.0547 210.855 22.0547C210.462 22.0547 210.103 21.957 209.777 21.7617C209.452 21.5716 209.193 21.3021 209 20.9531C208.807 20.6042 208.711 20.2201 208.711 19.8008C208.711 19.3815 208.807 18.9974 209 18.6484C209.19 18.3021 209.449 18.0312 209.777 17.8359C210.103 17.6406 210.462 17.543 210.855 17.543ZM209.902 20.9688C210.21 21.2839 210.587 21.4414 211.035 21.4414C211.478 21.4414 211.858 21.2826 212.176 20.9648C212.491 20.6497 212.648 20.2617 212.648 19.8008C212.648 19.3398 212.492 18.9505 212.18 18.6328C211.865 18.3177 211.483 18.1602 211.035 18.1602C210.587 18.1602 210.21 18.3177 209.902 18.6328C209.59 18.9505 209.434 19.3398 209.434 19.8008C209.434 20.2617 209.59 20.651 209.902 20.9688ZM222.16 17.543C222.77 17.543 223.202 17.7461 223.457 18.1523C223.697 18.5378 223.816 19.0872 223.816 19.8008V22H223.102V19.8008C223.102 19.2565 223.007 18.8477 222.816 18.5742C222.629 18.2982 222.331 18.1602 221.922 18.1602C221.474 18.1602 221.125 18.3112 220.875 18.6133C220.625 18.9128 220.5 19.3086 220.5 19.8008V22H219.781V19.8008C219.781 19.2539 219.686 18.8438 219.496 18.5703C219.306 18.2969 219.007 18.1602 218.598 18.1602C218.15 18.1602 217.801 18.3112 217.551 18.6133C217.301 18.9128 217.176 19.3086 217.176 19.8008V22H216.457V17.6016H217.145L217.176 18.3789C217.324 18.0846 217.53 17.8724 217.793 17.7422C218.059 17.6094 218.408 17.543 218.84 17.543C219.592 17.543 220.085 17.8711 220.316 18.5273C220.457 18.207 220.684 17.9635 220.996 17.7969C221.311 17.6276 221.699 17.543 222.16 17.543ZM226.855 17.543C227.27 17.543 227.634 17.6172 227.949 17.7656C228.264 17.9141 228.497 18.1185 228.648 18.3789L228.676 17.6016H229.363V22H228.676L228.648 21.2188C228.372 21.776 227.775 22.0547 226.855 22.0547C226.462 22.0547 226.103 21.957 225.777 21.7617C225.452 21.5716 225.193 21.3021 225 20.9531C224.807 20.6042 224.711 20.2201 224.711 19.8008C224.711 19.3815 224.807 18.9974 225 18.6484C225.19 18.3021 225.449 18.0312 225.777 17.8359C226.103 17.6406 226.462 17.543 226.855 17.543ZM225.902 20.9688C226.21 21.2839 226.587 21.4414 227.035 21.4414C227.478 21.4414 227.858 21.2826 228.176 20.9648C228.491 20.6497 228.648 20.2617 228.648 19.8008C228.648 19.3398 228.492 18.9505 228.18 18.6328C227.865 18.3177 227.483 18.1602 227.035 18.1602C226.587 18.1602 226.21 18.3177 225.902 18.6328C225.59 18.9505 225.434 19.3398 225.434 19.8008C225.434 20.2617 225.59 20.651 225.902 20.9688ZM232.457 17.543C232.871 17.543 233.236 17.6172 233.551 17.7656C233.866 17.9141 234.099 18.1185 234.25 18.3789V16H234.965V22H234.277L234.25 21.2188C233.974 21.776 233.376 22.0547 232.457 22.0547C232.064 22.0547 231.704 21.957 231.379 21.7617C231.053 21.5716 230.794 21.3021 230.602 20.9531C230.409 20.6042 230.312 20.2201 230.312 19.8008C230.312 19.3815 230.409 18.9974 230.602 18.6484C230.792 18.3021 231.051 18.0312 231.379 17.8359C231.704 17.6406 232.064 17.543 232.457 17.543ZM231.504 20.9688C231.811 21.2839 232.189 21.4414 232.637 21.4414C233.079 21.4414 233.46 21.2826 233.777 20.9648C234.092 20.6497 234.25 20.2617 234.25 19.8008C234.25 19.3398 234.094 18.9505 233.781 18.6328C233.466 18.3177 233.085 18.1602 232.637 18.1602C232.189 18.1602 231.811 18.3177 231.504 18.6328C231.191 18.9505 231.035 19.3398 231.035 19.8008C231.035 20.2617 231.191 20.651 231.504 20.9688ZM238.051 17.543C238.465 17.543 238.829 17.6172 239.145 17.7656C239.46 17.9141 239.693 18.1185 239.844 18.3789L239.871 17.6016H240.559V22H239.871L239.844 21.2188C239.568 21.776 238.97 22.0547 238.051 22.0547C237.658 22.0547 237.298 21.957 236.973 21.7617C236.647 21.5716 236.388 21.3021 236.195 20.9531C236.003 20.6042 235.906 20.2201 235.906 19.8008C235.906 19.3815 236.003 18.9974 236.195 18.6484C236.385 18.3021 236.645 18.0312 236.973 17.8359C237.298 17.6406 237.658 17.543 238.051 17.543ZM237.098 20.9688C237.405 21.2839 237.783 21.4414 238.23 21.4414C238.673 21.4414 239.053 21.2826 239.371 20.9648C239.686 20.6497 239.844 20.2617 239.844 19.8008C239.844 19.3398 239.688 18.9505 239.375 18.6328C239.06 18.3177 238.678 18.1602 238.23 18.1602C237.783 18.1602 237.405 18.3177 237.098 18.6328C236.785 18.9505 236.629 19.3398 236.629 19.8008C236.629 20.2617 236.785 20.651 237.098 20.9688ZM245.801 22H245.082V19.8008C245.082 19.2539 244.986 18.8438 244.793 18.5703C244.603 18.2969 244.301 18.1602 243.887 18.1602C243.436 18.1602 243.083 18.3112 242.828 18.6133C242.576 18.9128 242.449 19.3086 242.449 19.8008V22H241.73V17.6016H242.418L242.449 18.3789C242.772 17.8216 243.327 17.543 244.113 17.543C244.418 17.543 244.68 17.5951 244.898 17.6992C245.117 17.8008 245.292 17.9518 245.422 18.1523C245.552 18.3529 245.647 18.5885 245.707 18.8594C245.77 19.1302 245.801 19.444 245.801 19.8008V22ZM247.57 16.75C247.482 16.8385 247.375 16.8828 247.25 16.8828C247.122 16.8828 247.016 16.8385 246.93 16.75C246.841 16.6615 246.797 16.5534 246.797 16.4258C246.797 16.3008 246.841 16.1953 246.93 16.1094C247.016 16.0234 247.122 15.9805 247.25 15.9805C247.375 15.9805 247.482 16.0234 247.57 16.1094C247.656 16.1979 247.699 16.3047 247.699 16.4297C247.699 16.5547 247.656 16.6615 247.57 16.75ZM246.887 22V17.6016H247.605V22H246.887ZM250.578 21.3828L251.945 17.6016H252.719L250.992 21.957C250.786 22.4466 250.509 22.806 250.16 23.0352C249.814 23.2669 249.375 23.3724 248.844 23.3516L248.801 22.8164C249.173 22.8086 249.483 22.7435 249.73 22.6211C249.978 22.5013 250.137 22.3398 250.207 22.1367L248.434 17.6016H249.207L250.578 21.3828ZM255.254 17.543C255.668 17.543 256.033 17.6172 256.348 17.7656C256.663 17.9141 256.896 18.1185 257.047 18.3789L257.074 17.6016H257.762V22H257.074L257.047 21.2188C256.771 21.776 256.173 22.0547 255.254 22.0547C254.861 22.0547 254.501 21.957 254.176 21.7617C253.85 21.5716 253.591 21.3021 253.398 20.9531C253.206 20.6042 253.109 20.2201 253.109 19.8008C253.109 19.3815 253.206 18.9974 253.398 18.6484C253.589 18.3021 253.848 18.0312 254.176 17.8359C254.501 17.6406 254.861 17.543 255.254 17.543ZM254.301 20.9688C254.608 21.2839 254.986 21.4414 255.434 21.4414C255.876 21.4414 256.257 21.2826 256.574 20.9648C256.889 20.6497 257.047 20.2617 257.047 19.8008C257.047 19.3398 256.891 18.9505 256.578 18.6328C256.263 18.3177 255.882 18.1602 255.434 18.1602C254.986 18.1602 254.608 18.3177 254.301 18.6328C253.988 18.9505 253.832 19.3398 253.832 19.8008C253.832 20.2617 253.988 20.651 254.301 20.9688ZM259.426 17.6016V16.5938H260.145V17.6016H261.348V18.1719H260.145V20.6914C260.145 20.931 260.185 21.1094 260.266 21.2266C260.349 21.3411 260.483 21.4036 260.668 21.4141C260.874 21.4401 261.1 21.4284 261.348 21.3789V21.9766C261.066 22.026 260.81 22.0508 260.578 22.0508C260.169 22.0508 259.875 21.9427 259.695 21.7266C259.516 21.5104 259.426 21.1719 259.426 20.7109V18.1719H258.754V17.6016H259.426ZM266.512 22H265.793V19.8008C265.793 19.2539 265.697 18.8438 265.504 18.5703C265.314 18.2969 265.012 18.1602 264.598 18.1602C264.147 18.1602 263.794 18.3112 263.539 18.6133C263.286 18.9128 263.16 19.3086 263.16 19.8008V22H262.441V17.6016H263.129L263.16 18.3789C263.483 17.8216 264.038 17.543 264.824 17.543C265.129 17.543 265.391 17.5951 265.609 17.6992C265.828 17.8008 266.003 17.9518 266.133 18.1523C266.263 18.3529 266.358 18.5885 266.418 18.8594C266.48 19.1302 266.512 19.444 266.512 19.8008V22ZM268.281 16.75C268.193 16.8385 268.086 16.8828 267.961 16.8828C267.833 16.8828 267.727 16.8385 267.641 16.75C267.552 16.6615 267.508 16.5534 267.508 16.4258C267.508 16.3008 267.552 16.1953 267.641 16.1094C267.727 16.0234 267.833 15.9805 267.961 15.9805C268.086 15.9805 268.193 16.0234 268.281 16.1094C268.367 16.1979 268.41 16.3047 268.41 16.4297C268.41 16.5547 268.367 16.6615 268.281 16.75ZM267.598 22V17.6016H268.316V22H267.598ZM272.074 17.6016V16.5938H272.793V17.6016H273.996V18.1719H272.793V20.6914C272.793 20.931 272.833 21.1094 272.914 21.2266C272.997 21.3411 273.132 21.4036 273.316 21.4141C273.522 21.4401 273.749 21.4284 273.996 21.3789V21.9766C273.715 22.026 273.458 22.0508 273.227 22.0508C272.818 22.0508 272.523 21.9427 272.344 21.7266C272.164 21.5104 272.074 21.1719 272.074 20.7109V18.1719H271.402V17.6016H272.074ZM276.707 17.543C277.121 17.543 277.486 17.6172 277.801 17.7656C278.116 17.9141 278.349 18.1185 278.5 18.3789L278.527 17.6016H279.215V22H278.527L278.5 21.2188C278.224 21.776 277.626 22.0547 276.707 22.0547C276.314 22.0547 275.954 21.957 275.629 21.7617C275.303 21.5716 275.044 21.3021 274.852 20.9531C274.659 20.6042 274.562 20.2201 274.562 19.8008C274.562 19.3815 274.659 18.9974 274.852 18.6484C275.042 18.3021 275.301 18.0312 275.629 17.8359C275.954 17.6406 276.314 17.543 276.707 17.543ZM275.754 20.9688C276.061 21.2839 276.439 21.4414 276.887 21.4414C277.329 21.4414 277.71 21.2826 278.027 20.9648C278.342 20.6497 278.5 20.2617 278.5 19.8008C278.5 19.3398 278.344 18.9505 278.031 18.6328C277.716 18.3177 277.335 18.1602 276.887 18.1602C276.439 18.1602 276.061 18.3177 275.754 18.6328C275.441 18.9505 275.285 19.3398 275.285 19.8008C275.285 20.2617 275.441 20.651 275.754 20.9688ZM280.387 22V17.6016H281.074L281.109 18.4531C281.294 18.138 281.527 17.9089 281.809 17.7656C282.09 17.6198 282.444 17.5469 282.871 17.5469V18.1602C282.337 18.1602 281.91 18.3125 281.59 18.6172C281.27 18.9245 281.109 19.319 281.109 19.8008V22H280.387ZM287.164 18.3789L287.191 17.6016H287.879V21.5977C287.879 21.9232 287.819 22.2174 287.699 22.4805C287.582 22.7435 287.419 22.9596 287.211 23.1289C287.003 23.2982 286.76 23.4284 286.484 23.5195C286.208 23.6107 285.91 23.6562 285.59 23.6562C285.184 23.6562 284.81 23.5794 284.469 23.4258C284.13 23.2721 283.842 23.0534 283.605 22.7695L284.004 22.3281C284.402 22.7995 284.913 23.0352 285.535 23.0352C286.001 23.0352 286.389 22.9076 286.699 22.6523C287.004 22.3997 287.159 22.0378 287.164 21.5664V21.2188C286.888 21.776 286.29 22.0547 285.371 22.0547C284.978 22.0547 284.618 21.957 284.293 21.7617C283.967 21.5716 283.708 21.3021 283.516 20.9531C283.323 20.6042 283.227 20.2201 283.227 19.8008C283.227 19.3815 283.323 18.9974 283.516 18.6484C283.706 18.3021 283.965 18.0312 284.293 17.8359C284.621 17.6406 284.98 17.543 285.371 17.543C285.785 17.543 286.15 17.6172 286.465 17.7656C286.78 17.9141 287.013 18.1185 287.164 18.3789ZM284.418 20.9688C284.725 21.2839 285.103 21.4414 285.551 21.4414C285.993 21.4414 286.374 21.2826 286.691 20.9648C287.007 20.6497 287.164 20.2617 287.164 19.8008C287.164 19.3398 287.008 18.9505 286.695 18.6328C286.38 18.3177 285.999 18.1602 285.551 18.1602C285.103 18.1602 284.725 18.3177 284.418 18.6328C284.105 18.9505 283.949 19.3398 283.949 19.8008C283.949 20.2617 284.105 20.651 284.418 20.9688ZM288.973 17.9961L289.285 16.3984H290.035L289.621 17.9961H288.973ZM291.805 16.75C291.716 16.8385 291.609 16.8828 291.484 16.8828C291.357 16.8828 291.25 16.8385 291.164 16.75C291.076 16.6615 291.031 16.5534 291.031 16.4258C291.031 16.3008 291.076 16.1953 291.164 16.1094C291.25 16.0234 291.357 15.9805 291.484 15.9805C291.609 15.9805 291.716 16.0234 291.805 16.1094C291.891 16.1979 291.934 16.3047 291.934 16.4297C291.934 16.5547 291.891 16.6615 291.805 16.75ZM291.121 22V17.6016H291.84V22H291.121ZM295.512 17.543C295.905 17.543 296.266 17.6406 296.594 17.8359C296.922 18.0312 297.181 18.3021 297.371 18.6484C297.561 18.9948 297.656 19.3789 297.656 19.8008C297.656 20.2227 297.561 20.6068 297.371 20.9531C297.178 21.3021 296.919 21.5716 296.594 21.7617C296.266 21.957 295.905 22.0547 295.512 22.0547C294.595 22.0547 293.999 21.776 293.723 21.2188L293.691 22H293.004V16H293.723V18.3789C293.874 18.1185 294.105 17.9141 294.418 17.7656C294.733 17.6172 295.098 17.543 295.512 17.543ZM294.195 20.9648C294.508 21.2826 294.887 21.4414 295.332 21.4414C295.777 21.4414 296.156 21.2839 296.469 20.9688C296.781 20.6536 296.938 20.2643 296.938 19.8008C296.938 19.3398 296.781 18.9505 296.469 18.6328C296.156 18.3177 295.777 18.1602 295.332 18.1602C294.884 18.1602 294.504 18.3177 294.191 18.6328C293.879 18.9505 293.723 19.3398 293.723 19.8008C293.723 20.2617 293.88 20.6497 294.195 20.9648ZM302.418 22.0547C302.025 22.0547 301.665 21.957 301.34 21.7617C301.014 21.5716 300.755 21.3021 300.562 20.9531C300.37 20.6042 300.273 20.2201 300.273 19.8008C300.273 19.3815 300.37 18.9974 300.562 18.6484C300.753 18.3021 301.012 18.0312 301.34 17.8359C301.668 17.6406 302.027 17.543 302.418 17.543C303.337 17.543 303.935 17.8216 304.211 18.3789L304.238 17.6016H304.926V23.6016H304.211V21.2188C304.06 21.4792 303.827 21.6836 303.512 21.832C303.197 21.9805 302.832 22.0547 302.418 22.0547ZM304.211 19.8008C304.211 19.3372 304.053 18.9479 303.738 18.6328C303.423 18.3177 303.043 18.1602 302.598 18.1602C302.15 18.1602 301.772 18.3177 301.465 18.6328C301.152 18.9505 300.996 19.3398 300.996 19.8008C300.996 20.2617 301.152 20.651 301.465 20.9688C301.772 21.2839 302.15 21.4414 302.598 21.4414C303.046 21.4414 303.427 21.2839 303.742 20.9688C304.055 20.6536 304.211 20.2643 304.211 19.8008ZM306.727 16.75C306.638 16.8385 306.531 16.8828 306.406 16.8828C306.279 16.8828 306.172 16.8385 306.086 16.75C305.997 16.6615 305.953 16.5534 305.953 16.4258C305.953 16.3008 305.997 16.1953 306.086 16.1094C306.172 16.0234 306.279 15.9805 306.406 15.9805C306.531 15.9805 306.638 16.0234 306.727 16.1094C306.812 16.1979 306.855 16.3047 306.855 16.4297C306.855 16.5547 306.812 16.6615 306.727 16.75ZM306.043 22V17.6016H306.762V22H306.043ZM307.926 22V16H308.645V22H307.926ZM309.734 17.6016H310.453V19.8008C310.453 20.3477 310.548 20.7578 310.738 21.0312C310.931 21.3047 311.234 21.4414 311.648 21.4414C312.102 21.4414 312.454 21.2891 312.707 20.9844C312.96 20.6849 313.086 20.2904 313.086 19.8008V17.6016H313.805V22H313.117L313.086 21.2188C312.763 21.776 312.208 22.0547 311.422 22.0547C311.117 22.0547 310.855 22.0039 310.637 21.9023C310.418 21.7982 310.243 21.6471 310.113 21.4492C309.983 21.2487 309.887 21.0143 309.824 20.7461C309.764 20.4753 309.734 20.1602 309.734 19.8008V17.6016ZM316.789 21.3633L318.184 17.6016H318.945L317.297 22H316.277L314.629 17.6016H315.387L316.789 21.3633ZM321.652 21.4531C321.928 21.4531 322.181 21.3906 322.41 21.2656C322.639 21.138 322.824 20.9583 322.965 20.7266L323.605 21.0078C323.415 21.3307 323.146 21.5859 322.797 21.7734C322.448 21.9609 322.066 22.0547 321.652 22.0547C321.23 22.0547 320.844 21.9609 320.492 21.7734C320.141 21.5859 319.859 21.3177 319.648 20.9688C319.435 20.6224 319.328 20.2331 319.328 19.8008C319.328 19.3659 319.435 18.9753 319.648 18.6289C319.857 18.2852 320.139 18.0169 320.496 17.8242C320.848 17.6367 321.233 17.543 321.652 17.543C322.066 17.543 322.448 17.6367 322.797 17.8242C323.146 18.0169 323.415 18.2734 323.605 18.5938L322.965 18.8711C322.824 18.6393 322.639 18.4609 322.41 18.3359C322.181 18.2109 321.928 18.1484 321.652 18.1484C321.202 18.1484 320.823 18.306 320.516 18.6211C320.203 18.9362 320.047 19.3294 320.047 19.8008C320.047 20.2669 320.203 20.6589 320.516 20.9766C320.826 21.2943 321.204 21.4531 321.652 21.4531ZM328.848 22H328.133V19.8008C328.133 19.2565 328.026 18.8477 327.812 18.5742C327.599 18.2982 327.266 18.1602 326.812 18.1602C326.362 18.1602 325.992 18.3151 325.703 18.625C325.414 18.9323 325.27 19.3242 325.27 19.8008V22H324.551V16H325.27V18.3789C325.421 18.1133 325.648 17.9076 325.953 17.7617C326.258 17.6159 326.618 17.543 327.035 17.543C327.671 17.543 328.132 17.737 328.418 18.125C328.704 18.513 328.848 19.0716 328.848 19.8008V22ZM330.625 16.75C330.536 16.8385 330.43 16.8828 330.305 16.8828C330.177 16.8828 330.07 16.8385 329.984 16.75C329.896 16.6615 329.852 16.5534 329.852 16.4258C329.852 16.3008 329.896 16.1953 329.984 16.1094C330.07 16.0234 330.177 15.9805 330.305 15.9805C330.43 15.9805 330.536 16.0234 330.625 16.1094C330.711 16.1979 330.754 16.3047 330.754 16.4297C330.754 16.5547 330.711 16.6615 330.625 16.75ZM329.941 22V17.6016H330.66V22H329.941ZM75.5469 27.6016H76.5781L74.6406 29.5156L76.5781 32H75.6758L74.1211 30.0273L73.3906 30.7461V32H72.6758V26H73.3906V29.7383L75.5469 27.6016ZM79.2852 32.0547C78.8633 32.0547 78.4766 31.9609 78.125 31.7734C77.7734 31.5859 77.4922 31.3177 77.2812 30.9688C77.0677 30.6224 76.9609 30.2331 76.9609 29.8008C76.9609 29.3659 77.0677 28.9753 77.2812 28.6289C77.4896 28.2852 77.7721 28.0169 78.1289 27.8242C78.4805 27.6367 78.8659 27.543 79.2852 27.543C79.5951 27.543 79.8919 27.599 80.1758 27.7109C80.4622 27.8203 80.7122 27.974 80.9258 28.1719C81.1393 28.3698 81.3073 28.6107 81.4297 28.8945C81.5521 29.1784 81.6133 29.4805 81.6133 29.8008C81.6133 30.1211 81.5521 30.4232 81.4297 30.707C81.3073 30.9883 81.1393 31.2279 80.9258 31.4258C80.7122 31.6237 80.4622 31.7786 80.1758 31.8906C79.8919 32 79.5951 32.0547 79.2852 32.0547ZM79.2852 31.4414C79.7305 31.4414 80.1107 31.2839 80.4258 30.9688C80.7409 30.6536 80.8984 30.2643 80.8984 29.8008C80.8984 29.3398 80.7422 28.9505 80.4297 28.6328C80.1146 28.3177 79.7331 28.1602 79.2852 28.1602C78.8372 28.1602 78.457 28.3177 78.1445 28.6328C77.832 28.9505 77.6758 29.3398 77.6758 29.8008C77.6758 30.2617 77.832 30.651 78.1445 30.9688C78.457 31.2839 78.8372 31.4414 79.2852 31.4414ZM88.2617 27.543C88.8711 27.543 89.3034 27.7461 89.5586 28.1523C89.7982 28.5378 89.918 29.0872 89.918 29.8008V32H89.2031V29.8008C89.2031 29.2565 89.1081 28.8477 88.918 28.5742C88.7305 28.2982 88.4323 28.1602 88.0234 28.1602C87.5755 28.1602 87.2266 28.3112 86.9766 28.6133C86.7266 28.9128 86.6016 29.3086 86.6016 29.8008V32H85.8828V29.8008C85.8828 29.2539 85.7878 28.8438 85.5977 28.5703C85.4076 28.2969 85.1081 28.1602 84.6992 28.1602C84.2513 28.1602 83.9023 28.3112 83.6523 28.6133C83.4023 28.9128 83.2773 29.3086 83.2773 29.8008V32H82.5586V27.6016H83.2461L83.2773 28.3789C83.4258 28.0846 83.6315 27.8724 83.8945 27.7422C84.1602 27.6094 84.5091 27.543 84.9414 27.543C85.694 27.543 86.1862 27.8711 86.418 28.5273C86.5586 28.207 86.7852 27.9635 87.0977 27.7969C87.4128 27.6276 87.8008 27.543 88.2617 27.543ZM93.5352 32.0547C93.1185 32.0547 92.7539 31.9818 92.4414 31.8359C92.1289 31.6875 91.8971 31.4818 91.7461 31.2188V33.6016H91.0273V27.6016H91.7148L91.7461 28.3789C92.0273 27.8216 92.6237 27.543 93.5352 27.543C93.9284 27.543 94.2891 27.6406 94.6172 27.8359C94.9453 28.0312 95.2044 28.3021 95.3945 28.6484C95.5846 28.9948 95.6797 29.3789 95.6797 29.8008C95.6797 30.2227 95.5846 30.6068 95.3945 30.9531C95.2018 31.3021 94.9427 31.5716 94.6172 31.7617C94.2891 31.957 93.9284 32.0547 93.5352 32.0547ZM94.4922 28.6328C94.1797 28.3177 93.8008 28.1602 93.3555 28.1602C92.9102 28.1602 92.5312 28.3177 92.2188 28.6328C91.9036 28.9479 91.7461 29.3372 91.7461 29.8008C91.7461 30.2617 91.9023 30.651 92.2148 30.9688C92.5273 31.2839 92.9076 31.4414 93.3555 31.4414C93.8008 31.4414 94.1797 31.2839 94.4922 30.9688C94.8047 30.6536 94.9609 30.2643 94.9609 29.8008C94.9609 29.3398 94.8047 28.9505 94.4922 28.6328ZM98.6133 27.543C99.0273 27.543 99.3919 27.6172 99.707 27.7656C100.022 27.9141 100.255 28.1185 100.406 28.3789L100.434 27.6016H101.121V32H100.434L100.406 31.2188C100.13 31.776 99.5326 32.0547 98.6133 32.0547C98.2201 32.0547 97.8607 31.957 97.5352 31.7617C97.2096 31.5716 96.9505 31.3021 96.7578 30.9531C96.5651 30.6042 96.4688 30.2201 96.4688 29.8008C96.4688 29.3815 96.5651 28.9974 96.7578 28.6484C96.9479 28.3021 97.207 28.0312 97.5352 27.8359C97.8607 27.6406 98.2201 27.543 98.6133 27.543ZM97.6602 30.9688C97.9674 31.2839 98.3451 31.4414 98.793 31.4414C99.2357 31.4414 99.6159 31.2826 99.9336 30.9648C100.249 30.6497 100.406 30.2617 100.406 29.8008C100.406 29.3398 100.25 28.9505 99.9375 28.6328C99.6224 28.3177 99.2409 28.1602 98.793 28.1602C98.3451 28.1602 97.9674 28.3177 97.6602 28.6328C97.3477 28.9505 97.1914 29.3398 97.1914 29.8008C97.1914 30.2617 97.3477 30.651 97.6602 30.9688ZM106.363 32H105.645V29.8008C105.645 29.2539 105.548 28.8438 105.355 28.5703C105.165 28.2969 104.863 28.1602 104.449 28.1602C103.999 28.1602 103.646 28.3112 103.391 28.6133C103.138 28.9128 103.012 29.3086 103.012 29.8008V32H102.293V27.6016H102.98L103.012 28.3789C103.335 27.8216 103.889 27.543 104.676 27.543C104.98 27.543 105.242 27.5951 105.461 27.6992C105.68 27.8008 105.854 27.9518 105.984 28.1523C106.115 28.3529 106.21 28.5885 106.27 28.8594C106.332 29.1302 106.363 29.444 106.363 29.8008V32ZM108.133 26.75C108.044 26.8385 107.938 26.8828 107.812 26.8828C107.685 26.8828 107.578 26.8385 107.492 26.75C107.404 26.6615 107.359 26.5534 107.359 26.4258C107.359 26.3008 107.404 26.1953 107.492 26.1094C107.578 26.0234 107.685 25.9805 107.812 25.9805C107.938 25.9805 108.044 26.0234 108.133 26.1094C108.219 26.1979 108.262 26.3047 108.262 26.4297C108.262 26.5547 108.219 26.6615 108.133 26.75ZM107.449 32V27.6016H108.168V32H107.449ZM111.141 31.3828L112.508 27.6016H113.281L111.555 31.957C111.349 32.4466 111.072 32.806 110.723 33.0352C110.376 33.2669 109.938 33.3724 109.406 33.3516L109.363 32.8164C109.736 32.8086 110.046 32.7435 110.293 32.6211C110.54 32.5013 110.699 32.3398 110.77 32.1367L108.996 27.6016H109.77L111.141 31.3828ZM115.816 27.543C116.23 27.543 116.595 27.6172 116.91 27.7656C117.225 27.9141 117.458 28.1185 117.609 28.3789L117.637 27.6016H118.324V32H117.637L117.609 31.2188C117.333 31.776 116.736 32.0547 115.816 32.0547C115.423 32.0547 115.064 31.957 114.738 31.7617C114.413 31.5716 114.154 31.3021 113.961 30.9531C113.768 30.6042 113.672 30.2201 113.672 29.8008C113.672 29.3815 113.768 28.9974 113.961 28.6484C114.151 28.3021 114.41 28.0312 114.738 27.8359C115.064 27.6406 115.423 27.543 115.816 27.543ZM114.863 30.9688C115.171 31.2839 115.548 31.4414 115.996 31.4414C116.439 31.4414 116.819 31.2826 117.137 30.9648C117.452 30.6497 117.609 30.2617 117.609 29.8008C117.609 29.3398 117.453 28.9505 117.141 28.6328C116.826 28.3177 116.444 28.1602 115.996 28.1602C115.548 28.1602 115.171 28.3177 114.863 28.6328C114.551 28.9505 114.395 29.3398 114.395 29.8008C114.395 30.2617 114.551 30.651 114.863 30.9688ZM119.707 32.0547C119.587 32.0547 119.484 32.013 119.398 31.9297C119.315 31.8464 119.273 31.7448 119.273 31.625C119.273 31.5052 119.315 31.4036 119.398 31.3203C119.484 31.2344 119.587 31.1914 119.707 31.1914C119.824 31.1914 119.924 31.2344 120.008 31.3203C120.094 31.4036 120.137 31.5052 120.137 31.625C120.137 31.7448 120.094 31.8464 120.008 31.9297C119.924 32.013 119.824 32.0547 119.707 32.0547ZM123.207 32V26.3984H123.969V32H123.207ZM125.184 32V26H125.902V32H125.184ZM129.168 32.0547C128.746 32.0547 128.359 31.9609 128.008 31.7734C127.656 31.5859 127.375 31.3177 127.164 30.9688C126.951 30.6224 126.844 30.2331 126.844 29.8008C126.844 29.3659 126.951 28.9753 127.164 28.6289C127.372 28.2852 127.655 28.0169 128.012 27.8242C128.363 27.6367 128.749 27.543 129.168 27.543C129.478 27.543 129.775 27.599 130.059 27.7109C130.345 27.8203 130.595 27.974 130.809 28.1719C131.022 28.3698 131.19 28.6107 131.312 28.8945C131.435 29.1784 131.496 29.4805 131.496 29.8008C131.496 30.1211 131.435 30.4232 131.312 30.707C131.19 30.9883 131.022 31.2279 130.809 31.4258C130.595 31.6237 130.345 31.7786 130.059 31.8906C129.775 32 129.478 32.0547 129.168 32.0547ZM129.168 31.4414C129.613 31.4414 129.993 31.2839 130.309 30.9688C130.624 30.6536 130.781 30.2643 130.781 29.8008C130.781 29.3398 130.625 28.9505 130.312 28.6328C129.997 28.3177 129.616 28.1602 129.168 28.1602C128.72 28.1602 128.34 28.3177 128.027 28.6328C127.715 28.9505 127.559 29.3398 127.559 29.8008C127.559 30.2617 127.715 30.651 128.027 30.9688C128.34 31.2839 128.72 31.4414 129.168 31.4414ZM134.047 31.3633L135.441 27.6016H136.203L134.555 32H133.535L131.887 27.6016H132.645L134.047 31.3633ZM138.73 27.543C139.145 27.543 139.509 27.6172 139.824 27.7656C140.139 27.9141 140.372 28.1185 140.523 28.3789L140.551 27.6016H141.238V32H140.551L140.523 31.2188C140.247 31.776 139.65 32.0547 138.73 32.0547C138.337 32.0547 137.978 31.957 137.652 31.7617C137.327 31.5716 137.068 31.3021 136.875 30.9531C136.682 30.6042 136.586 30.2201 136.586 29.8008C136.586 29.3815 136.682 28.9974 136.875 28.6484C137.065 28.3021 137.324 28.0312 137.652 27.8359C137.978 27.6406 138.337 27.543 138.73 27.543ZM137.777 30.9688C138.085 31.2839 138.462 31.4414 138.91 31.4414C139.353 31.4414 139.733 31.2826 140.051 30.9648C140.366 30.6497 140.523 30.2617 140.523 29.8008C140.523 29.3398 140.367 28.9505 140.055 28.6328C139.74 28.3177 139.358 28.1602 138.91 28.1602C138.462 28.1602 138.085 28.3177 137.777 28.6328C137.465 28.9505 137.309 29.3398 137.309 29.8008C137.309 30.2617 137.465 30.651 137.777 30.9688ZM149.277 26.3984H150.285V32H149.523V27.3828L147.566 30.3086H147.184L145.227 27.3828V32H144.465V26.3984H145.473L147.375 29.2422L149.277 26.3984ZM152.188 26.75C152.099 26.8385 151.992 26.8828 151.867 26.8828C151.74 26.8828 151.633 26.8385 151.547 26.75C151.458 26.6615 151.414 26.5534 151.414 26.4258C151.414 26.3008 151.458 26.1953 151.547 26.1094C151.633 26.0234 151.74 25.9805 151.867 25.9805C151.992 25.9805 152.099 26.0234 152.188 26.1094C152.273 26.1979 152.316 26.3047 152.316 26.4297C152.316 26.5547 152.273 26.6615 152.188 26.75ZM151.504 32V27.6016H152.223V32H151.504ZM153.387 32V26H154.105V32H153.387ZM155.27 32V26H155.988V32H155.27ZM157.836 26.75C157.747 26.8385 157.641 26.8828 157.516 26.8828C157.388 26.8828 157.281 26.8385 157.195 26.75C157.107 26.6615 157.062 26.5534 157.062 26.4258C157.062 26.3008 157.107 26.1953 157.195 26.1094C157.281 26.0234 157.388 25.9805 157.516 25.9805C157.641 25.9805 157.747 26.0234 157.836 26.1094C157.922 26.1979 157.965 26.3047 157.965 26.4297C157.965 26.5547 157.922 26.6615 157.836 26.75ZM157.152 32V27.6016H157.871V32H157.152ZM160.844 31.3828L162.211 27.6016H162.984L161.258 31.957C161.052 32.4466 160.775 32.806 160.426 33.0352C160.079 33.2669 159.641 33.3724 159.109 33.3516L159.066 32.8164C159.439 32.8086 159.749 32.7435 159.996 32.6211C160.243 32.5013 160.402 32.3398 160.473 32.1367L158.699 27.6016H159.473L160.844 31.3828ZM166.324 27.543C166.717 27.543 167.078 27.6406 167.406 27.8359C167.734 28.0312 167.993 28.3021 168.184 28.6484C168.374 28.9948 168.469 29.3789 168.469 29.8008C168.469 30.2227 168.374 30.6068 168.184 30.9531C167.991 31.3021 167.732 31.5716 167.406 31.7617C167.078 31.957 166.717 32.0547 166.324 32.0547C165.408 32.0547 164.811 31.776 164.535 31.2188L164.504 32H163.816V26H164.535V28.3789C164.686 28.1185 164.918 27.9141 165.23 27.7656C165.546 27.6172 165.91 27.543 166.324 27.543ZM165.008 30.9648C165.32 31.2826 165.699 31.4414 166.145 31.4414C166.59 31.4414 166.969 31.2839 167.281 30.9688C167.594 30.6536 167.75 30.2643 167.75 29.8008C167.75 29.3398 167.594 28.9505 167.281 28.6328C166.969 28.3177 166.59 28.1602 166.145 28.1602C165.697 28.1602 165.316 28.3177 165.004 28.6328C164.691 28.9505 164.535 29.3398 164.535 29.8008C164.535 30.2617 164.693 30.6497 165.008 30.9648ZM170.094 26.75C170.005 26.8385 169.898 26.8828 169.773 26.8828C169.646 26.8828 169.539 26.8385 169.453 26.75C169.365 26.6615 169.32 26.5534 169.32 26.4258C169.32 26.3008 169.365 26.1953 169.453 26.1094C169.539 26.0234 169.646 25.9805 169.773 25.9805C169.898 25.9805 170.005 26.0234 170.094 26.1094C170.18 26.1979 170.223 26.3047 170.223 26.4297C170.223 26.5547 170.18 26.6615 170.094 26.75ZM169.41 32V27.6016H170.129V32H169.41ZM171.215 27.6016H174.898V28.1836L172.133 31.3984H174.898V32H171.215V31.3984L173.973 28.1836H171.215V27.6016ZM178.66 27.6016V26.5938H179.379V27.6016H180.582V28.1719H179.379V30.6914C179.379 30.931 179.419 31.1094 179.5 31.2266C179.583 31.3411 179.717 31.4036 179.902 31.4141C180.108 31.4401 180.335 31.4284 180.582 31.3789V31.9766C180.301 32.026 180.044 32.0508 179.812 32.0508C179.404 32.0508 179.109 31.9427 178.93 31.7266C178.75 31.5104 178.66 31.1719 178.66 30.7109V28.1719H177.988V27.6016H178.66ZM183.473 32.0547C183.051 32.0547 182.664 31.9609 182.312 31.7734C181.961 31.5859 181.68 31.3177 181.469 30.9688C181.255 30.6224 181.148 30.2331 181.148 29.8008C181.148 29.3659 181.255 28.9753 181.469 28.6289C181.677 28.2852 181.96 28.0169 182.316 27.8242C182.668 27.6367 183.053 27.543 183.473 27.543C183.783 27.543 184.079 27.599 184.363 27.7109C184.65 27.8203 184.9 27.974 185.113 28.1719C185.327 28.3698 185.495 28.6107 185.617 28.8945C185.74 29.1784 185.801 29.4805 185.801 29.8008C185.801 30.1211 185.74 30.4232 185.617 30.707C185.495 30.9883 185.327 31.2279 185.113 31.4258C184.9 31.6237 184.65 31.7786 184.363 31.8906C184.079 32 183.783 32.0547 183.473 32.0547ZM183.473 31.4414C183.918 31.4414 184.298 31.2839 184.613 30.9688C184.928 30.6536 185.086 30.2643 185.086 29.8008C185.086 29.3398 184.93 28.9505 184.617 28.6328C184.302 28.3177 183.921 28.1602 183.473 28.1602C183.025 28.1602 182.645 28.3177 182.332 28.6328C182.02 28.9505 181.863 29.3398 181.863 29.8008C181.863 30.2617 182.02 30.651 182.332 30.9688C182.645 31.2839 183.025 31.4414 183.473 31.4414ZM192.449 27.543C193.059 27.543 193.491 27.7461 193.746 28.1523C193.986 28.5378 194.105 29.0872 194.105 29.8008V32H193.391V29.8008C193.391 29.2565 193.296 28.8477 193.105 28.5742C192.918 28.2982 192.62 28.1602 192.211 28.1602C191.763 28.1602 191.414 28.3112 191.164 28.6133C190.914 28.9128 190.789 29.3086 190.789 29.8008V32H190.07V29.8008C190.07 29.2539 189.975 28.8438 189.785 28.5703C189.595 28.2969 189.296 28.1602 188.887 28.1602C188.439 28.1602 188.09 28.3112 187.84 28.6133C187.59 28.9128 187.465 29.3086 187.465 29.8008V32H186.746V27.6016H187.434L187.465 28.3789C187.613 28.0846 187.819 27.8724 188.082 27.7422C188.348 27.6094 188.697 27.543 189.129 27.543C189.882 27.543 190.374 27.8711 190.605 28.5273C190.746 28.207 190.973 27.9635 191.285 27.7969C191.6 27.6276 191.988 27.543 192.449 27.543ZM197.324 32.0547C196.902 32.0547 196.516 31.9609 196.164 31.7734C195.812 31.5859 195.531 31.3177 195.32 30.9688C195.107 30.6224 195 30.2331 195 29.8008C195 29.3659 195.107 28.9753 195.32 28.6289C195.529 28.2852 195.811 28.0169 196.168 27.8242C196.52 27.6367 196.905 27.543 197.324 27.543C197.634 27.543 197.931 27.599 198.215 27.7109C198.501 27.8203 198.751 27.974 198.965 28.1719C199.178 28.3698 199.346 28.6107 199.469 28.8945C199.591 29.1784 199.652 29.4805 199.652 29.8008C199.652 30.1211 199.591 30.4232 199.469 30.707C199.346 30.9883 199.178 31.2279 198.965 31.4258C198.751 31.6237 198.501 31.7786 198.215 31.8906C197.931 32 197.634 32.0547 197.324 32.0547ZM197.324 31.4414C197.77 31.4414 198.15 31.2839 198.465 30.9688C198.78 30.6536 198.938 30.2643 198.938 29.8008C198.938 29.3398 198.781 28.9505 198.469 28.6328C198.154 28.3177 197.772 28.1602 197.324 28.1602C196.876 28.1602 196.496 28.3177 196.184 28.6328C195.871 28.9505 195.715 29.3398 195.715 29.8008C195.715 30.2617 195.871 30.651 196.184 30.9688C196.496 31.2839 196.876 31.4414 197.324 31.4414ZM204.668 32H203.949V29.8008C203.949 29.2539 203.853 28.8438 203.66 28.5703C203.47 28.2969 203.168 28.1602 202.754 28.1602C202.303 28.1602 201.951 28.3112 201.695 28.6133C201.443 28.9128 201.316 29.3086 201.316 29.8008V32H200.598V27.6016H201.285L201.316 28.3789C201.639 27.8216 202.194 27.543 202.98 27.543C203.285 27.543 203.547 27.5951 203.766 27.6992C203.984 27.8008 204.159 27.9518 204.289 28.1523C204.419 28.3529 204.514 28.5885 204.574 28.8594C204.637 29.1302 204.668 29.444 204.668 29.8008V32ZM206.438 26.75C206.349 26.8385 206.242 26.8828 206.117 26.8828C205.99 26.8828 205.883 26.8385 205.797 26.75C205.708 26.6615 205.664 26.5534 205.664 26.4258C205.664 26.3008 205.708 26.1953 205.797 26.1094C205.883 26.0234 205.99 25.9805 206.117 25.9805C206.242 25.9805 206.349 26.0234 206.438 26.1094C206.523 26.1979 206.566 26.3047 206.566 26.4297C206.566 26.5547 206.523 26.6615 206.438 26.75ZM205.754 32V27.6016H206.473V32H205.754ZM209.48 27.543C209.895 27.543 210.259 27.6172 210.574 27.7656C210.889 27.9141 211.122 28.1185 211.273 28.3789V26H211.988V32H211.301L211.273 31.2188C210.997 31.776 210.4 32.0547 209.48 32.0547C209.087 32.0547 208.728 31.957 208.402 31.7617C208.077 31.5716 207.818 31.3021 207.625 30.9531C207.432 30.6042 207.336 30.2201 207.336 29.8008C207.336 29.3815 207.432 28.9974 207.625 28.6484C207.815 28.3021 208.074 28.0312 208.402 27.8359C208.728 27.6406 209.087 27.543 209.48 27.543ZM208.527 30.9688C208.835 31.2839 209.212 31.4414 209.66 31.4414C210.103 31.4414 210.483 31.2826 210.801 30.9648C211.116 30.6497 211.273 30.2617 211.273 29.8008C211.273 29.3398 211.117 28.9505 210.805 28.6328C210.49 28.3177 210.108 28.1602 209.66 28.1602C209.212 28.1602 208.835 28.3177 208.527 28.6328C208.215 28.9505 208.059 29.3398 208.059 29.8008C208.059 30.2617 208.215 30.651 208.527 30.9688ZM215.074 27.543C215.488 27.543 215.853 27.6172 216.168 27.7656C216.483 27.9141 216.716 28.1185 216.867 28.3789L216.895 27.6016H217.582V32H216.895L216.867 31.2188C216.591 31.776 215.993 32.0547 215.074 32.0547C214.681 32.0547 214.322 31.957 213.996 31.7617C213.671 31.5716 213.411 31.3021 213.219 30.9531C213.026 30.6042 212.93 30.2201 212.93 29.8008C212.93 29.3815 213.026 28.9974 213.219 28.6484C213.409 28.3021 213.668 28.0312 213.996 27.8359C214.322 27.6406 214.681 27.543 215.074 27.543ZM214.121 30.9688C214.428 31.2839 214.806 31.4414 215.254 31.4414C215.697 31.4414 216.077 31.2826 216.395 30.9648C216.71 30.6497 216.867 30.2617 216.867 29.8008C216.867 29.3398 216.711 28.9505 216.398 28.6328C216.083 28.3177 215.702 28.1602 215.254 28.1602C214.806 28.1602 214.428 28.3177 214.121 28.6328C213.809 28.9505 213.652 29.3398 213.652 29.8008C213.652 30.2617 213.809 30.651 214.121 30.9688ZM222.824 32H222.105V29.8008C222.105 29.2539 222.009 28.8438 221.816 28.5703C221.626 28.2969 221.324 28.1602 220.91 28.1602C220.46 28.1602 220.107 28.3112 219.852 28.6133C219.599 28.9128 219.473 29.3086 219.473 29.8008V32H218.754V27.6016H219.441L219.473 28.3789C219.796 27.8216 220.35 27.543 221.137 27.543C221.441 27.543 221.703 27.5951 221.922 27.6992C222.141 27.8008 222.315 27.9518 222.445 28.1523C222.576 28.3529 222.671 28.5885 222.73 28.8594C222.793 29.1302 222.824 29.444 222.824 29.8008V32ZM226.594 26.75C226.505 26.8385 226.398 26.8828 226.273 26.8828C226.146 26.8828 226.039 26.8385 225.953 26.75C225.865 26.6615 225.82 26.5534 225.82 26.4258C225.82 26.3008 225.865 26.1953 225.953 26.1094C226.039 26.0234 226.146 25.9805 226.273 25.9805C226.398 25.9805 226.505 26.0234 226.594 26.1094C226.68 26.1979 226.723 26.3047 226.723 26.4297C226.723 26.5547 226.68 26.6615 226.594 26.75ZM225.91 32V27.6016H226.629V32H225.91ZM231 28.5898L230.289 28.6562C230.242 28.5 230.133 28.3698 229.961 28.2656C229.786 28.1589 229.589 28.1055 229.367 28.1055C229.091 28.1055 228.862 28.1615 228.68 28.2734C228.495 28.388 228.402 28.5495 228.402 28.7578C228.402 28.8828 228.434 28.9844 228.496 29.0625C228.559 29.1406 228.655 29.2109 228.785 29.2734C228.853 29.3073 229.003 29.3581 229.234 29.4258C229.307 29.444 229.401 29.4674 229.516 29.4961C229.964 29.6003 230.305 29.7109 230.539 29.8281C230.68 29.901 230.79 29.9779 230.871 30.0586C231.046 30.2331 231.132 30.4609 231.129 30.7422C231.121 31.151 230.961 31.4701 230.648 31.6992C230.331 31.931 229.914 32.0469 229.398 32.0469C228.904 32.0469 228.495 31.9518 228.172 31.7617C227.844 31.5716 227.643 31.2956 227.57 30.9336L228.281 30.8516C228.349 31.0625 228.488 31.2214 228.699 31.3281C228.913 31.4349 229.146 31.4883 229.398 31.4883C229.688 31.4883 229.928 31.4271 230.121 31.3047C230.311 31.1849 230.406 31.0156 230.406 30.7969C230.406 30.6016 230.31 30.444 230.117 30.3242C229.924 30.2018 229.626 30.0951 229.223 30.0039C228.647 29.8659 228.249 29.7148 228.027 29.5508C227.801 29.3867 227.688 29.1302 227.688 28.7812C227.688 28.3854 227.841 28.0807 228.148 27.8672C228.458 27.651 228.87 27.543 229.383 27.543C229.826 27.543 230.188 27.6328 230.469 27.8125C230.753 27.9922 230.93 28.2513 231 28.5898ZM236.316 32H235.602V29.8008C235.602 29.2565 235.495 28.8477 235.281 28.5742C235.068 28.2982 234.734 28.1602 234.281 28.1602C233.831 28.1602 233.461 28.3151 233.172 28.625C232.883 28.9323 232.738 29.3242 232.738 29.8008V32H232.02V26H232.738V28.3789C232.889 28.1133 233.117 27.9076 233.422 27.7617C233.727 27.6159 234.087 27.543 234.504 27.543C235.139 27.543 235.6 27.737 235.887 28.125C236.173 28.513 236.316 29.0716 236.316 29.8008V32ZM237.41 32V26H238.129V32H237.41ZM241.215 27.543C241.629 27.543 241.993 27.6172 242.309 27.7656C242.624 27.9141 242.857 28.1185 243.008 28.3789L243.035 27.6016H243.723V32H243.035L243.008 31.2188C242.732 31.776 242.134 32.0547 241.215 32.0547C240.822 32.0547 240.462 31.957 240.137 31.7617C239.811 31.5716 239.552 31.3021 239.359 30.9531C239.167 30.6042 239.07 30.2201 239.07 29.8008C239.07 29.3815 239.167 28.9974 239.359 28.6484C239.549 28.3021 239.809 28.0312 240.137 27.8359C240.462 27.6406 240.822 27.543 241.215 27.543ZM240.262 30.9688C240.569 31.2839 240.947 31.4414 241.395 31.4414C241.837 31.4414 242.217 31.2826 242.535 30.9648C242.85 30.6497 243.008 30.2617 243.008 29.8008C243.008 29.3398 242.852 28.9505 242.539 28.6328C242.224 28.3177 241.842 28.1602 241.395 28.1602C240.947 28.1602 240.569 28.3177 240.262 28.6328C239.949 28.9505 239.793 29.3398 239.793 29.8008C239.793 30.2617 239.949 30.651 240.262 30.9688ZM247.355 27.543C247.749 27.543 248.109 27.6406 248.438 27.8359C248.766 28.0312 249.025 28.3021 249.215 28.6484C249.405 28.9948 249.5 29.3789 249.5 29.8008C249.5 30.2227 249.405 30.6068 249.215 30.9531C249.022 31.3021 248.763 31.5716 248.438 31.7617C248.109 31.957 247.749 32.0547 247.355 32.0547C246.439 32.0547 245.842 31.776 245.566 31.2188L245.535 32H244.848V26H245.566V28.3789C245.717 28.1185 245.949 27.9141 246.262 27.7656C246.577 27.6172 246.941 27.543 247.355 27.543ZM246.039 30.9648C246.352 31.2826 246.73 31.4414 247.176 31.4414C247.621 31.4414 248 31.2839 248.312 30.9688C248.625 30.6536 248.781 30.2643 248.781 29.8008C248.781 29.3398 248.625 28.9505 248.312 28.6328C248 28.3177 247.621 28.1602 247.176 28.1602C246.728 28.1602 246.348 28.3177 246.035 28.6328C245.723 28.9505 245.566 29.3398 245.566 29.8008C245.566 30.2617 245.724 30.6497 246.039 30.9648ZM254.441 31.4531C254.717 31.4531 254.97 31.3906 255.199 31.2656C255.428 31.138 255.613 30.9583 255.754 30.7266L256.395 31.0078C256.204 31.3307 255.935 31.5859 255.586 31.7734C255.237 31.9609 254.855 32.0547 254.441 32.0547C254.02 32.0547 253.633 31.9609 253.281 31.7734C252.93 31.5859 252.648 31.3177 252.438 30.9688C252.224 30.6224 252.117 30.2331 252.117 29.8008C252.117 29.3659 252.224 28.9753 252.438 28.6289C252.646 28.2852 252.928 28.0169 253.285 27.8242C253.637 27.6367 254.022 27.543 254.441 27.543C254.855 27.543 255.237 27.6367 255.586 27.8242C255.935 28.0169 256.204 28.2734 256.395 28.5938L255.754 28.8711C255.613 28.6393 255.428 28.4609 255.199 28.3359C254.97 28.2109 254.717 28.1484 254.441 28.1484C253.991 28.1484 253.612 28.306 253.305 28.6211C252.992 28.9362 252.836 29.3294 252.836 29.8008C252.836 30.2669 252.992 30.6589 253.305 30.9766C253.615 31.2943 253.993 31.4531 254.441 31.4531ZM261.637 32H260.922V29.8008C260.922 29.2565 260.815 28.8477 260.602 28.5742C260.388 28.2982 260.055 28.1602 259.602 28.1602C259.151 28.1602 258.781 28.3151 258.492 28.625C258.203 28.9323 258.059 29.3242 258.059 29.8008V32H257.34V26H258.059V28.3789C258.21 28.1133 258.438 27.9076 258.742 27.7617C259.047 27.6159 259.408 27.543 259.824 27.543C260.46 27.543 260.921 27.737 261.207 28.125C261.493 28.513 261.637 29.0716 261.637 29.8008V32ZM263.414 26.75C263.326 26.8385 263.219 26.8828 263.094 26.8828C262.966 26.8828 262.859 26.8385 262.773 26.75C262.685 26.6615 262.641 26.5534 262.641 26.4258C262.641 26.3008 262.685 26.1953 262.773 26.1094C262.859 26.0234 262.966 25.9805 263.094 25.9805C263.219 25.9805 263.326 26.0234 263.414 26.1094C263.5 26.1979 263.543 26.3047 263.543 26.4297C263.543 26.5547 263.5 26.6615 263.414 26.75ZM262.73 32V27.6016H263.449V32H262.73ZM266.457 32.0547C266.064 32.0547 265.704 31.957 265.379 31.7617C265.053 31.5716 264.794 31.3021 264.602 30.9531C264.409 30.6042 264.312 30.2201 264.312 29.8008C264.312 29.3815 264.409 28.9974 264.602 28.6484C264.792 28.3021 265.051 28.0312 265.379 27.8359C265.707 27.6406 266.066 27.543 266.457 27.543C267.376 27.543 267.974 27.8216 268.25 28.3789L268.277 27.6016H268.965V33.6016H268.25V31.2188C268.099 31.4792 267.866 31.6836 267.551 31.832C267.236 31.9805 266.871 32.0547 266.457 32.0547ZM268.25 29.8008C268.25 29.3372 268.092 28.9479 267.777 28.6328C267.462 28.3177 267.082 28.1602 266.637 28.1602C266.189 28.1602 265.811 28.3177 265.504 28.6328C265.191 28.9505 265.035 29.3398 265.035 29.8008C265.035 30.2617 265.191 30.651 265.504 30.9688C265.811 31.2839 266.189 31.4414 266.637 31.4414C267.085 31.4414 267.466 31.2839 267.781 30.9688C268.094 30.6536 268.25 30.2643 268.25 29.8008ZM270.766 26.75C270.677 26.8385 270.57 26.8828 270.445 26.8828C270.318 26.8828 270.211 26.8385 270.125 26.75C270.036 26.6615 269.992 26.5534 269.992 26.4258C269.992 26.3008 270.036 26.1953 270.125 26.1094C270.211 26.0234 270.318 25.9805 270.445 25.9805C270.57 25.9805 270.677 26.0234 270.766 26.1094C270.852 26.1979 270.895 26.3047 270.895 26.4297C270.895 26.5547 270.852 26.6615 270.766 26.75ZM270.082 32V27.6016H270.801V32H270.082ZM271.965 32V26H272.684V32H271.965ZM277.562 28.3789L277.59 27.6016H278.277V31.5977C278.277 31.9232 278.217 32.2174 278.098 32.4805C277.98 32.7435 277.818 32.9596 277.609 33.1289C277.401 33.2982 277.159 33.4284 276.883 33.5195C276.607 33.6107 276.309 33.6562 275.988 33.6562C275.582 33.6562 275.208 33.5794 274.867 33.4258C274.529 33.2721 274.241 33.0534 274.004 32.7695L274.402 32.3281C274.801 32.7995 275.311 33.0352 275.934 33.0352C276.4 33.0352 276.788 32.9076 277.098 32.6523C277.402 32.3997 277.557 32.0378 277.562 31.5664V31.2188C277.286 31.776 276.689 32.0547 275.77 32.0547C275.376 32.0547 275.017 31.957 274.691 31.7617C274.366 31.5716 274.107 31.3021 273.914 30.9531C273.721 30.6042 273.625 30.2201 273.625 29.8008C273.625 29.3815 273.721 28.9974 273.914 28.6484C274.104 28.3021 274.363 28.0312 274.691 27.8359C275.02 27.6406 275.379 27.543 275.77 27.543C276.184 27.543 276.548 27.6172 276.863 27.7656C277.178 27.9141 277.411 28.1185 277.562 28.3789ZM274.816 30.9688C275.124 31.2839 275.501 31.4414 275.949 31.4414C276.392 31.4414 276.772 31.2826 277.09 30.9648C277.405 30.6497 277.562 30.2617 277.562 29.8008C277.562 29.3398 277.406 28.9505 277.094 28.6328C276.779 28.3177 276.397 28.1602 275.949 28.1602C275.501 28.1602 275.124 28.3177 274.816 28.6328C274.504 28.9505 274.348 29.3398 274.348 29.8008C274.348 30.2617 274.504 30.651 274.816 30.9688ZM281.371 27.543C281.785 27.543 282.15 27.6172 282.465 27.7656C282.78 27.9141 283.013 28.1185 283.164 28.3789L283.191 27.6016H283.879V32H283.191L283.164 31.2188C282.888 31.776 282.29 32.0547 281.371 32.0547C280.978 32.0547 280.618 31.957 280.293 31.7617C279.967 31.5716 279.708 31.3021 279.516 30.9531C279.323 30.6042 279.227 30.2201 279.227 29.8008C279.227 29.3815 279.323 28.9974 279.516 28.6484C279.706 28.3021 279.965 28.0312 280.293 27.8359C280.618 27.6406 280.978 27.543 281.371 27.543ZM280.418 30.9688C280.725 31.2839 281.103 31.4414 281.551 31.4414C281.993 31.4414 282.374 31.2826 282.691 30.9648C283.007 30.6497 283.164 30.2617 283.164 29.8008C283.164 29.3398 283.008 28.9505 282.695 28.6328C282.38 28.3177 281.999 28.1602 281.551 28.1602C281.103 28.1602 280.725 28.3177 280.418 28.6328C280.105 28.9505 279.949 29.3398 279.949 29.8008C279.949 30.2617 280.105 30.651 280.418 30.9688ZM289.121 32H288.402V29.8008C288.402 29.2539 288.306 28.8438 288.113 28.5703C287.923 28.2969 287.621 28.1602 287.207 28.1602C286.757 28.1602 286.404 28.3112 286.148 28.6133C285.896 28.9128 285.77 29.3086 285.77 29.8008V32H285.051V27.6016H285.738L285.77 28.3789C286.092 27.8216 286.647 27.543 287.434 27.543C287.738 27.543 288 27.5951 288.219 27.6992C288.438 27.8008 288.612 27.9518 288.742 28.1523C288.872 28.3529 288.967 28.5885 289.027 28.8594C289.09 29.1302 289.121 29.444 289.121 29.8008V32Z" fill="#10355B"/>
<rect x="28" y="10" width="34" height="28" rx="7" fill="#10355B"/>
<path d="M36.1147 18.9094L36.1147 29.3458L39.8567 29.3458L39.8567 22.3948L42.8656 22.3948L42.8656 29.3458L46.6076 29.3458L46.6076 22.3948L49.6165 22.3948L49.6165 29.3458L53.3585 29.3458L53.3585 18.9094L49.2115 18.9094L46.6076 21.3452L46.6076 18.9094L42.4606 18.9094L39.8567 21.3452L39.8567 18.9094L36.1147 18.9094Z" fill="white"/>
<path d="M108.352 71.125C107.565 71.125 106.823 70.974 106.125 70.6719C105.411 70.3646 104.802 69.9557 104.297 69.4453C103.781 68.9401 103.375 68.3307 103.078 67.6172C102.776 66.9193 102.625 66.1771 102.625 65.3906C102.625 64.6094 102.776 63.8672 103.078 63.1641C103.375 62.4557 103.781 61.849 104.297 61.3438C104.807 60.8333 105.417 60.4271 106.125 60.125C106.823 59.8229 107.565 59.6719 108.352 59.6719C109.128 59.6719 109.867 59.8229 110.57 60.125C111.284 60.4271 111.893 60.8333 112.398 61.3438C112.904 61.8542 113.31 62.4635 113.617 63.1719C113.919 63.875 114.07 64.6146 114.07 65.3906C114.07 66.4271 113.815 67.388 113.305 68.2734C112.789 69.1536 112.094 69.849 111.219 70.3594C110.339 70.8698 109.383 71.125 108.352 71.125ZM108.352 70.4609C109.263 70.4609 110.107 70.2344 110.883 69.7812C111.659 69.3281 112.273 68.7109 112.727 67.9297C113.174 67.1536 113.398 66.3073 113.398 65.3906C113.398 64.4792 113.174 63.6354 112.727 62.8594C112.273 62.0833 111.659 61.4688 110.883 61.0156C110.107 60.5625 109.263 60.3359 108.352 60.3359C107.43 60.3359 106.583 60.5625 105.812 61.0156C105.031 61.4688 104.417 62.0833 103.969 62.8594C103.516 63.6302 103.289 64.474 103.289 65.3906C103.289 66.3073 103.516 67.1536 103.969 67.9297C104.411 68.7109 105.026 69.3281 105.812 69.7812C106.583 70.2344 107.43 70.4609 108.352 70.4609ZM108.414 67.6094C108.826 67.6094 109.195 67.5052 109.523 67.2969C109.857 67.0833 110.109 66.7839 110.281 66.3984L111.664 66.9922C111.378 67.5911 110.945 68.0651 110.367 68.4141C109.794 68.763 109.143 68.9375 108.414 68.9375C107.378 68.9375 106.513 68.612 105.82 67.9609C105.133 67.3151 104.789 66.4583 104.789 65.3906C104.789 64.3281 105.133 63.4714 105.82 62.8203C106.503 62.1745 107.367 61.8516 108.414 61.8516C109.143 61.8516 109.794 62.026 110.367 62.375C110.945 62.7344 111.378 63.2057 111.664 63.7891L110.281 64.3828C110.109 64.0026 109.859 63.7083 109.531 63.5C109.203 63.2865 108.831 63.1797 108.414 63.1797C107.82 63.1797 107.32 63.388 106.914 63.8047C106.503 64.2161 106.297 64.7448 106.297 65.3906C106.297 66.0365 106.503 66.5651 106.914 66.9766C107.32 67.3984 107.82 67.6094 108.414 67.6094ZM122.773 69.3359H128.211V71H120.211V69.3438H120.203L120.211 69.3359C121.716 68.138 122.646 67.3854 123 67.0781C124.5 65.7865 125.443 64.7135 125.828 63.8594C125.979 63.5052 126.052 63.1849 126.047 62.8984C126.047 62.4141 125.875 62.026 125.531 61.7344C125.182 61.4427 124.721 61.2969 124.148 61.2969C123.169 61.2969 122.534 61.7786 122.242 62.7422L120.172 62.5781C120.312 61.6354 120.74 60.9141 121.453 60.4141C122.167 59.9193 123.065 59.6719 124.148 59.6719C125.768 59.6719 126.919 60.1146 127.602 61C127.956 61.4635 128.133 62.0286 128.133 62.6953C128.133 63.3464 127.938 64.0286 127.547 64.7422C127.396 65.0234 127.164 65.349 126.852 65.7188C126.523 66.099 126.253 66.3984 126.039 66.6172C125.81 66.8568 125.484 67.1536 125.062 67.5078C124.615 67.888 124.286 68.1589 124.078 68.3203C123.818 68.513 123.474 68.7786 123.047 69.1172C122.969 69.1849 122.878 69.2578 122.773 69.3359ZM134.664 71.1172C133.148 71.1172 131.953 70.6016 131.078 69.5703C130.203 68.5391 129.766 67.1484 129.766 65.3984C129.766 63.6484 130.203 62.2578 131.078 61.2266C131.953 60.1953 133.148 59.6797 134.664 59.6797C136.169 59.6797 137.365 60.1953 138.25 61.2266C139.13 62.2526 139.57 63.6432 139.57 65.3984C139.57 67.1536 139.13 68.5443 138.25 69.5703C137.365 70.6016 136.169 71.1172 134.664 71.1172ZM134.664 69.2109C135.596 69.2109 136.307 68.8646 136.797 68.1719C137.286 67.4896 137.531 66.5651 137.531 65.3984C137.531 64.2266 137.292 63.2995 136.812 62.6172C136.328 61.9349 135.615 61.5938 134.672 61.5938C133.724 61.5938 133.01 61.9349 132.531 62.6172C132.047 63.2943 131.805 64.2214 131.805 65.3984C131.805 66.5651 132.047 67.4922 132.531 68.1797C133.01 68.8672 133.721 69.2109 134.664 69.2109ZM143.758 69.3359H149.195V71H141.195V69.3438H141.188L141.195 69.3359C142.701 68.138 143.63 67.3854 143.984 67.0781C145.484 65.7865 146.427 64.7135 146.812 63.8594C146.964 63.5052 147.036 63.1849 147.031 62.8984C147.031 62.4141 146.859 62.026 146.516 61.7344C146.167 61.4427 145.706 61.2969 145.133 61.2969C144.154 61.2969 143.518 61.7786 143.227 62.7422L141.156 62.5781C141.297 61.6354 141.724 60.9141 142.438 60.4141C143.151 59.9193 144.049 59.6719 145.133 59.6719C146.753 59.6719 147.904 60.1146 148.586 61C148.94 61.4635 149.117 62.0286 149.117 62.6953C149.117 63.3464 148.922 64.0286 148.531 64.7422C148.38 65.0234 148.148 65.349 147.836 65.7188C147.508 66.099 147.237 66.3984 147.023 66.6172C146.794 66.8568 146.469 67.1536 146.047 67.5078C145.599 67.888 145.271 68.1589 145.062 68.3203C144.802 68.513 144.458 68.7786 144.031 69.1172C143.953 69.1849 143.862 69.2578 143.758 69.3359ZM159.109 59.7891V61.4531H153.758L153.57 63.9141C153.961 63.7422 154.435 63.6172 154.992 63.5391C155.555 63.4609 156.083 63.4557 156.578 63.5234C157.531 63.6484 158.299 64.0573 158.883 64.75C159.471 65.4479 159.766 66.2448 159.766 67.1406C159.766 68.2865 159.346 69.2344 158.508 69.9844C157.664 70.7344 156.604 71.1094 155.328 71.1094C154.047 71.1094 152.99 70.7344 152.156 69.9844C151.312 69.2448 150.891 68.2969 150.891 67.1406H152.969C152.969 67.8646 153.198 68.4557 153.656 68.9141C154.109 69.3828 154.667 69.6172 155.328 69.6172C155.984 69.6172 156.542 69.3828 157 68.9141C157.458 68.4557 157.688 67.8646 157.688 67.1406C157.688 66.5 157.464 65.9844 157.016 65.5938C156.557 65.2083 155.995 65 155.328 64.9688C154.641 64.9479 154.023 65.112 153.477 65.4609H151.375L151.773 59.7891H159.109ZM172.492 65.4062L179.195 59.6797V71H177.117V64.2266L172.492 68.3438L167.867 64.2266V71H165.789V59.6797L172.492 65.4062ZM181.555 71V59.7969H183.633V71H181.555ZM192.93 71H185.992V59.7969H188.07L188.062 69.3359H192.93V71ZM202.227 71H195.289V59.7969H197.367L197.359 69.3359H202.227V71ZM204.586 71V59.7969H206.664V71H204.586ZM213.383 65.0781L216.086 59.7969H218.383L214.422 67.1016V71H212.336V67.1016L208.383 59.7969H210.672L213.383 65.0781ZM227.18 65.2266C227.716 65.3568 228.185 65.6771 228.586 66.1875C228.982 66.6927 229.18 67.2943 229.18 67.9922C229.18 68.8672 228.87 69.5859 228.25 70.1484C227.63 70.7161 226.867 71 225.961 71H220.102V59.7969H225.562C226.479 59.7969 227.245 60.0651 227.859 60.6016C228.474 61.138 228.781 61.8438 228.781 62.7188C228.781 63.3646 228.633 63.9036 228.336 64.3359C228.029 64.7734 227.643 65.0703 227.18 65.2266ZM225.148 61.4141H222.18V64.6094H225.148C225.581 64.6094 225.948 64.4531 226.25 64.1406C226.547 63.8385 226.695 63.4609 226.695 63.0078C226.695 62.5547 226.547 62.1771 226.25 61.875C225.943 61.5677 225.576 61.4141 225.148 61.4141ZM222.18 69.375H225.547C225.974 69.375 226.341 69.2214 226.648 68.9141C226.951 68.612 227.102 68.2344 227.102 67.7812C227.102 67.3281 226.951 66.9505 226.648 66.6484C226.346 66.3464 225.979 66.1953 225.547 66.1953H222.18V69.375ZM231.211 71V59.7969H233.289V71H231.211ZM235.648 59.7969H243.82V61.4609L238.047 69.3359H243.82V71H235.648V69.3359L241.422 61.4609H235.648V59.7969Z" fill="#10355B"/>
</svg>
