<svg width="313" height="214" viewBox="0 0 313 214" fill="none" xmlns="http://www.w3.org/2000/svg">
<g filter="url(#filter0_f_230_147)">
<rect x="100.379" y="140.535" width="97.3165" height="9.44127" fill="#1B3554"/>
</g>
<rect x="101.162" y="11.5045" width="97.3165" height="62.155" fill="#E0E5EC"/>
<path fill-rule="evenodd" clip-rule="evenodd" d="M101.163 11.5045V105.917H85.4668V48.8263L93.3161 36.7492L101.163 11.5045Z" fill="#CFD4DC"/>
<path fill-rule="evenodd" clip-rule="evenodd" d="M197.694 11.5045V105.917H213.391V48.8263L205.541 36.7492L197.694 11.5045Z" fill="#CFD4DC"/>
<path d="M85.4668 48.4828H213.391V155.494C213.391 157.661 211.634 159.418 209.467 159.418H89.3908C87.2237 159.418 85.4668 157.661 85.4668 155.494V48.4828Z" fill="white"/>
<path opacity="0.5" fill-rule="evenodd" clip-rule="evenodd" d="M123.922 92.1845C123.922 91.635 124.204 91.1238 124.692 90.8711C125.778 90.3088 127.853 89.395 129.869 89.395C131.885 89.395 133.9 90.3082 134.951 90.8705C135.424 91.1239 135.694 91.6249 135.694 92.1617V92.1617C135.694 93.4284 134.234 94.2584 133.042 93.8291C132.089 93.4856 130.969 93.2079 129.839 93.2079C128.688 93.2079 127.536 93.4968 126.558 93.8497C125.369 94.2792 123.922 93.4492 123.922 92.1845V92.1845Z" fill="#1B3554"/>
<path opacity="0.5" fill-rule="evenodd" clip-rule="evenodd" d="M163.947 92.1845C163.947 91.635 164.229 91.1238 164.717 90.8711C165.803 90.3088 167.878 89.395 169.894 89.395C171.91 89.395 173.926 90.3082 174.976 90.8705C175.449 91.1239 175.719 91.6249 175.719 92.1617V92.1617C175.719 93.4284 174.26 94.2584 173.068 93.8291C172.114 93.4856 170.994 93.2079 169.865 93.2079C168.713 93.2079 167.561 93.4968 166.584 93.8497C165.394 94.2792 163.947 93.4492 163.947 92.1845V92.1845Z" fill="#1B3554"/>
<ellipse opacity="0.5" cx="149.821" cy="108.28" rx="12.557" ry="5.50979" fill="#1B3554"/>
<ellipse opacity="0.149343" cx="120.783" cy="60.2844" rx="4.70886" ry="4.72063" fill="#1B3554"/>
<ellipse opacity="0.149343" cx="178.074" cy="60.2844" rx="4.70886" ry="4.72063" fill="#1B3554"/>
<path d="M120.783 60.0425V30.7804C120.783 14.9204 133.608 2.06323 149.429 2.06323C165.249 2.06323 178.074 14.9204 178.074 30.7804V60.0425" stroke="#5E7085" stroke-width="3.92405" stroke-linecap="round" stroke-linejoin="round"/>
<g filter="url(#filter1_d_230_147)">
<ellipse cx="213.076" cy="137.86" rx="13.8127" ry="13.8472" fill="#E31E25"/>
</g>
<path d="M218.644 133.212C219.318 133.888 219.318 134.983 218.644 135.659L216.083 138.226L218.644 140.793C219.373 141.524 219.373 142.709 218.644 143.44V143.44C217.914 144.171 216.732 144.171 216.003 143.44L213.442 140.873L210.882 143.44C210.208 144.116 209.115 144.116 208.441 143.44V143.44C207.767 142.765 207.767 141.669 208.441 140.993L211.002 138.426L208.441 135.859C207.712 135.128 207.712 133.943 208.441 133.212V133.212C209.17 132.481 210.353 132.481 211.082 133.212L213.642 135.779L216.203 133.212C216.877 132.537 217.97 132.537 218.644 133.212V133.212Z" fill="white"/>
<path d="M79.3312 208.949V199.141H75.4912V197.749H84.7552V199.141H80.9152V208.949H79.3312ZM86.2738 208.949V200.469H87.8098V208.949H86.2738ZM87.0418 198.837C86.7432 198.837 86.4925 198.741 86.2898 198.549C86.0978 198.357 86.0018 198.123 86.0018 197.845C86.0018 197.557 86.0978 197.317 86.2898 197.125C86.4925 196.933 86.7432 196.837 87.0418 196.837C87.3405 196.837 87.5858 196.933 87.7778 197.125C87.9805 197.307 88.0818 197.536 88.0818 197.813C88.0818 198.101 87.9858 198.347 87.7938 198.549C87.6018 198.741 87.3512 198.837 87.0418 198.837ZM89.9266 208.949V207.957L95.3666 201.205L95.6706 201.733H90.0226V200.469H96.9026V201.477L91.4626 208.213L91.1106 207.685H97.0306V208.949H89.9266ZM99.0863 208.949V200.469H100.622V208.949H99.0863ZM99.8543 198.837C99.5557 198.837 99.305 198.741 99.1023 198.549C98.9103 198.357 98.8143 198.123 98.8143 197.845C98.8143 197.557 98.9103 197.317 99.1023 197.125C99.305 196.933 99.5557 196.837 99.8543 196.837C100.153 196.837 100.398 196.933 100.59 197.125C100.793 197.307 100.894 197.536 100.894 197.813C100.894 198.101 100.798 198.347 100.606 198.549C100.414 198.741 100.164 198.837 99.8543 198.837ZM114.163 200.389C114.846 200.389 115.448 200.523 115.971 200.789C116.494 201.056 116.899 201.461 117.187 202.005C117.486 202.549 117.635 203.237 117.635 204.069V208.949H116.099V204.245C116.099 203.424 115.907 202.805 115.523 202.389C115.139 201.973 114.6 201.765 113.907 201.765C113.395 201.765 112.947 201.872 112.563 202.085C112.179 202.299 111.88 202.613 111.667 203.029C111.464 203.445 111.363 203.963 111.363 204.581V208.949H109.827V204.245C109.827 203.424 109.635 202.805 109.251 202.389C108.878 201.973 108.339 201.765 107.635 201.765C107.134 201.765 106.691 201.872 106.307 202.085C105.923 202.299 105.624 202.613 105.411 203.029C105.198 203.445 105.091 203.963 105.091 204.581V208.949H103.555V200.469H105.027V202.725L104.787 202.149C105.054 201.595 105.464 201.163 106.019 200.853C106.574 200.544 107.219 200.389 107.955 200.389C108.766 200.389 109.464 200.592 110.051 200.997C110.638 201.392 111.022 201.995 111.203 202.805L110.579 202.549C110.835 201.899 111.283 201.376 111.923 200.981C112.563 200.587 113.31 200.389 114.163 200.389ZM124.173 212.149C123.395 212.149 122.637 212.037 121.901 211.813C121.176 211.6 120.584 211.291 120.125 210.885L120.861 209.701C121.256 210.043 121.741 210.309 122.317 210.501C122.893 210.704 123.496 210.805 124.125 210.805C125.128 210.805 125.864 210.571 126.333 210.101C126.803 209.632 127.037 208.917 127.037 207.957V206.165L127.197 204.485L127.117 202.789V200.469H128.573V207.797C128.573 209.291 128.2 210.389 127.453 211.093C126.707 211.797 125.613 212.149 124.173 212.149ZM123.981 208.597C123.16 208.597 122.424 208.427 121.773 208.085C121.133 207.733 120.621 207.248 120.237 206.629C119.864 206.011 119.677 205.296 119.677 204.485C119.677 203.664 119.864 202.949 120.237 202.341C120.621 201.723 121.133 201.243 121.773 200.901C122.424 200.56 123.16 200.389 123.981 200.389C124.707 200.389 125.368 200.539 125.965 200.837C126.563 201.125 127.037 201.573 127.389 202.181C127.752 202.789 127.933 203.557 127.933 204.485C127.933 205.403 127.752 206.165 127.389 206.773C127.037 207.381 126.563 207.84 125.965 208.149C125.368 208.448 124.707 208.597 123.981 208.597ZM124.157 207.253C124.723 207.253 125.224 207.136 125.661 206.901C126.099 206.667 126.44 206.341 126.685 205.925C126.941 205.509 127.069 205.029 127.069 204.485C127.069 203.941 126.941 203.461 126.685 203.045C126.44 202.629 126.099 202.309 125.661 202.085C125.224 201.851 124.723 201.733 124.157 201.733C123.592 201.733 123.085 201.851 122.637 202.085C122.2 202.309 121.853 202.629 121.597 203.045C121.352 203.461 121.229 203.941 121.229 204.485C121.229 205.029 121.352 205.509 121.597 205.925C121.853 206.341 122.2 206.667 122.637 206.901C123.085 207.136 123.592 207.253 124.157 207.253ZM136.772 208.949V207.157L136.692 206.821V203.765C136.692 203.115 136.5 202.613 136.116 202.261C135.743 201.899 135.178 201.717 134.42 201.717C133.919 201.717 133.428 201.803 132.948 201.973C132.468 202.133 132.063 202.352 131.732 202.629L131.092 201.477C131.53 201.125 132.052 200.859 132.66 200.677C133.279 200.485 133.924 200.389 134.596 200.389C135.759 200.389 136.655 200.672 137.284 201.237C137.914 201.803 138.228 202.667 138.228 203.829V208.949H136.772ZM133.988 209.045C133.359 209.045 132.804 208.939 132.324 208.725C131.855 208.512 131.492 208.219 131.236 207.845C130.98 207.461 130.852 207.029 130.852 206.549C130.852 206.091 130.959 205.675 131.172 205.301C131.396 204.928 131.754 204.629 132.244 204.405C132.746 204.181 133.418 204.069 134.26 204.069H136.948V205.173H134.324C133.556 205.173 133.039 205.301 132.772 205.557C132.506 205.813 132.372 206.123 132.372 206.485C132.372 206.901 132.538 207.237 132.868 207.493C133.199 207.739 133.658 207.861 134.244 207.861C134.82 207.861 135.322 207.733 135.748 207.477C136.186 207.221 136.5 206.848 136.692 206.357L136.996 207.413C136.794 207.915 136.436 208.315 135.924 208.613C135.412 208.901 134.767 209.045 133.988 209.045ZM146.616 206.901L146.648 204.933L151.528 200.469H153.384L149.64 204.149L148.808 204.853L146.616 206.901ZM145.368 208.949V197.077H146.904V208.949H145.368ZM151.848 208.949L148.52 204.821L149.512 203.589L153.736 208.949H151.848ZM155.227 208.949V200.469H156.763V208.949H155.227ZM155.995 198.837C155.696 198.837 155.446 198.741 155.243 198.549C155.051 198.357 154.955 198.123 154.955 197.845C154.955 197.557 155.051 197.317 155.243 197.125C155.446 196.933 155.696 196.837 155.995 196.837C156.294 196.837 156.539 196.933 156.731 197.125C156.934 197.307 157.035 197.536 157.035 197.813C157.035 198.101 156.939 198.347 156.747 198.549C156.555 198.741 156.304 198.837 155.995 198.837ZM159.696 208.949V200.469H161.168V202.773L161.024 202.197C161.258 201.611 161.653 201.163 162.208 200.853C162.762 200.544 163.445 200.389 164.256 200.389V201.877C164.192 201.867 164.128 201.861 164.064 201.861C164.01 201.861 163.957 201.861 163.904 201.861C163.082 201.861 162.432 202.107 161.952 202.597C161.472 203.088 161.232 203.797 161.232 204.725V208.949H159.696ZM166.149 208.949V200.469H167.685V208.949H166.149ZM166.917 198.837C166.618 198.837 166.368 198.741 166.165 198.549C165.973 198.357 165.877 198.123 165.877 197.845C165.877 197.557 165.973 197.317 166.165 197.125C166.368 196.933 166.618 196.837 166.917 196.837C167.216 196.837 167.461 196.933 167.653 197.125C167.856 197.307 167.957 197.536 167.957 197.813C167.957 198.101 167.861 198.347 167.669 198.549C167.477 198.741 167.226 198.837 166.917 198.837ZM173.05 209.045C172.346 209.045 171.674 208.949 171.034 208.757C170.404 208.565 169.908 208.331 169.546 208.053L170.186 206.837C170.548 207.083 170.996 207.291 171.53 207.461C172.063 207.632 172.607 207.717 173.162 207.717C173.876 207.717 174.388 207.616 174.698 207.413C175.018 207.211 175.178 206.928 175.178 206.565C175.178 206.299 175.082 206.091 174.89 205.941C174.698 205.792 174.442 205.68 174.122 205.605C173.812 205.531 173.466 205.467 173.082 205.413C172.698 205.349 172.314 205.275 171.93 205.189C171.546 205.093 171.194 204.965 170.874 204.805C170.554 204.635 170.298 204.405 170.106 204.117C169.914 203.819 169.818 203.424 169.818 202.933C169.818 202.421 169.962 201.973 170.25 201.589C170.538 201.205 170.943 200.912 171.466 200.709C171.999 200.496 172.628 200.389 173.354 200.389C173.908 200.389 174.468 200.459 175.034 200.597C175.61 200.725 176.079 200.912 176.442 201.157L175.786 202.373C175.402 202.117 175.002 201.941 174.586 201.845C174.17 201.749 173.754 201.701 173.338 201.701C172.666 201.701 172.164 201.813 171.834 202.037C171.503 202.251 171.338 202.528 171.338 202.869C171.338 203.157 171.434 203.381 171.626 203.541C171.828 203.691 172.084 203.808 172.394 203.893C172.714 203.979 173.066 204.053 173.45 204.117C173.834 204.171 174.218 204.245 174.602 204.341C174.986 204.427 175.332 204.549 175.642 204.709C175.962 204.869 176.218 205.093 176.41 205.381C176.612 205.669 176.714 206.053 176.714 206.533C176.714 207.045 176.564 207.488 176.266 207.861C175.967 208.235 175.546 208.528 175.002 208.741C174.458 208.944 173.807 209.045 173.05 209.045ZM183.161 200.389C183.855 200.389 184.463 200.523 184.985 200.789C185.519 201.056 185.935 201.461 186.233 202.005C186.532 202.549 186.681 203.237 186.681 204.069V208.949H185.145V204.245C185.145 203.424 184.943 202.805 184.537 202.389C184.143 201.973 183.583 201.765 182.857 201.765C182.313 201.765 181.839 201.872 181.433 202.085C181.028 202.299 180.713 202.613 180.489 203.029C180.276 203.445 180.169 203.963 180.169 204.581V208.949H178.633V197.077H180.169V202.757L179.865 202.149C180.143 201.595 180.569 201.163 181.145 200.853C181.721 200.544 182.393 200.389 183.161 200.389ZM195.069 206.901L195.101 204.933L199.981 200.469H201.837L198.093 204.149L197.261 204.853L195.069 206.901ZM193.821 208.949V197.077H195.357V208.949H193.821ZM200.301 208.949L196.973 204.821L197.965 203.589L202.189 208.949H200.301ZM207.112 209.045C206.206 209.045 205.406 208.859 204.712 208.485C204.03 208.112 203.496 207.6 203.112 206.949C202.739 206.299 202.552 205.552 202.552 204.709C202.552 203.867 202.734 203.12 203.096 202.469C203.47 201.819 203.976 201.312 204.616 200.949C205.267 200.576 205.998 200.389 206.808 200.389C207.63 200.389 208.355 200.571 208.984 200.933C209.614 201.296 210.104 201.808 210.456 202.469C210.819 203.12 211 203.883 211 204.757C211 204.821 210.995 204.896 210.984 204.981C210.984 205.067 210.979 205.147 210.968 205.221H203.752V204.117H210.168L209.544 204.501C209.555 203.957 209.443 203.472 209.208 203.045C208.974 202.619 208.648 202.288 208.232 202.053C207.827 201.808 207.352 201.685 206.808 201.685C206.275 201.685 205.8 201.808 205.384 202.053C204.968 202.288 204.643 202.624 204.408 203.061C204.174 203.488 204.056 203.979 204.056 204.533V204.789C204.056 205.355 204.184 205.861 204.44 206.309C204.707 206.747 205.075 207.088 205.544 207.333C206.014 207.579 206.552 207.701 207.16 207.701C207.662 207.701 208.115 207.616 208.52 207.445C208.936 207.275 209.299 207.019 209.608 206.677L210.456 207.669C210.072 208.117 209.592 208.459 209.016 208.693C208.451 208.928 207.816 209.045 207.112 209.045ZM213.133 208.949V200.469H214.605V202.773L214.461 202.197C214.696 201.611 215.091 201.163 215.645 200.853C216.2 200.544 216.883 200.389 217.693 200.389V201.877C217.629 201.867 217.565 201.861 217.501 201.861C217.448 201.861 217.395 201.861 217.341 201.861C216.52 201.861 215.869 202.107 215.389 202.597C214.909 203.088 214.669 203.797 214.669 204.725V208.949H213.133ZM224.225 208.949V207.157L224.145 206.821V203.765C224.145 203.115 223.953 202.613 223.569 202.261C223.196 201.899 222.631 201.717 221.873 201.717C221.372 201.717 220.881 201.803 220.401 201.973C219.921 202.133 219.516 202.352 219.185 202.629L218.545 201.477C218.983 201.125 219.505 200.859 220.113 200.677C220.732 200.485 221.377 200.389 222.049 200.389C223.212 200.389 224.108 200.672 224.737 201.237C225.367 201.803 225.681 202.667 225.681 203.829V208.949H224.225ZM221.441 209.045C220.812 209.045 220.257 208.939 219.777 208.725C219.308 208.512 218.945 208.219 218.689 207.845C218.433 207.461 218.305 207.029 218.305 206.549C218.305 206.091 218.412 205.675 218.625 205.301C218.849 204.928 219.207 204.629 219.697 204.405C220.199 204.181 220.871 204.069 221.713 204.069H224.401V205.173H221.777C221.009 205.173 220.492 205.301 220.225 205.557C219.959 205.813 219.825 206.123 219.825 206.485C219.825 206.901 219.991 207.237 220.321 207.493C220.652 207.739 221.111 207.861 221.697 207.861C222.273 207.861 222.775 207.733 223.201 207.477C223.639 207.221 223.953 206.848 224.145 206.357L224.449 207.413C224.247 207.915 223.889 208.315 223.377 208.613C222.865 208.901 222.22 209.045 221.441 209.045ZM229.772 206.901L229.804 204.933L234.684 200.469H236.54L232.796 204.149L231.964 204.853L229.772 206.901ZM228.524 208.949V197.077H230.06V208.949H228.524ZM235.004 208.949L231.676 204.821L232.668 203.589L236.892 208.949H235.004Z" fill="black"/>
<defs>
<filter id="filter0_f_230_147" x="81.3967" y="121.553" width="135.281" height="47.4056" filterUnits="userSpaceOnUse" color-interpolation-filters="sRGB">
<feFlood flood-opacity="0" result="BackgroundImageFix"/>
<feBlend mode="normal" in="SourceGraphic" in2="BackgroundImageFix" result="shape"/>
<feGaussianBlur stdDeviation="9.49108" result="effect1_foregroundBlur_230_147"/>
</filter>
<filter id="filter1_d_230_147" x="192.985" y="119.304" width="40.182" height="40.2513" filterUnits="userSpaceOnUse" color-interpolation-filters="sRGB">
<feFlood flood-opacity="0" result="BackgroundImageFix"/>
<feColorMatrix in="SourceAlpha" type="matrix" values="0 0 0 0 0 0 0 0 0 0 0 0 0 0 0 0 0 0 127 0" result="hardAlpha"/>
<feOffset dy="1.56962"/>
<feGaussianBlur stdDeviation="3.13924"/>
<feColorMatrix type="matrix" values="0 0 0 0 1 0 0 0 0 0.415686 0 0 0 0 0.596078 0 0 0 0.3 0"/>
<feBlend mode="normal" in2="BackgroundImageFix" result="effect1_dropShadow_230_147"/>
<feBlend mode="normal" in="SourceGraphic" in2="effect1_dropShadow_230_147" result="shape"/>
</filter>
</defs>
</svg>
