<svg width="136" height="169" viewBox="0 0 136 169" fill="none" xmlns="http://www.w3.org/2000/svg">
<g filter="url(#filter0_f_250_27)">
<rect x="19.377" y="140.472" width="97.3165" height="9.44127" fill="#1B3554"/>
</g>
<rect x="20.1621" y="11.4413" width="97.3165" height="62.155" fill="#E0E5EC"/>
<path fill-rule="evenodd" clip-rule="evenodd" d="M20.162 11.4413V105.854H4.46582V48.7631L12.3152 36.686L20.162 11.4413Z" fill="#CFD4DC"/>
<path fill-rule="evenodd" clip-rule="evenodd" d="M116.693 11.4413V105.854H132.39V48.7631L124.54 36.686L116.693 11.4413Z" fill="#CFD4DC"/>
<path d="M4.46582 48.4196H132.39V155.43C132.39 157.598 130.633 159.354 128.466 159.354H8.38987C6.22267 159.354 4.46582 157.598 4.46582 155.43V48.4196Z" fill="white"/>
<path opacity="0.5" fill-rule="evenodd" clip-rule="evenodd" d="M42.9219 92.1213C42.9219 91.5718 43.2038 91.0606 43.6917 90.8079C44.7777 90.2456 46.8526 89.3318 48.869 89.3318C50.8847 89.3318 52.9004 90.245 53.9506 90.8073C54.4239 91.0607 54.694 91.5617 54.694 92.0985C54.694 93.3653 53.2342 94.1953 52.0424 93.7659C51.0889 93.4225 49.9687 93.1447 48.8393 93.1447C47.6875 93.1447 46.5357 93.4336 45.5585 93.7865C44.369 94.216 42.9219 93.386 42.9219 92.1213Z" fill="#1B3554"/>
<path opacity="0.5" fill-rule="evenodd" clip-rule="evenodd" d="M82.9473 92.1212C82.9473 91.5717 83.2292 91.0605 83.7171 90.8079C84.8031 90.2456 86.878 89.3318 88.8944 89.3318C90.9101 89.3318 92.9258 90.2449 93.976 90.8073C94.4493 91.0607 94.7194 91.5617 94.7194 92.0985C94.7194 93.3652 93.2595 94.1952 92.0678 93.7659C91.1143 93.4224 89.9941 93.1446 88.8647 93.1446C87.7129 93.1446 86.5611 93.4336 85.5839 93.7864C84.3944 94.216 82.9473 93.3859 82.9473 92.1212Z" fill="#1B3554"/>
<ellipse opacity="0.5" cx="68.8206" cy="108.217" rx="12.557" ry="5.50979" fill="#1B3554"/>
<ellipse opacity="0.149343" cx="39.7821" cy="60.2211" rx="4.70886" ry="4.72063" fill="#1B3554"/>
<ellipse opacity="0.149343" cx="97.0731" cy="60.2211" rx="4.70886" ry="4.72063" fill="#1B3554"/>
<path d="M39.7822 59.9793V30.7172C39.7822 14.8571 52.6073 2 68.4278 2C84.2483 2 97.0734 14.8571 97.0734 30.7172V59.9793" stroke="#5E7085" stroke-width="3.92405" stroke-linecap="round" stroke-linejoin="round"/>
<defs>
<filter id="filter0_f_250_27" x="0.394794" y="121.49" width="135.281" height="47.4056" filterUnits="userSpaceOnUse" color-interpolation-filters="sRGB">
<feFlood flood-opacity="0" result="BackgroundImageFix"/>
<feBlend mode="normal" in="SourceGraphic" in2="BackgroundImageFix" result="shape"/>
<feGaussianBlur stdDeviation="9.49108" result="effect1_foregroundBlur_250_27"/>
</filter>
</defs>
</svg>
