<svg width="46" height="46" viewBox="0 0 46 46" fill="none" xmlns="http://www.w3.org/2000/svg">
<rect width="46" height="46" rx="14" fill="#10355B"/>
<path d="M27.1487 27.1487C27.8639 26.4335 28.4313 25.5844 28.8184 24.6499C29.2055 23.7154 29.4047 22.7138 29.4047 21.7023C29.4047 20.6909 29.2055 19.6893 28.8184 18.7548C28.4313 17.8203 27.8639 16.9712 27.1487 16.256C26.4335 15.5407 25.5844 14.9734 24.6499 14.5863C23.7154 14.1992 22.7138 14 21.7023 14C20.6909 14 19.6893 14.1992 18.7548 14.5863C17.8203 14.9734 16.9712 15.5407 16.256 16.256C14.8115 17.7004 14 19.6596 14 21.7023C14 23.7451 14.8115 25.7042 16.256 27.1487C17.7004 28.5932 19.6596 29.4047 21.7023 29.4047C23.7451 29.4047 25.7042 28.5932 27.1487 27.1487ZM27.1487 27.1487L32 32" stroke="white" stroke-width="1.5" stroke-linecap="round" stroke-linejoin="round"/>
</svg>
