<svg width="24" height="24" viewBox="0 0 24 24" fill="none" xmlns="http://www.w3.org/2000/svg">
<g clip-path="url(#clip0_853_4154)">
<path fill-rule="evenodd" clip-rule="evenodd" d="M9.81934 0.197831C10.5272 0.0678062 11.2561 0 12 0C18.6274 0 24 5.37258 24 12C24 18.6274 18.6274 24 12 24C11.2561 24 10.5272 23.9322 9.81934 23.8022C9.27614 23.7024 8.91668 23.1812 9.01645 22.638C9.11623 22.0948 9.63747 21.7353 10.1807 21.8351C10.7699 21.9433 11.3779 22 12 22C17.5228 22 22 17.5228 22 12C22 6.47715 17.5228 2 12 2C11.3779 2 10.7699 2.05669 10.1807 2.16492C9.63747 2.2647 9.11623 1.90524 9.01645 1.36204C8.91668 0.818842 9.27614 0.297608 9.81934 0.197831ZM7.36561 1.97088C7.64215 2.44894 7.47879 3.06067 7.00073 3.33721C5.63653 4.12635 4.47548 5.22891 3.6166 6.54617C3.31496 7.00881 2.69539 7.13932 2.23276 6.83767C1.77012 6.53603 1.63962 5.91646 1.94126 5.45383C2.97108 3.87438 4.36272 2.55269 5.99927 1.606C6.47733 1.32945 7.08906 1.49282 7.36561 1.97088ZM17.6869 8.27325C18.0883 8.65261 18.1061 9.28552 17.7268 9.6869L11.2937 16.4932C10.655 17.1689 9.59496 17.1689 8.9563 16.4932L6.27325 13.6545C5.89388 13.2531 5.91173 12.6202 6.3131 12.2408C6.71448 11.8615 7.34739 11.8793 7.72675 12.2807L10.125 14.8181L16.2732 8.3131C16.6526 7.91173 17.2855 7.89388 17.6869 8.27325ZM1.5117 8.52596C2.04965 8.65098 2.3844 9.18842 2.25938 9.72637C2.08985 10.4558 2 11.2168 2 12C2 12.7832 2.08985 13.5442 2.25938 14.2736C2.3844 14.8116 2.04965 15.349 1.5117 15.474C0.973756 15.5991 0.436314 15.2643 0.311293 14.7264C0.107512 13.8495 0 12.9367 0 12C0 11.0633 0.107512 10.1505 0.311293 9.27363C0.436314 8.73568 0.973756 8.40094 1.5117 8.52596ZM2.23276 17.1623C2.69539 16.8607 3.31496 16.9912 3.6166 17.4538C4.47548 18.7711 5.63653 19.8736 7.00073 20.6628C7.47879 20.9393 7.64215 21.5511 7.36561 22.0291C7.08906 22.5072 6.47733 22.6705 5.99927 22.394C4.36272 21.4473 2.97108 20.1256 1.94126 18.5462C1.63962 18.0835 1.77012 17.464 2.23276 17.1623Z" fill="#4AE431"/>
</g>
<defs>
<clipPath id="clip0_853_4154">
<rect width="24" height="24" fill="white"/>
</clipPath>
</defs>
</svg>
