<svg width="313" height="257" viewBox="0 0 313 257" fill="none" xmlns="http://www.w3.org/2000/svg">
<g filter="url(#filter0_f_853_6820)">
<rect x="100.377" y="140.472" width="97.3165" height="9.44127" fill="#1B3554"/>
</g>
<rect x="101.162" y="11.4413" width="97.3165" height="62.155" fill="#E0E5EC"/>
<path fill-rule="evenodd" clip-rule="evenodd" d="M101.162 11.4413V105.854H85.4658V48.7631L93.3152 36.686L101.162 11.4413Z" fill="#CFD4DC"/>
<path fill-rule="evenodd" clip-rule="evenodd" d="M197.694 11.4413V105.854H213.39V48.7631L205.541 36.686L197.694 11.4413Z" fill="#CFD4DC"/>
<path d="M85.4658 48.4196H213.39V155.43C213.39 157.598 211.633 159.354 209.466 159.354H89.3899C87.2227 159.354 85.4658 157.598 85.4658 155.43V48.4196Z" fill="white"/>
<path opacity="0.5" fill-rule="evenodd" clip-rule="evenodd" d="M123.921 92.1213C123.921 91.5718 124.203 91.0606 124.691 90.8079C125.777 90.2456 127.852 89.3318 129.868 89.3318C131.884 89.3318 133.9 90.245 134.95 90.8073C135.423 91.0607 135.694 91.5617 135.694 92.0985C135.694 93.3653 134.234 94.1953 133.042 93.7659C132.088 93.4225 130.968 93.1447 129.839 93.1447C128.687 93.1447 127.535 93.4336 126.558 93.7865C125.368 94.216 123.921 93.386 123.921 92.1213Z" fill="#1B3554"/>
<path opacity="0.5" fill-rule="evenodd" clip-rule="evenodd" d="M163.947 92.1213C163.947 91.5718 164.229 91.0606 164.717 90.8079C165.803 90.2456 167.877 89.3318 169.894 89.3318C171.91 89.3318 173.925 90.245 174.976 90.8073C175.449 91.0607 175.719 91.5617 175.719 92.0985C175.719 93.3652 174.259 94.1952 173.067 93.7659C172.114 93.4224 170.994 93.1447 169.864 93.1447C168.712 93.1447 167.561 93.4336 166.583 93.7865C165.394 94.216 163.947 93.386 163.947 92.1213Z" fill="#1B3554"/>
<ellipse opacity="0.5" cx="149.82" cy="108.217" rx="12.557" ry="5.50979" fill="#1B3554"/>
<ellipse opacity="0.149343" cx="120.782" cy="60.2212" rx="4.70886" ry="4.72063" fill="#1B3554"/>
<ellipse opacity="0.149343" cx="178.073" cy="60.2212" rx="4.70886" ry="4.72063" fill="#1B3554"/>
<path d="M120.782 59.9793V30.7172C120.782 14.8572 133.607 2.00003 149.428 2.00003C165.248 2.00003 178.073 14.8572 178.073 30.7172V59.9793" stroke="#5E7085" stroke-width="3.92405" stroke-linecap="round" stroke-linejoin="round"/>
<g filter="url(#filter1_d_853_6820)">
<ellipse cx="213.076" cy="137.797" rx="13.8127" ry="13.8472" fill="#E31E25"/>
</g>
<path d="M218.643 133.149C219.317 133.825 219.317 134.92 218.643 135.596L216.082 138.163L218.643 140.73C219.372 141.461 219.372 142.646 218.643 143.377C217.914 144.108 216.731 144.108 216.002 143.377L213.442 140.81L210.881 143.377C210.207 144.053 209.114 144.053 208.44 143.377C207.766 142.701 207.766 141.606 208.44 140.93L211.001 138.363L208.44 135.796C207.711 135.065 207.711 133.88 208.44 133.149C209.17 132.418 210.352 132.418 211.081 133.149L213.642 135.716L216.202 133.149C216.876 132.473 217.969 132.473 218.643 133.149Z" fill="white"/>
<path d="M52.0275 209.014C51.1741 209.014 50.3581 208.886 49.5795 208.63C48.8008 208.363 48.1875 208.022 47.7395 207.606L48.3315 206.358C48.7581 206.731 49.3021 207.041 49.9635 207.286C50.6248 207.531 51.3128 207.654 52.0275 207.654C52.6781 207.654 53.2061 207.579 53.6115 207.43C54.0168 207.281 54.3155 207.078 54.5075 206.822C54.6995 206.555 54.7955 206.257 54.7955 205.926C54.7955 205.542 54.6675 205.233 54.4115 204.998C54.1661 204.763 53.8408 204.577 53.4355 204.438C53.0408 204.289 52.6035 204.161 52.1235 204.054C51.6435 203.947 51.1581 203.825 50.6675 203.686C50.1875 203.537 49.7448 203.35 49.3395 203.126C48.9448 202.902 48.6248 202.603 48.3795 202.23C48.1341 201.846 48.0115 201.355 48.0115 200.758C48.0115 200.182 48.1608 199.654 48.4595 199.174C48.7688 198.683 49.2381 198.294 49.8675 198.006C50.5075 197.707 51.3181 197.558 52.2995 197.558C52.9501 197.558 53.5955 197.643 54.2355 197.814C54.8755 197.985 55.4301 198.23 55.8995 198.55L55.3715 199.83C54.8915 199.51 54.3848 199.281 53.8515 199.142C53.3181 198.993 52.8008 198.918 52.2995 198.918C51.6701 198.918 51.1528 198.998 50.7475 199.158C50.3421 199.318 50.0435 199.531 49.8515 199.798C49.6701 200.065 49.5795 200.363 49.5795 200.694C49.5795 201.089 49.7021 201.403 49.9475 201.638C50.2035 201.873 50.5288 202.059 50.9235 202.198C51.3288 202.337 51.7715 202.465 52.2515 202.582C52.7315 202.689 53.2115 202.811 53.6915 202.95C54.1821 203.089 54.6248 203.27 55.0195 203.494C55.4248 203.718 55.7501 204.017 55.9955 204.39C56.2408 204.763 56.3635 205.243 56.3635 205.83C56.3635 206.395 56.2088 206.923 55.8995 207.414C55.5901 207.894 55.1101 208.283 54.4595 208.582C53.8195 208.87 53.0088 209.014 52.0275 209.014ZM58.477 208.886V200.406H60.013V208.886H58.477ZM59.245 198.774C58.9463 198.774 58.6956 198.678 58.493 198.486C58.301 198.294 58.205 198.059 58.205 197.782C58.205 197.494 58.301 197.254 58.493 197.062C58.6956 196.87 58.9463 196.774 59.245 196.774C59.5436 196.774 59.789 196.87 59.981 197.062C60.1836 197.243 60.285 197.473 60.285 197.75C60.285 198.038 60.189 198.283 59.997 198.486C59.805 198.678 59.5543 198.774 59.245 198.774ZM62.1297 208.886V207.894L67.5697 201.142L67.8737 201.67H62.2257V200.406H69.1057V201.414L63.6657 208.15L63.3137 207.622H69.2337V208.886H62.1297ZM75.8175 200.326C76.5108 200.326 77.1188 200.459 77.6415 200.726C78.1748 200.993 78.5908 201.398 78.8895 201.942C79.1881 202.486 79.3375 203.174 79.3375 204.006V208.886H77.8015V204.182C77.8015 203.361 77.5988 202.742 77.1935 202.326C76.7988 201.91 76.2388 201.702 75.5135 201.702C74.9695 201.702 74.4948 201.809 74.0895 202.022C73.6841 202.235 73.3695 202.55 73.1455 202.966C72.9321 203.382 72.8255 203.899 72.8255 204.518V208.886H71.2895V200.406H72.7615V202.694L72.5215 202.086C72.7988 201.531 73.2255 201.099 73.8015 200.79C74.3775 200.481 75.0495 200.326 75.8175 200.326ZM82.1801 208.886V200.406H83.7161V208.886H82.1801ZM82.9481 198.774C82.6494 198.774 82.3988 198.678 82.1961 198.486C82.0041 198.294 81.9081 198.059 81.9081 197.782C81.9081 197.494 82.0041 197.254 82.1961 197.062C82.3988 196.87 82.6494 196.774 82.9481 196.774C83.2468 196.774 83.4921 196.87 83.6841 197.062C83.8868 197.243 83.9881 197.473 83.9881 197.75C83.9881 198.038 83.8921 198.283 83.7001 198.486C83.5081 198.678 83.2574 198.774 82.9481 198.774ZM91.1768 200.326C91.8702 200.326 92.4782 200.459 93.0008 200.726C93.5342 200.993 93.9502 201.398 94.2488 201.942C94.5475 202.486 94.6968 203.174 94.6968 204.006V208.886H93.1608V204.182C93.1608 203.361 92.9582 202.742 92.5528 202.326C92.1582 201.91 91.5982 201.702 90.8728 201.702C90.3288 201.702 89.8542 201.809 89.4488 202.022C89.0435 202.235 88.7288 202.55 88.5048 202.966C88.2915 203.382 88.1848 203.899 88.1848 204.518V208.886H86.6488V200.406H88.1208V202.694L87.8808 202.086C88.1582 201.531 88.5848 201.099 89.1608 200.79C89.7368 200.481 90.4088 200.326 91.1768 200.326ZM101.251 212.086C100.473 212.086 99.7155 211.974 98.9795 211.75C98.2541 211.537 97.6621 211.227 97.2035 210.822L97.9395 209.638C98.3341 209.979 98.8195 210.246 99.3955 210.438C99.9715 210.641 100.574 210.742 101.203 210.742C102.206 210.742 102.942 210.507 103.411 210.038C103.881 209.569 104.115 208.854 104.115 207.894V206.102L104.275 204.422L104.195 202.726V200.406H105.651V207.734C105.651 209.227 105.278 210.326 104.531 211.03C103.785 211.734 102.691 212.086 101.251 212.086ZM101.059 208.534C100.238 208.534 99.5021 208.363 98.8515 208.022C98.2115 207.67 97.6995 207.185 97.3155 206.566C96.9421 205.947 96.7555 205.233 96.7555 204.422C96.7555 203.601 96.9421 202.886 97.3155 202.278C97.6995 201.659 98.2115 201.179 98.8515 200.838C99.5021 200.497 100.238 200.326 101.059 200.326C101.785 200.326 102.446 200.475 103.043 200.774C103.641 201.062 104.115 201.51 104.467 202.118C104.83 202.726 105.011 203.494 105.011 204.422C105.011 205.339 104.83 206.102 104.467 206.71C104.115 207.318 103.641 207.777 103.043 208.086C102.446 208.385 101.785 208.534 101.059 208.534ZM101.235 207.19C101.801 207.19 102.302 207.073 102.739 206.838C103.177 206.603 103.518 206.278 103.763 205.862C104.019 205.446 104.147 204.966 104.147 204.422C104.147 203.878 104.019 203.398 103.763 202.982C103.518 202.566 103.177 202.246 102.739 202.022C102.302 201.787 101.801 201.67 101.235 201.67C100.67 201.67 100.163 201.787 99.7155 202.022C99.2781 202.246 98.9315 202.566 98.6755 202.982C98.4301 203.398 98.3075 203.878 98.3075 204.422C98.3075 204.966 98.4301 205.446 98.6755 205.862C98.9315 206.278 99.2781 206.603 99.7155 206.838C100.163 207.073 100.67 207.19 101.235 207.19ZM115.315 208.982C114.611 208.982 113.939 208.886 113.299 208.694C112.67 208.502 112.174 208.267 111.811 207.99L112.451 206.774C112.814 207.019 113.262 207.227 113.795 207.398C114.329 207.569 114.873 207.654 115.427 207.654C116.142 207.654 116.654 207.553 116.963 207.35C117.283 207.147 117.443 206.865 117.443 206.502C117.443 206.235 117.347 206.027 117.155 205.878C116.963 205.729 116.707 205.617 116.387 205.542C116.078 205.467 115.731 205.403 115.347 205.35C114.963 205.286 114.579 205.211 114.195 205.126C113.811 205.03 113.459 204.902 113.139 204.742C112.819 204.571 112.563 204.342 112.371 204.054C112.179 203.755 112.083 203.361 112.083 202.87C112.083 202.358 112.227 201.91 112.515 201.526C112.803 201.142 113.209 200.849 113.731 200.646C114.265 200.433 114.894 200.326 115.619 200.326C116.174 200.326 116.734 200.395 117.299 200.534C117.875 200.662 118.345 200.849 118.707 201.094L118.051 202.31C117.667 202.054 117.267 201.878 116.851 201.782C116.435 201.686 116.019 201.638 115.603 201.638C114.931 201.638 114.43 201.75 114.099 201.974C113.769 202.187 113.603 202.465 113.603 202.806C113.603 203.094 113.699 203.318 113.891 203.478C114.094 203.627 114.35 203.745 114.659 203.83C114.979 203.915 115.331 203.99 115.715 204.054C116.099 204.107 116.483 204.182 116.867 204.278C117.251 204.363 117.598 204.486 117.907 204.646C118.227 204.806 118.483 205.03 118.675 205.318C118.878 205.606 118.979 205.99 118.979 206.47C118.979 206.982 118.83 207.425 118.531 207.798C118.233 208.171 117.811 208.465 117.267 208.678C116.723 208.881 116.073 208.982 115.315 208.982ZM126.163 208.886V207.094L126.083 206.758V203.702C126.083 203.051 125.891 202.55 125.507 202.198C125.134 201.835 124.568 201.654 123.811 201.654C123.31 201.654 122.819 201.739 122.339 201.91C121.859 202.07 121.454 202.289 121.123 202.566L120.483 201.414C120.92 201.062 121.443 200.795 122.051 200.614C122.67 200.422 123.315 200.326 123.987 200.326C125.15 200.326 126.046 200.609 126.675 201.174C127.304 201.739 127.619 202.603 127.619 203.766V208.886H126.163ZM123.379 208.982C122.75 208.982 122.195 208.875 121.715 208.662C121.246 208.449 120.883 208.155 120.627 207.782C120.371 207.398 120.243 206.966 120.243 206.486C120.243 206.027 120.35 205.611 120.563 205.238C120.787 204.865 121.144 204.566 121.635 204.342C122.136 204.118 122.808 204.006 123.651 204.006H126.339V205.11H123.715C122.947 205.11 122.43 205.238 122.163 205.494C121.896 205.75 121.763 206.059 121.763 206.422C121.763 206.838 121.928 207.174 122.259 207.43C122.59 207.675 123.048 207.798 123.635 207.798C124.211 207.798 124.712 207.67 125.139 207.414C125.576 207.158 125.891 206.785 126.083 206.294L126.387 207.35C126.184 207.851 125.827 208.251 125.315 208.55C124.803 208.838 124.158 208.982 123.379 208.982ZM132.529 208.886L128.817 200.406H130.417L133.713 208.086H132.945L136.305 200.406H137.809L134.097 208.886H132.529ZM144.241 208.886V207.094L144.161 206.758V203.702C144.161 203.051 143.969 202.55 143.585 202.198C143.212 201.835 142.646 201.654 141.889 201.654C141.388 201.654 140.897 201.739 140.417 201.91C139.937 202.07 139.532 202.289 139.201 202.566L138.561 201.414C138.998 201.062 139.521 200.795 140.129 200.614C140.748 200.422 141.393 200.326 142.065 200.326C143.228 200.326 144.124 200.609 144.753 201.174C145.382 201.739 145.697 202.603 145.697 203.766V208.886H144.241ZM141.457 208.982C140.828 208.982 140.273 208.875 139.793 208.662C139.324 208.449 138.961 208.155 138.705 207.782C138.449 207.398 138.321 206.966 138.321 206.486C138.321 206.027 138.428 205.611 138.641 205.238C138.865 204.865 139.222 204.566 139.713 204.342C140.214 204.118 140.886 204.006 141.729 204.006H144.417V205.11H141.793C141.025 205.11 140.508 205.238 140.241 205.494C139.974 205.75 139.841 206.059 139.841 206.422C139.841 206.838 140.006 207.174 140.337 207.43C140.668 207.675 141.126 207.798 141.713 207.798C142.289 207.798 142.79 207.67 143.217 207.414C143.654 207.158 143.969 206.785 144.161 206.294L144.465 207.35C144.262 207.851 143.905 208.251 143.393 208.55C142.881 208.838 142.236 208.982 141.457 208.982ZM151.451 208.982C150.598 208.982 149.937 208.753 149.467 208.294C148.998 207.835 148.763 207.179 148.763 206.326V198.55H150.299V206.262C150.299 206.721 150.411 207.073 150.635 207.318C150.87 207.563 151.201 207.686 151.627 207.686C152.107 207.686 152.507 207.553 152.827 207.286L153.307 208.39C153.073 208.593 152.79 208.742 152.459 208.838C152.139 208.934 151.803 208.982 151.451 208.982ZM147.323 201.67V200.406H152.731V201.67H147.323ZM158.579 208.982C157.715 208.982 156.942 208.795 156.259 208.422C155.587 208.049 155.059 207.537 154.675 206.886C154.291 206.235 154.099 205.489 154.099 204.646C154.099 203.803 154.291 203.057 154.675 202.406C155.059 201.755 155.587 201.249 156.259 200.886C156.942 200.513 157.715 200.326 158.579 200.326C159.347 200.326 160.03 200.481 160.627 200.79C161.235 201.089 161.705 201.537 162.035 202.134L160.867 202.886C160.59 202.47 160.249 202.166 159.843 201.974C159.449 201.771 159.022 201.67 158.563 201.67C158.009 201.67 157.513 201.793 157.075 202.038C156.638 202.283 156.291 202.63 156.035 203.078C155.779 203.515 155.651 204.038 155.651 204.646C155.651 205.254 155.779 205.782 156.035 206.23C156.291 206.678 156.638 207.025 157.075 207.27C157.513 207.515 158.009 207.638 158.563 207.638C159.022 207.638 159.449 207.542 159.843 207.35C160.249 207.147 160.59 206.838 160.867 206.422L162.035 207.158C161.705 207.745 161.235 208.198 160.627 208.518C160.03 208.827 159.347 208.982 158.579 208.982ZM168.442 200.326C169.136 200.326 169.744 200.459 170.266 200.726C170.8 200.993 171.216 201.398 171.514 201.942C171.813 202.486 171.962 203.174 171.962 204.006V208.886H170.426V204.182C170.426 203.361 170.224 202.742 169.818 202.326C169.424 201.91 168.864 201.702 168.138 201.702C167.594 201.702 167.12 201.809 166.714 202.022C166.309 202.235 165.994 202.55 165.77 202.966C165.557 203.382 165.45 203.899 165.45 204.518V208.886H163.914V197.014H165.45V202.694L165.146 202.086C165.424 201.531 165.85 201.099 166.426 200.79C167.002 200.481 167.674 200.326 168.442 200.326ZM180.069 208.886V207.094L179.989 206.758V203.702C179.989 203.051 179.797 202.55 179.413 202.198C179.04 201.835 178.474 201.654 177.717 201.654C177.216 201.654 176.725 201.739 176.245 201.91C175.765 202.07 175.36 202.289 175.029 202.566L174.389 201.414C174.826 201.062 175.349 200.795 175.957 200.614C176.576 200.422 177.221 200.326 177.893 200.326C179.056 200.326 179.952 200.609 180.581 201.174C181.21 201.739 181.525 202.603 181.525 203.766V208.886H180.069ZM177.285 208.982C176.656 208.982 176.101 208.875 175.621 208.662C175.152 208.449 174.789 208.155 174.533 207.782C174.277 207.398 174.149 206.966 174.149 206.486C174.149 206.027 174.256 205.611 174.469 205.238C174.693 204.865 175.05 204.566 175.541 204.342C176.042 204.118 176.714 204.006 177.557 204.006H180.245V205.11H177.621C176.853 205.11 176.336 205.238 176.069 205.494C175.802 205.75 175.669 206.059 175.669 206.422C175.669 206.838 175.834 207.174 176.165 207.43C176.496 207.675 176.954 207.798 177.541 207.798C178.117 207.798 178.618 207.67 179.045 207.414C179.482 207.158 179.797 206.785 179.989 206.294L180.293 207.35C180.09 207.851 179.733 208.251 179.221 208.55C178.709 208.838 178.064 208.982 177.285 208.982ZM188.896 200.326C189.589 200.326 190.197 200.459 190.72 200.726C191.253 200.993 191.669 201.398 191.968 201.942C192.266 202.486 192.416 203.174 192.416 204.006V208.886H190.88V204.182C190.88 203.361 190.677 202.742 190.272 202.326C189.877 201.91 189.317 201.702 188.592 201.702C188.048 201.702 187.573 201.809 187.168 202.022C186.762 202.235 186.448 202.55 186.224 202.966C186.01 203.382 185.904 203.899 185.904 204.518V208.886H184.368V200.406H185.84V202.694L185.6 202.086C185.877 201.531 186.304 201.099 186.88 200.79C187.456 200.481 188.128 200.326 188.896 200.326ZM198.97 212.086C198.192 212.086 197.434 211.974 196.698 211.75C195.973 211.537 195.381 211.227 194.922 210.822L195.658 209.638C196.053 209.979 196.538 210.246 197.114 210.438C197.69 210.641 198.293 210.742 198.922 210.742C199.925 210.742 200.661 210.507 201.13 210.038C201.6 209.569 201.834 208.854 201.834 207.894V206.102L201.994 204.422L201.914 202.726V200.406H203.37V207.734C203.37 209.227 202.997 210.326 202.25 211.03C201.504 211.734 200.41 212.086 198.97 212.086ZM198.778 208.534C197.957 208.534 197.221 208.363 196.57 208.022C195.93 207.67 195.418 207.185 195.034 206.566C194.661 205.947 194.474 205.233 194.474 204.422C194.474 203.601 194.661 202.886 195.034 202.278C195.418 201.659 195.93 201.179 196.57 200.838C197.221 200.497 197.957 200.326 198.778 200.326C199.504 200.326 200.165 200.475 200.762 200.774C201.36 201.062 201.834 201.51 202.186 202.118C202.549 202.726 202.73 203.494 202.73 204.422C202.73 205.339 202.549 206.102 202.186 206.71C201.834 207.318 201.36 207.777 200.762 208.086C200.165 208.385 199.504 208.534 198.778 208.534ZM198.954 207.19C199.52 207.19 200.021 207.073 200.458 206.838C200.896 206.603 201.237 206.278 201.482 205.862C201.738 205.446 201.866 204.966 201.866 204.422C201.866 203.878 201.738 203.398 201.482 202.982C201.237 202.566 200.896 202.246 200.458 202.022C200.021 201.787 199.52 201.67 198.954 201.67C198.389 201.67 197.882 201.787 197.434 202.022C196.997 202.246 196.65 202.566 196.394 202.982C196.149 203.398 196.026 203.878 196.026 204.422C196.026 204.966 196.149 205.446 196.394 205.862C196.65 206.278 196.997 206.603 197.434 206.838C197.882 207.073 198.389 207.19 198.954 207.19ZM206.305 208.886V200.406H207.841V208.886H206.305ZM207.073 198.774C206.774 198.774 206.524 198.678 206.321 198.486C206.129 198.294 206.033 198.059 206.033 197.782C206.033 197.494 206.129 197.254 206.321 197.062C206.524 196.87 206.774 196.774 207.073 196.774C207.372 196.774 207.617 196.87 207.809 197.062C208.012 197.243 208.113 197.473 208.113 197.75C208.113 198.038 208.017 198.283 207.825 198.486C207.633 198.678 207.382 198.774 207.073 198.774ZM209.958 208.886V207.894L215.398 201.142L215.702 201.67H210.054V200.406H216.934V201.414L211.494 208.15L211.142 207.622H217.062V208.886H209.958ZM227.91 208.982C227.185 208.982 226.529 208.822 225.942 208.502C225.366 208.171 224.908 207.686 224.566 207.046C224.236 206.406 224.07 205.606 224.07 204.646C224.07 203.686 224.241 202.886 224.582 202.246C224.934 201.606 225.398 201.126 225.974 200.806C226.561 200.486 227.206 200.326 227.91 200.326C228.742 200.326 229.478 200.507 230.118 200.87C230.758 201.233 231.265 201.739 231.638 202.39C232.012 203.03 232.198 203.782 232.198 204.646C232.198 205.51 232.012 206.267 231.638 206.918C231.265 207.569 230.758 208.075 230.118 208.438C229.478 208.801 228.742 208.982 227.91 208.982ZM223.414 208.886V197.014H224.95V202.662L224.79 204.63L224.886 206.598V208.886H223.414ZM227.782 207.638C228.326 207.638 228.812 207.515 229.238 207.27C229.676 207.025 230.017 206.678 230.262 206.23C230.518 205.771 230.646 205.243 230.646 204.646C230.646 204.038 230.518 203.515 230.262 203.078C230.017 202.63 229.676 202.283 229.238 202.038C228.812 201.793 228.326 201.67 227.782 201.67C227.249 201.67 226.764 201.793 226.326 202.038C225.9 202.283 225.558 202.63 225.302 203.078C225.057 203.515 224.934 204.038 224.934 204.646C224.934 205.243 225.057 205.771 225.302 206.23C225.558 206.678 225.9 207.025 226.326 207.27C226.764 207.515 227.249 207.638 227.782 207.638ZM237.953 208.982C237.099 208.982 236.342 208.795 235.681 208.422C235.019 208.049 234.497 207.537 234.113 206.886C233.729 206.225 233.537 205.478 233.537 204.646C233.537 203.803 233.729 203.057 234.113 202.406C234.497 201.755 235.019 201.249 235.681 200.886C236.342 200.513 237.099 200.326 237.953 200.326C238.795 200.326 239.547 200.513 240.209 200.886C240.881 201.249 241.403 201.755 241.777 202.406C242.161 203.046 242.353 203.793 242.353 204.646C242.353 205.489 242.161 206.235 241.777 206.886C241.403 207.537 240.881 208.049 240.209 208.422C239.547 208.795 238.795 208.982 237.953 208.982ZM237.953 207.638C238.497 207.638 238.982 207.515 239.409 207.27C239.846 207.025 240.187 206.678 240.433 206.23C240.678 205.771 240.801 205.243 240.801 204.646C240.801 204.038 240.678 203.515 240.433 203.078C240.187 202.63 239.846 202.283 239.409 202.038C238.982 201.793 238.497 201.67 237.953 201.67C237.409 201.67 236.923 201.793 236.497 202.038C236.07 202.283 235.729 202.63 235.473 203.078C235.217 203.515 235.089 204.038 235.089 204.646C235.089 205.243 235.217 205.771 235.473 206.23C235.729 206.678 236.07 207.025 236.497 207.27C236.923 207.515 237.409 207.638 237.953 207.638ZM243.853 201.382L244.653 198.134L244.861 199.062C244.552 199.062 244.291 198.966 244.077 198.774C243.875 198.582 243.773 198.326 243.773 198.006C243.773 197.675 243.875 197.414 244.077 197.222C244.291 197.019 244.547 196.918 244.845 196.918C245.155 196.918 245.405 197.025 245.597 197.238C245.789 197.441 245.885 197.697 245.885 198.006C245.885 198.102 245.88 198.203 245.869 198.31C245.859 198.406 245.832 198.518 245.789 198.646C245.757 198.774 245.704 198.939 245.629 199.142L244.861 201.382H243.853ZM250.253 208.982C249.549 208.982 248.877 208.886 248.237 208.694C247.607 208.502 247.111 208.267 246.749 207.99L247.389 206.774C247.751 207.019 248.199 207.227 248.733 207.398C249.266 207.569 249.81 207.654 250.365 207.654C251.079 207.654 251.591 207.553 251.901 207.35C252.221 207.147 252.381 206.865 252.381 206.502C252.381 206.235 252.285 206.027 252.093 205.878C251.901 205.729 251.645 205.617 251.325 205.542C251.015 205.467 250.669 205.403 250.285 205.35C249.901 205.286 249.517 205.211 249.133 205.126C248.749 205.03 248.397 204.902 248.077 204.742C247.757 204.571 247.501 204.342 247.309 204.054C247.117 203.755 247.021 203.361 247.021 202.87C247.021 202.358 247.165 201.91 247.453 201.526C247.741 201.142 248.146 200.849 248.669 200.646C249.202 200.433 249.831 200.326 250.557 200.326C251.111 200.326 251.671 200.395 252.237 200.534C252.813 200.662 253.282 200.849 253.645 201.094L252.989 202.31C252.605 202.054 252.205 201.878 251.789 201.782C251.373 201.686 250.957 201.638 250.541 201.638C249.869 201.638 249.367 201.75 249.037 201.974C248.706 202.187 248.541 202.465 248.541 202.806C248.541 203.094 248.637 203.318 248.829 203.478C249.031 203.627 249.287 203.745 249.597 203.83C249.917 203.915 250.269 203.99 250.653 204.054C251.037 204.107 251.421 204.182 251.805 204.278C252.189 204.363 252.535 204.486 252.845 204.646C253.165 204.806 253.421 205.03 253.613 205.318C253.815 205.606 253.917 205.99 253.917 206.47C253.917 206.982 253.767 207.425 253.469 207.798C253.17 208.171 252.749 208.465 252.205 208.678C251.661 208.881 251.01 208.982 250.253 208.982ZM260.364 200.326C261.058 200.326 261.666 200.459 262.188 200.726C262.722 200.993 263.138 201.398 263.436 201.942C263.735 202.486 263.884 203.174 263.884 204.006V208.886H262.348V204.182C262.348 203.361 262.146 202.742 261.74 202.326C261.346 201.91 260.786 201.702 260.06 201.702C259.516 201.702 259.042 201.809 258.636 202.022C258.231 202.235 257.916 202.55 257.692 202.966C257.479 203.382 257.372 203.899 257.372 204.518V208.886H255.836V197.014H257.372V202.694L257.068 202.086C257.346 201.531 257.772 201.099 258.348 200.79C258.924 200.481 259.596 200.326 260.364 200.326Z" fill="black"/>
<path d="M33.3474 235.633V227.233H34.3314L38.0994 233.581H37.5714L41.2914 227.233H42.2754L42.2874 235.633H41.1354L41.1234 229.045H41.3994L38.0874 234.613H37.5354L34.1994 229.045H34.4994V235.633H33.3474ZM48.5883 235.633V234.289L48.5283 234.037V231.745C48.5283 231.257 48.3843 230.881 48.0963 230.617C47.8163 230.345 47.3923 230.209 46.8243 230.209C46.4483 230.209 46.0803 230.273 45.7203 230.401C45.3603 230.521 45.0563 230.685 44.8083 230.893L44.3283 230.029C44.6563 229.765 45.0483 229.565 45.5043 229.429C45.9683 229.285 46.4523 229.213 46.9563 229.213C47.8283 229.213 48.5003 229.425 48.9723 229.849C49.4443 230.273 49.6803 230.921 49.6803 231.793V235.633H48.5883ZM46.5003 235.705C46.0283 235.705 45.6123 235.625 45.2523 235.465C44.9003 235.305 44.6283 235.085 44.4363 234.805C44.2443 234.517 44.1483 234.193 44.1483 233.833C44.1483 233.489 44.2283 233.177 44.3883 232.897C44.5563 232.617 44.8243 232.393 45.1923 232.225C45.5683 232.057 46.0723 231.973 46.7043 231.973H48.7203V232.801H46.7523C46.1763 232.801 45.7883 232.897 45.5883 233.089C45.3883 233.281 45.2883 233.513 45.2883 233.785C45.2883 234.097 45.4123 234.349 45.6603 234.541C45.9083 234.725 46.2523 234.817 46.6923 234.817C47.1243 234.817 47.5003 234.721 47.8203 234.529C48.1483 234.337 48.3843 234.057 48.5283 233.689L48.7563 234.481C48.6043 234.857 48.3363 235.157 47.9523 235.381C47.5683 235.597 47.0843 235.705 46.5003 235.705ZM55.2082 229.213C55.7282 229.213 56.1842 229.313 56.5762 229.513C56.9762 229.713 57.2882 230.017 57.5122 230.425C57.7362 230.833 57.8482 231.349 57.8482 231.973V235.633H56.6962V232.105C56.6962 231.489 56.5442 231.025 56.2402 230.713C55.9442 230.401 55.5242 230.245 54.9802 230.245C54.5722 230.245 54.2162 230.325 53.9122 230.485C53.6082 230.645 53.3722 230.881 53.2042 231.193C53.0442 231.505 52.9642 231.893 52.9642 232.357V235.633H51.8122V226.729H52.9642V230.989L52.7362 230.533C52.9442 230.117 53.2642 229.793 53.6962 229.561C54.1282 229.329 54.6322 229.213 55.2082 229.213ZM61.8042 235.705C61.2762 235.705 60.7722 235.633 60.2922 235.489C59.8202 235.345 59.4482 235.169 59.1762 234.961L59.6562 234.049C59.9282 234.233 60.2642 234.389 60.6642 234.517C61.0642 234.645 61.4722 234.709 61.8882 234.709C62.4242 234.709 62.8082 234.633 63.0402 234.481C63.2802 234.329 63.4002 234.117 63.4002 233.845C63.4002 233.645 63.3282 233.489 63.1842 233.377C63.0402 233.265 62.8482 233.181 62.6082 233.125C62.3762 233.069 62.1162 233.021 61.8282 232.981C61.5402 232.933 61.2522 232.877 60.9642 232.813C60.6762 232.741 60.4122 232.645 60.1722 232.525C59.9322 232.397 59.7402 232.225 59.5962 232.009C59.4522 231.785 59.3802 231.489 59.3802 231.121C59.3802 230.737 59.4882 230.401 59.7042 230.113C59.9202 229.825 60.2242 229.605 60.6162 229.453C61.0162 229.293 61.4882 229.213 62.0322 229.213C62.4482 229.213 62.8682 229.265 63.2922 229.369C63.7242 229.465 64.0762 229.605 64.3482 229.789L63.8562 230.701C63.5682 230.509 63.2682 230.377 62.9562 230.305C62.6442 230.233 62.3322 230.197 62.0202 230.197C61.5162 230.197 61.1402 230.281 60.8922 230.449C60.6442 230.609 60.5202 230.817 60.5202 231.073C60.5202 231.289 60.5922 231.457 60.7362 231.577C60.8882 231.689 61.0802 231.777 61.3122 231.841C61.5522 231.905 61.8162 231.961 62.1042 232.009C62.3922 232.049 62.6802 232.105 62.9682 232.177C63.2562 232.241 63.5162 232.333 63.7482 232.453C63.9882 232.573 64.1802 232.741 64.3242 232.957C64.4762 233.173 64.5522 233.461 64.5522 233.821C64.5522 234.205 64.4402 234.537 64.2162 234.817C63.9922 235.097 63.6762 235.317 63.2682 235.477C62.8602 235.629 62.3722 235.705 61.8042 235.705ZM68.6679 235.705C68.1239 235.705 67.6439 235.605 67.2279 235.405C66.8199 235.205 66.4999 234.901 66.2679 234.493C66.0439 234.077 65.9319 233.557 65.9319 232.933V229.273H67.0839V232.801C67.0839 233.425 67.2319 233.893 67.5279 234.205C67.8319 234.517 68.2559 234.673 68.7999 234.673C69.1999 234.673 69.5479 234.593 69.8439 234.433C70.1399 234.265 70.3679 234.025 70.5279 233.713C70.6879 233.393 70.7679 233.009 70.7679 232.561V229.273H71.9199V235.633H70.8279V233.917L71.0079 234.373C70.7999 234.797 70.4879 235.125 70.0719 235.357C69.6559 235.589 69.1879 235.705 68.6679 235.705ZM74.113 235.633V226.729H75.265V235.633H74.113ZM80.1886 235.705C79.5486 235.705 78.9806 235.565 78.4846 235.285C77.9886 235.005 77.5966 234.621 77.3086 234.133C77.0206 233.637 76.8766 233.077 76.8766 232.453C76.8766 231.821 77.0206 231.261 77.3086 230.773C77.5966 230.285 77.9886 229.905 78.4846 229.633C78.9806 229.353 79.5486 229.213 80.1886 229.213C80.8206 229.213 81.3846 229.353 81.8806 229.633C82.3846 229.905 82.7766 230.285 83.0566 230.773C83.3446 231.253 83.4886 231.813 83.4886 232.453C83.4886 233.085 83.3446 233.645 83.0566 234.133C82.7766 234.621 82.3846 235.005 81.8806 235.285C81.3846 235.565 80.8206 235.705 80.1886 235.705ZM80.1886 234.697C80.5966 234.697 80.9606 234.605 81.2806 234.421C81.6086 234.237 81.8646 233.977 82.0486 233.641C82.2326 233.297 82.3246 232.901 82.3246 232.453C82.3246 231.997 82.2326 231.605 82.0486 231.277C81.8646 230.941 81.6086 230.681 81.2806 230.497C80.9606 230.313 80.5966 230.221 80.1886 230.221C79.7806 230.221 79.4166 230.313 79.0966 230.497C78.7766 230.681 78.5206 230.941 78.3286 231.277C78.1366 231.605 78.0406 231.997 78.0406 232.453C78.0406 232.901 78.1366 233.297 78.3286 233.641C78.5206 233.977 78.7766 234.237 79.0966 234.421C79.4166 234.605 79.7806 234.697 80.1886 234.697ZM87.2657 235.705C86.6257 235.705 86.1297 235.533 85.7777 235.189C85.4257 234.845 85.2497 234.353 85.2497 233.713V227.881H86.4017V233.665C86.4017 234.009 86.4857 234.273 86.6537 234.457C86.8297 234.641 87.0777 234.733 87.3977 234.733C87.7577 234.733 88.0577 234.633 88.2977 234.433L88.6577 235.261C88.4817 235.413 88.2697 235.525 88.0217 235.597C87.7817 235.669 87.5297 235.705 87.2657 235.705ZM84.1697 230.221V229.273H88.2257V230.221H84.1697ZM90.0505 235.633V226.729H91.2025V235.633H90.0505ZM97.3501 235.633V234.289L97.2901 234.037V231.745C97.2901 231.257 97.1461 230.881 96.8581 230.617C96.5781 230.345 96.1541 230.209 95.5861 230.209C95.2101 230.209 94.8421 230.273 94.4821 230.401C94.1221 230.521 93.8181 230.685 93.5701 230.893L93.0901 230.029C93.4181 229.765 93.8101 229.565 94.2661 229.429C94.7301 229.285 95.2141 229.213 95.7181 229.213C96.5901 229.213 97.2621 229.425 97.7341 229.849C98.2061 230.273 98.4421 230.921 98.4421 231.793V235.633H97.3501ZM95.2621 235.705C94.7901 235.705 94.3741 235.625 94.0141 235.465C93.6621 235.305 93.3901 235.085 93.1981 234.805C93.0061 234.517 92.9101 234.193 92.9101 233.833C92.9101 233.489 92.9901 233.177 93.1501 232.897C93.3181 232.617 93.5861 232.393 93.9541 232.225C94.3301 232.057 94.8341 231.973 95.4661 231.973H97.4821V232.801H95.5141C94.9381 232.801 94.5501 232.897 94.3501 233.089C94.1501 233.281 94.0501 233.513 94.0501 233.785C94.0501 234.097 94.1741 234.349 94.4221 234.541C94.6701 234.725 95.0141 234.817 95.4541 234.817C95.8861 234.817 96.2621 234.721 96.5821 234.529C96.9101 234.337 97.1461 234.057 97.2901 233.689L97.5181 234.481C97.3661 234.857 97.0981 235.157 96.7141 235.381C96.3301 235.597 95.8461 235.705 95.2621 235.705ZM100.574 235.633V229.273H101.678V231.001L101.57 230.569C101.746 230.129 102.042 229.793 102.458 229.561C102.874 229.329 103.386 229.213 103.994 229.213V230.329C103.946 230.321 103.898 230.317 103.85 230.317C103.81 230.317 103.77 230.317 103.73 230.317C103.114 230.317 102.626 230.501 102.266 230.869C101.906 231.237 101.726 231.769 101.726 232.465V235.633H100.574ZM108.81 229.213C109.33 229.213 109.786 229.313 110.178 229.513C110.578 229.713 110.89 230.017 111.114 230.425C111.338 230.833 111.45 231.349 111.45 231.973V235.633H110.298V232.105C110.298 231.489 110.146 231.025 109.842 230.713C109.546 230.401 109.126 230.245 108.582 230.245C108.174 230.245 107.818 230.325 107.514 230.485C107.21 230.645 106.974 230.881 106.806 231.193C106.646 231.505 106.566 231.893 106.566 232.357V235.633H105.414V229.273H106.518V230.989L106.338 230.533C106.546 230.117 106.866 229.793 107.298 229.561C107.73 229.329 108.234 229.213 108.81 229.213ZM113.582 235.633V229.273H114.734V235.633H113.582ZM114.158 228.049C113.934 228.049 113.746 227.977 113.594 227.833C113.45 227.689 113.378 227.513 113.378 227.305C113.378 227.089 113.45 226.909 113.594 226.765C113.746 226.621 113.934 226.549 114.158 226.549C114.382 226.549 114.566 226.621 114.71 226.765C114.862 226.901 114.938 227.073 114.938 227.281C114.938 227.497 114.866 227.681 114.722 227.833C114.578 227.977 114.39 228.049 114.158 228.049ZM121.98 235.705C121.452 235.705 120.948 235.633 120.468 235.489C119.996 235.345 119.624 235.169 119.352 234.961L119.832 234.049C120.104 234.233 120.44 234.389 120.84 234.517C121.24 234.645 121.648 234.709 122.064 234.709C122.6 234.709 122.984 234.633 123.216 234.481C123.456 234.329 123.576 234.117 123.576 233.845C123.576 233.645 123.504 233.489 123.36 233.377C123.216 233.265 123.024 233.181 122.784 233.125C122.552 233.069 122.292 233.021 122.004 232.981C121.716 232.933 121.428 232.877 121.14 232.813C120.852 232.741 120.588 232.645 120.348 232.525C120.108 232.397 119.916 232.225 119.772 232.009C119.628 231.785 119.556 231.489 119.556 231.121C119.556 230.737 119.664 230.401 119.88 230.113C120.096 229.825 120.4 229.605 120.792 229.453C121.192 229.293 121.664 229.213 122.208 229.213C122.624 229.213 123.044 229.265 123.468 229.369C123.9 229.465 124.252 229.605 124.524 229.789L124.032 230.701C123.744 230.509 123.444 230.377 123.132 230.305C122.82 230.233 122.508 230.197 122.196 230.197C121.692 230.197 121.316 230.281 121.068 230.449C120.82 230.609 120.696 230.817 120.696 231.073C120.696 231.289 120.768 231.457 120.912 231.577C121.064 231.689 121.256 231.777 121.488 231.841C121.728 231.905 121.992 231.961 122.28 232.009C122.568 232.049 122.856 232.105 123.144 232.177C123.432 232.241 123.692 232.333 123.924 232.453C124.164 232.573 124.356 232.741 124.5 232.957C124.652 233.173 124.728 233.461 124.728 233.821C124.728 234.205 124.616 234.537 124.392 234.817C124.168 235.097 123.852 235.317 123.444 235.477C123.036 235.629 122.548 235.705 121.98 235.705ZM128.892 235.705C128.252 235.705 127.684 235.565 127.188 235.285C126.692 235.005 126.3 234.621 126.012 234.133C125.724 233.637 125.58 233.077 125.58 232.453C125.58 231.821 125.724 231.261 126.012 230.773C126.3 230.285 126.692 229.905 127.188 229.633C127.684 229.353 128.252 229.213 128.892 229.213C129.524 229.213 130.088 229.353 130.584 229.633C131.088 229.905 131.48 230.285 131.76 230.773C132.048 231.253 132.192 231.813 132.192 232.453C132.192 233.085 132.048 233.645 131.76 234.133C131.48 234.621 131.088 235.005 130.584 235.285C130.088 235.565 129.524 235.705 128.892 235.705ZM128.892 234.697C129.3 234.697 129.664 234.605 129.984 234.421C130.312 234.237 130.568 233.977 130.752 233.641C130.936 233.297 131.028 232.901 131.028 232.453C131.028 231.997 130.936 231.605 130.752 231.277C130.568 230.941 130.312 230.681 129.984 230.497C129.664 230.313 129.3 230.221 128.892 230.221C128.484 230.221 128.12 230.313 127.8 230.497C127.48 230.681 127.224 230.941 127.032 231.277C126.84 231.605 126.744 231.997 126.744 232.453C126.744 232.901 126.84 233.297 127.032 233.641C127.224 233.977 127.48 234.237 127.8 234.421C128.12 234.605 128.484 234.697 128.892 234.697ZM135.969 235.705C135.329 235.705 134.833 235.533 134.481 235.189C134.129 234.845 133.953 234.353 133.953 233.713V227.881H135.105V233.665C135.105 234.009 135.189 234.273 135.357 234.457C135.533 234.641 135.781 234.733 136.101 234.733C136.461 234.733 136.761 234.633 137.001 234.433L137.361 235.261C137.185 235.413 136.973 235.525 136.725 235.597C136.485 235.669 136.233 235.705 135.969 235.705ZM132.873 230.221V229.273H136.929V230.221H132.873ZM138.754 235.633V229.273H139.906V235.633H138.754ZM139.33 228.049C139.106 228.049 138.918 227.977 138.766 227.833C138.622 227.689 138.55 227.513 138.55 227.305C138.55 227.089 138.622 226.909 138.766 226.765C138.918 226.621 139.106 226.549 139.33 226.549C139.554 226.549 139.738 226.621 139.882 226.765C140.034 226.901 140.11 227.073 140.11 227.281C140.11 227.497 140.038 227.681 139.894 227.833C139.75 227.977 139.562 228.049 139.33 228.049ZM145.477 235.705C144.933 235.705 144.441 235.585 144.001 235.345C143.569 235.097 143.225 234.733 142.969 234.253C142.721 233.773 142.597 233.173 142.597 232.453C142.597 231.733 142.725 231.133 142.981 230.653C143.245 230.173 143.593 229.813 144.025 229.573C144.465 229.333 144.949 229.213 145.477 229.213C146.101 229.213 146.653 229.349 147.133 229.621C147.613 229.893 147.993 230.273 148.273 230.761C148.553 231.241 148.693 231.805 148.693 232.453C148.693 233.101 148.553 233.669 148.273 234.157C147.993 234.645 147.613 235.025 147.133 235.297C146.653 235.569 146.101 235.705 145.477 235.705ZM142.105 235.633V226.729H143.257V230.965L143.137 232.441L143.209 233.917V235.633H142.105ZM145.381 234.697C145.789 234.697 146.153 234.605 146.473 234.421C146.801 234.237 147.057 233.977 147.241 233.641C147.433 233.297 147.529 232.901 147.529 232.453C147.529 231.997 147.433 231.605 147.241 231.277C147.057 230.941 146.801 230.681 146.473 230.497C146.153 230.313 145.789 230.221 145.381 230.221C144.981 230.221 144.617 230.313 144.289 230.497C143.969 230.681 143.713 230.941 143.521 231.277C143.337 231.605 143.245 231.997 143.245 232.453C143.245 232.901 143.337 233.297 143.521 233.641C143.713 233.977 143.969 234.237 144.289 234.421C144.617 234.605 144.981 234.697 145.381 234.697ZM156.232 235.705C155.592 235.705 155.024 235.565 154.528 235.285C154.032 235.005 153.64 234.621 153.352 234.133C153.064 233.637 152.92 233.077 152.92 232.453C152.92 231.821 153.064 231.261 153.352 230.773C153.64 230.285 154.032 229.905 154.528 229.633C155.024 229.353 155.592 229.213 156.232 229.213C156.864 229.213 157.428 229.353 157.924 229.633C158.428 229.905 158.82 230.285 159.1 230.773C159.388 231.253 159.532 231.813 159.532 232.453C159.532 233.085 159.388 233.645 159.1 234.133C158.82 234.621 158.428 235.005 157.924 235.285C157.428 235.565 156.864 235.705 156.232 235.705ZM156.232 234.697C156.64 234.697 157.004 234.605 157.324 234.421C157.652 234.237 157.908 233.977 158.092 233.641C158.276 233.297 158.368 232.901 158.368 232.453C158.368 231.997 158.276 231.605 158.092 231.277C157.908 230.941 157.652 230.681 157.324 230.497C157.004 230.313 156.64 230.221 156.232 230.221C155.824 230.221 155.46 230.313 155.14 230.497C154.82 230.681 154.564 230.941 154.372 231.277C154.18 231.605 154.084 231.997 154.084 232.453C154.084 232.901 154.18 233.297 154.372 233.641C154.564 233.977 154.82 234.237 155.14 234.421C155.46 234.605 155.824 234.697 156.232 234.697ZM161.125 235.633V226.729H162.277V235.633H161.125ZM164.476 235.633V229.273H165.628V235.633H164.476ZM165.052 228.049C164.828 228.049 164.64 227.977 164.488 227.833C164.344 227.689 164.272 227.513 164.272 227.305C164.272 227.089 164.344 226.909 164.488 226.765C164.64 226.621 164.828 226.549 165.052 226.549C165.276 226.549 165.46 226.621 165.604 226.765C165.756 226.901 165.832 227.073 165.832 227.281C165.832 227.497 165.76 227.681 165.616 227.833C165.472 227.977 165.284 228.049 165.052 228.049ZM169.652 235.705C169.124 235.705 168.62 235.633 168.14 235.489C167.668 235.345 167.296 235.169 167.024 234.961L167.504 234.049C167.776 234.233 168.112 234.389 168.512 234.517C168.912 234.645 169.32 234.709 169.736 234.709C170.272 234.709 170.656 234.633 170.888 234.481C171.128 234.329 171.248 234.117 171.248 233.845C171.248 233.645 171.176 233.489 171.032 233.377C170.888 233.265 170.696 233.181 170.456 233.125C170.224 233.069 169.964 233.021 169.676 232.981C169.388 232.933 169.1 232.877 168.812 232.813C168.524 232.741 168.26 232.645 168.02 232.525C167.78 232.397 167.588 232.225 167.444 232.009C167.3 231.785 167.228 231.489 167.228 231.121C167.228 230.737 167.336 230.401 167.552 230.113C167.768 229.825 168.072 229.605 168.464 229.453C168.864 229.293 169.336 229.213 169.88 229.213C170.296 229.213 170.716 229.265 171.14 229.369C171.572 229.465 171.924 229.605 172.196 229.789L171.704 230.701C171.416 230.509 171.116 230.377 170.804 230.305C170.492 230.233 170.18 230.197 169.868 230.197C169.364 230.197 168.988 230.281 168.74 230.449C168.492 230.609 168.368 230.817 168.368 231.073C168.368 231.289 168.44 231.457 168.584 231.577C168.736 231.689 168.928 231.777 169.16 231.841C169.4 231.905 169.664 231.961 169.952 232.009C170.24 232.049 170.528 232.105 170.816 232.177C171.104 232.241 171.364 232.333 171.596 232.453C171.836 232.573 172.028 232.741 172.172 232.957C172.324 233.173 172.4 233.461 172.4 233.821C172.4 234.205 172.288 234.537 172.064 234.817C171.84 235.097 171.524 235.317 171.116 235.477C170.708 235.629 170.22 235.705 169.652 235.705ZM177.236 229.213C177.756 229.213 178.212 229.313 178.604 229.513C179.004 229.713 179.316 230.017 179.54 230.425C179.764 230.833 179.876 231.349 179.876 231.973V235.633H178.724V232.105C178.724 231.489 178.572 231.025 178.268 230.713C177.972 230.401 177.552 230.245 177.008 230.245C176.6 230.245 176.244 230.325 175.94 230.485C175.636 230.645 175.4 230.881 175.232 231.193C175.072 231.505 174.992 231.893 174.992 232.357V235.633H173.84V226.729H174.992V230.989L174.764 230.533C174.972 230.117 175.292 229.793 175.724 229.561C176.156 229.329 176.66 229.213 177.236 229.213ZM187.906 235.705C187.362 235.705 186.882 235.605 186.466 235.405C186.058 235.205 185.738 234.901 185.506 234.493C185.282 234.077 185.17 233.557 185.17 232.933V229.273H186.322V232.801C186.322 233.425 186.47 233.893 186.766 234.205C187.07 234.517 187.494 234.673 188.038 234.673C188.438 234.673 188.786 234.593 189.082 234.433C189.378 234.265 189.606 234.025 189.766 233.713C189.926 233.393 190.006 233.009 190.006 232.561V229.273H191.158V235.633H190.066V233.917L190.246 234.373C190.038 234.797 189.726 235.125 189.31 235.357C188.894 235.589 188.426 235.705 187.906 235.705ZM196.123 235.705C195.475 235.705 194.895 235.565 194.383 235.285C193.879 235.005 193.483 234.621 193.195 234.133C192.907 233.645 192.763 233.085 192.763 232.453C192.763 231.821 192.907 231.261 193.195 230.773C193.483 230.285 193.879 229.905 194.383 229.633C194.895 229.353 195.475 229.213 196.123 229.213C196.699 229.213 197.211 229.329 197.659 229.561C198.115 229.785 198.467 230.121 198.715 230.569L197.839 231.133C197.631 230.821 197.375 230.593 197.071 230.449C196.775 230.297 196.455 230.221 196.111 230.221C195.695 230.221 195.323 230.313 194.995 230.497C194.667 230.681 194.407 230.941 194.215 231.277C194.023 231.605 193.927 231.997 193.927 232.453C193.927 232.909 194.023 233.305 194.215 233.641C194.407 233.977 194.667 234.237 194.995 234.421C195.323 234.605 195.695 234.697 196.111 234.697C196.455 234.697 196.775 234.625 197.071 234.481C197.375 234.329 197.631 234.097 197.839 233.785L198.715 234.337C198.467 234.777 198.115 235.117 197.659 235.357C197.211 235.589 196.699 235.705 196.123 235.705ZM203.521 229.213C204.041 229.213 204.497 229.313 204.889 229.513C205.289 229.713 205.601 230.017 205.825 230.425C206.049 230.833 206.161 231.349 206.161 231.973V235.633H205.009V232.105C205.009 231.489 204.857 231.025 204.553 230.713C204.257 230.401 203.837 230.245 203.293 230.245C202.885 230.245 202.529 230.325 202.225 230.485C201.921 230.645 201.685 230.881 201.517 231.193C201.357 231.505 201.277 231.893 201.277 232.357V235.633H200.125V226.729H201.277V230.989L201.049 230.533C201.257 230.117 201.577 229.793 202.009 229.561C202.441 229.329 202.945 229.213 203.521 229.213ZM210.969 235.705C210.425 235.705 209.945 235.605 209.529 235.405C209.121 235.205 208.801 234.901 208.569 234.493C208.345 234.077 208.233 233.557 208.233 232.933V229.273H209.385V232.801C209.385 233.425 209.533 233.893 209.829 234.205C210.133 234.517 210.557 234.673 211.101 234.673C211.501 234.673 211.849 234.593 212.145 234.433C212.441 234.265 212.669 234.025 212.829 233.713C212.989 233.393 213.069 233.009 213.069 232.561V229.273H214.221V235.633H213.129V233.917L213.309 234.373C213.101 234.797 212.789 235.125 212.373 235.357C211.957 235.589 211.489 235.705 210.969 235.705ZM219.81 229.213C220.33 229.213 220.786 229.313 221.178 229.513C221.578 229.713 221.89 230.017 222.114 230.425C222.338 230.833 222.45 231.349 222.45 231.973V235.633H221.298V232.105C221.298 231.489 221.146 231.025 220.842 230.713C220.546 230.401 220.126 230.245 219.582 230.245C219.174 230.245 218.818 230.325 218.514 230.485C218.21 230.645 217.974 230.881 217.806 231.193C217.646 231.505 217.566 231.893 217.566 232.357V235.633H216.414V229.273H217.518V230.989L217.338 230.533C217.546 230.117 217.866 229.793 218.298 229.561C218.73 229.329 219.234 229.213 219.81 229.213ZM231.752 235.633V234.289L231.692 234.037V231.745C231.692 231.257 231.548 230.881 231.26 230.617C230.98 230.345 230.556 230.209 229.988 230.209C229.612 230.209 229.244 230.273 228.884 230.401C228.524 230.521 228.22 230.685 227.972 230.893L227.492 230.029C227.82 229.765 228.212 229.565 228.668 229.429C229.132 229.285 229.616 229.213 230.12 229.213C230.992 229.213 231.664 229.425 232.136 229.849C232.608 230.273 232.844 230.921 232.844 231.793V235.633H231.752ZM229.664 235.705C229.192 235.705 228.776 235.625 228.416 235.465C228.064 235.305 227.792 235.085 227.6 234.805C227.408 234.517 227.312 234.193 227.312 233.833C227.312 233.489 227.392 233.177 227.552 232.897C227.72 232.617 227.988 232.393 228.356 232.225C228.732 232.057 229.236 231.973 229.868 231.973H231.884V232.801H229.916C229.34 232.801 228.952 232.897 228.752 233.089C228.552 233.281 228.452 233.513 228.452 233.785C228.452 234.097 228.576 234.349 228.824 234.541C229.072 234.725 229.416 234.817 229.856 234.817C230.288 234.817 230.664 234.721 230.984 234.529C231.312 234.337 231.548 234.057 231.692 233.689L231.92 234.481C231.768 234.857 231.5 235.157 231.116 235.381C230.732 235.597 230.248 235.705 229.664 235.705ZM236.527 235.633L233.743 229.273H234.943L237.415 235.033H236.839L239.359 229.273H240.487L237.703 235.633H236.527ZM243.136 235.633L240.352 229.273H241.552L244.024 235.033H243.448L245.968 229.273H247.096L244.312 235.633H243.136ZM251.92 235.633V234.289L251.86 234.037V231.745C251.86 231.257 251.716 230.881 251.428 230.617C251.148 230.345 250.724 230.209 250.156 230.209C249.78 230.209 249.412 230.273 249.052 230.401C248.692 230.521 248.388 230.685 248.14 230.893L247.66 230.029C247.988 229.765 248.38 229.565 248.836 229.429C249.3 229.285 249.784 229.213 250.288 229.213C251.16 229.213 251.832 229.425 252.304 229.849C252.776 230.273 253.012 230.921 253.012 231.793V235.633H251.92ZM249.832 235.705C249.36 235.705 248.944 235.625 248.584 235.465C248.232 235.305 247.96 235.085 247.768 234.805C247.576 234.517 247.48 234.193 247.48 233.833C247.48 233.489 247.56 233.177 247.72 232.897C247.888 232.617 248.156 232.393 248.524 232.225C248.9 232.057 249.404 231.973 250.036 231.973H252.052V232.801H250.084C249.508 232.801 249.12 232.897 248.92 233.089C248.72 233.281 248.62 233.513 248.62 233.785C248.62 234.097 248.744 234.349 248.992 234.541C249.24 234.725 249.584 234.817 250.024 234.817C250.456 234.817 250.832 234.721 251.152 234.529C251.48 234.337 251.716 234.057 251.86 233.689L252.088 234.481C251.936 234.857 251.668 235.157 251.284 235.381C250.9 235.597 250.416 235.705 249.832 235.705ZM255.144 235.633V226.729H256.296V235.633H255.144ZM264.394 235.705C263.85 235.705 263.37 235.605 262.954 235.405C262.546 235.205 262.226 234.901 261.994 234.493C261.77 234.077 261.658 233.557 261.658 232.933V229.273H262.81V232.801C262.81 233.425 262.958 233.893 263.254 234.205C263.558 234.517 263.982 234.673 264.526 234.673C264.926 234.673 265.274 234.593 265.57 234.433C265.866 234.265 266.094 234.025 266.254 233.713C266.414 233.393 266.494 233.009 266.494 232.561V229.273H267.646V235.633H266.554V233.917L266.734 234.373C266.526 234.797 266.214 235.125 265.798 235.357C265.382 235.589 264.914 235.705 264.394 235.705ZM273.236 229.213C273.756 229.213 274.212 229.313 274.604 229.513C275.004 229.713 275.316 230.017 275.54 230.425C275.764 230.833 275.876 231.349 275.876 231.973V235.633H274.724V232.105C274.724 231.489 274.572 231.025 274.268 230.713C273.972 230.401 273.552 230.245 273.008 230.245C272.6 230.245 272.244 230.325 271.94 230.485C271.636 230.645 271.4 230.881 271.232 231.193C271.072 231.505 270.992 231.893 270.992 232.357V235.633H269.84V229.273H270.944V230.989L270.764 230.533C270.972 230.117 271.292 229.793 271.724 229.561C272.156 229.329 272.66 229.213 273.236 229.213ZM278.008 235.633V229.273H279.16V235.633H278.008ZM278.584 228.049C278.36 228.049 278.172 227.977 278.02 227.833C277.876 227.689 277.804 227.513 277.804 227.305C277.804 227.089 277.876 226.909 278.02 226.765C278.172 226.621 278.36 226.549 278.584 226.549C278.808 226.549 278.992 226.621 279.136 226.765C279.288 226.901 279.364 227.073 279.364 227.281C279.364 227.497 279.292 227.681 279.148 227.833C279.004 227.977 278.816 228.049 278.584 228.049ZM21.5503 253.705C21.0223 253.705 20.5183 253.633 20.0383 253.489C19.5663 253.345 19.1943 253.169 18.9223 252.961L19.4023 252.049C19.6743 252.233 20.0103 252.389 20.4103 252.517C20.8103 252.645 21.2183 252.709 21.6343 252.709C22.1703 252.709 22.5543 252.633 22.7863 252.481C23.0263 252.329 23.1463 252.117 23.1463 251.845C23.1463 251.645 23.0743 251.489 22.9303 251.377C22.7863 251.265 22.5943 251.181 22.3543 251.125C22.1223 251.069 21.8623 251.021 21.5743 250.981C21.2863 250.933 20.9983 250.877 20.7103 250.813C20.4223 250.741 20.1583 250.645 19.9183 250.525C19.6783 250.397 19.4863 250.225 19.3423 250.009C19.1983 249.785 19.1263 249.489 19.1263 249.121C19.1263 248.737 19.2343 248.401 19.4503 248.113C19.6663 247.825 19.9703 247.605 20.3623 247.453C20.7623 247.293 21.2343 247.213 21.7783 247.213C22.1943 247.213 22.6143 247.265 23.0383 247.369C23.4703 247.465 23.8223 247.605 24.0943 247.789L23.6023 248.701C23.3143 248.509 23.0143 248.377 22.7023 248.305C22.3903 248.233 22.0783 248.197 21.7663 248.197C21.2623 248.197 20.8863 248.281 20.6383 248.449C20.3903 248.609 20.2663 248.817 20.2663 249.073C20.2663 249.289 20.3383 249.457 20.4823 249.577C20.6343 249.689 20.8263 249.777 21.0583 249.841C21.2983 249.905 21.5623 249.961 21.8503 250.009C22.1383 250.049 22.4263 250.105 22.7143 250.177C23.0023 250.241 23.2623 250.333 23.4943 250.453C23.7343 250.573 23.9263 250.741 24.0703 250.957C24.2223 251.173 24.2983 251.461 24.2983 251.821C24.2983 252.205 24.1863 252.537 23.9623 252.817C23.7383 253.097 23.4223 253.317 23.0143 253.477C22.6063 253.629 22.1183 253.705 21.5503 253.705ZM29.686 253.633V252.289L29.626 252.037V249.745C29.626 249.257 29.482 248.881 29.194 248.617C28.914 248.345 28.49 248.209 27.922 248.209C27.546 248.209 27.178 248.273 26.818 248.401C26.458 248.521 26.154 248.685 25.906 248.893L25.426 248.029C25.754 247.765 26.146 247.565 26.602 247.429C27.066 247.285 27.55 247.213 28.054 247.213C28.926 247.213 29.598 247.425 30.07 247.849C30.542 248.273 30.778 248.921 30.778 249.793V253.633H29.686ZM27.598 253.705C27.126 253.705 26.71 253.625 26.35 253.465C25.998 253.305 25.726 253.085 25.534 252.805C25.342 252.517 25.246 252.193 25.246 251.833C25.246 251.489 25.326 251.177 25.486 250.897C25.654 250.617 25.922 250.393 26.29 250.225C26.666 250.057 27.17 249.973 27.802 249.973H29.818V250.801H27.85C27.274 250.801 26.886 250.897 26.686 251.089C26.486 251.281 26.386 251.513 26.386 251.785C26.386 252.097 26.51 252.349 26.758 252.541C27.006 252.725 27.35 252.817 27.79 252.817C28.222 252.817 28.598 252.721 28.918 252.529C29.246 252.337 29.482 252.057 29.626 251.689L29.854 252.481C29.702 252.857 29.434 253.157 29.05 253.381C28.666 253.597 28.182 253.705 27.598 253.705ZM34.4607 253.633L31.6767 247.273H32.8767L35.3487 253.033H34.7727L37.2927 247.273H38.4207L35.6367 253.633H34.4607ZM43.2446 253.633V252.289L43.1846 252.037V249.745C43.1846 249.257 43.0406 248.881 42.7526 248.617C42.4726 248.345 42.0486 248.209 41.4806 248.209C41.1046 248.209 40.7366 248.273 40.3766 248.401C40.0166 248.521 39.7126 248.685 39.4646 248.893L38.9846 248.029C39.3126 247.765 39.7046 247.565 40.1606 247.429C40.6246 247.285 41.1086 247.213 41.6126 247.213C42.4846 247.213 43.1566 247.425 43.6286 247.849C44.1006 248.273 44.3366 248.921 44.3366 249.793V253.633H43.2446ZM41.1566 253.705C40.6846 253.705 40.2686 253.625 39.9086 253.465C39.5566 253.305 39.2846 253.085 39.0926 252.805C38.9006 252.517 38.8046 252.193 38.8046 251.833C38.8046 251.489 38.8846 251.177 39.0446 250.897C39.2126 250.617 39.4806 250.393 39.8486 250.225C40.2246 250.057 40.7286 249.973 41.3606 249.973H43.3766V250.801H41.4086C40.8326 250.801 40.4446 250.897 40.2446 251.089C40.0446 251.281 39.9446 251.513 39.9446 251.785C39.9446 252.097 40.0686 252.349 40.3166 252.541C40.5646 252.725 40.9086 252.817 41.3486 252.817C41.7806 252.817 42.1566 252.721 42.4766 252.529C42.8046 252.337 43.0406 252.057 43.1846 251.689L43.4126 252.481C43.2606 252.857 42.9926 253.157 42.6086 253.381C42.2246 253.597 41.7406 253.705 41.1566 253.705ZM48.6525 253.705C48.0125 253.705 47.5165 253.533 47.1645 253.189C46.8125 252.845 46.6365 252.353 46.6365 251.713V245.881H47.7885V251.665C47.7885 252.009 47.8725 252.273 48.0405 252.457C48.2165 252.641 48.4645 252.733 48.7845 252.733C49.1445 252.733 49.4445 252.633 49.6845 252.433L50.0445 253.261C49.8685 253.413 49.6565 253.525 49.4085 253.597C49.1685 253.669 48.9165 253.705 48.6525 253.705ZM45.5565 248.221V247.273H49.6125V248.221H45.5565ZM53.9983 253.705C53.3503 253.705 52.7703 253.565 52.2583 253.285C51.7543 253.005 51.3583 252.621 51.0703 252.133C50.7823 251.645 50.6383 251.085 50.6383 250.453C50.6383 249.821 50.7823 249.261 51.0703 248.773C51.3583 248.285 51.7543 247.905 52.2583 247.633C52.7703 247.353 53.3503 247.213 53.9983 247.213C54.5743 247.213 55.0863 247.329 55.5343 247.561C55.9903 247.785 56.3423 248.121 56.5903 248.569L55.7143 249.133C55.5063 248.821 55.2503 248.593 54.9463 248.449C54.6503 248.297 54.3303 248.221 53.9863 248.221C53.5703 248.221 53.1983 248.313 52.8703 248.497C52.5423 248.681 52.2823 248.941 52.0903 249.277C51.8983 249.605 51.8023 249.997 51.8023 250.453C51.8023 250.909 51.8983 251.305 52.0903 251.641C52.2823 251.977 52.5423 252.237 52.8703 252.421C53.1983 252.605 53.5703 252.697 53.9863 252.697C54.3303 252.697 54.6503 252.625 54.9463 252.481C55.2503 252.329 55.5063 252.097 55.7143 251.785L56.5903 252.337C56.3423 252.777 55.9903 253.117 55.5343 253.357C55.0863 253.589 54.5743 253.705 53.9983 253.705ZM61.3957 247.213C61.9157 247.213 62.3717 247.313 62.7637 247.513C63.1637 247.713 63.4757 248.017 63.6997 248.425C63.9237 248.833 64.0357 249.349 64.0357 249.973V253.633H62.8837V250.105C62.8837 249.489 62.7317 249.025 62.4277 248.713C62.1317 248.401 61.7117 248.245 61.1677 248.245C60.7597 248.245 60.4037 248.325 60.0997 248.485C59.7957 248.645 59.5597 248.881 59.3917 249.193C59.2317 249.505 59.1517 249.893 59.1517 250.357V253.633H57.9997V244.729H59.1517V248.989L58.9237 248.533C59.1317 248.117 59.4517 247.793 59.8837 247.561C60.3157 247.329 60.8197 247.213 61.3957 247.213ZM70.1157 253.633V252.289L70.0557 252.037V249.745C70.0557 249.257 69.9117 248.881 69.6237 248.617C69.3437 248.345 68.9197 248.209 68.3517 248.209C67.9757 248.209 67.6077 248.273 67.2477 248.401C66.8877 248.521 66.5837 248.685 66.3357 248.893L65.8557 248.029C66.1837 247.765 66.5757 247.565 67.0317 247.429C67.4957 247.285 67.9797 247.213 68.4837 247.213C69.3557 247.213 70.0277 247.425 70.4997 247.849C70.9717 248.273 71.2077 248.921 71.2077 249.793V253.633H70.1157ZM68.0277 253.705C67.5557 253.705 67.1397 253.625 66.7797 253.465C66.4277 253.305 66.1557 253.085 65.9637 252.805C65.7717 252.517 65.6757 252.193 65.6757 251.833C65.6757 251.489 65.7557 251.177 65.9157 250.897C66.0837 250.617 66.3517 250.393 66.7197 250.225C67.0957 250.057 67.5997 249.973 68.2317 249.973H70.2477V250.801H68.2797C67.7037 250.801 67.3157 250.897 67.1157 251.089C66.9157 251.281 66.8157 251.513 66.8157 251.785C66.8157 252.097 66.9397 252.349 67.1877 252.541C67.4357 252.725 67.7797 252.817 68.2197 252.817C68.6517 252.817 69.0277 252.721 69.3477 252.529C69.6757 252.337 69.9117 252.057 70.0557 251.689L70.2837 252.481C70.1317 252.857 69.8637 253.157 69.4797 253.381C69.0957 253.597 68.6117 253.705 68.0277 253.705ZM76.1236 256.033C75.5396 256.033 74.9716 255.949 74.4196 255.781C73.8756 255.621 73.4316 255.389 73.0876 255.085L73.6396 254.197C73.9356 254.453 74.2996 254.653 74.7316 254.797C75.1636 254.949 75.6156 255.025 76.0876 255.025C76.8396 255.025 77.3916 254.849 77.7436 254.497C78.0956 254.145 78.2716 253.609 78.2716 252.889V251.545L78.3916 250.285L78.3316 249.013V247.273H79.4236V252.769C79.4236 253.889 79.1436 254.713 78.5836 255.241C78.0236 255.769 77.2036 256.033 76.1236 256.033ZM75.9796 253.369C75.3636 253.369 74.8116 253.241 74.3236 252.985C73.8436 252.721 73.4596 252.357 73.1716 251.893C72.8916 251.429 72.7516 250.893 72.7516 250.285C72.7516 249.669 72.8916 249.133 73.1716 248.677C73.4596 248.213 73.8436 247.853 74.3236 247.597C74.8116 247.341 75.3636 247.213 75.9796 247.213C76.5236 247.213 77.0196 247.325 77.4676 247.549C77.9156 247.765 78.2716 248.101 78.5356 248.557C78.8076 249.013 78.9436 249.589 78.9436 250.285C78.9436 250.973 78.8076 251.545 78.5356 252.001C78.2716 252.457 77.9156 252.801 77.4676 253.033C77.0196 253.257 76.5236 253.369 75.9796 253.369ZM76.1116 252.361C76.5356 252.361 76.9116 252.273 77.2396 252.097C77.5676 251.921 77.8236 251.677 78.0076 251.365C78.1996 251.053 78.2956 250.693 78.2956 250.285C78.2956 249.877 78.1996 249.517 78.0076 249.205C77.8236 248.893 77.5676 248.653 77.2396 248.485C76.9116 248.309 76.5356 248.221 76.1116 248.221C75.6876 248.221 75.3076 248.309 74.9716 248.485C74.6436 248.653 74.3836 248.893 74.1916 249.205C74.0076 249.517 73.9156 249.877 73.9156 250.285C73.9156 250.693 74.0076 251.053 74.1916 251.365C74.3836 251.677 74.6436 251.921 74.9716 252.097C75.3076 252.273 75.6876 252.361 76.1116 252.361ZM85.5727 253.633V252.289L85.5127 252.037V249.745C85.5127 249.257 85.3687 248.881 85.0807 248.617C84.8007 248.345 84.3767 248.209 83.8087 248.209C83.4327 248.209 83.0647 248.273 82.7047 248.401C82.3447 248.521 82.0407 248.685 81.7927 248.893L81.3127 248.029C81.6407 247.765 82.0327 247.565 82.4887 247.429C82.9527 247.285 83.4367 247.213 83.9407 247.213C84.8127 247.213 85.4847 247.425 85.9567 247.849C86.4287 248.273 86.6647 248.921 86.6647 249.793V253.633H85.5727ZM83.4847 253.705C83.0127 253.705 82.5967 253.625 82.2367 253.465C81.8847 253.305 81.6127 253.085 81.4207 252.805C81.2287 252.517 81.1327 252.193 81.1327 251.833C81.1327 251.489 81.2127 251.177 81.3727 250.897C81.5407 250.617 81.8087 250.393 82.1767 250.225C82.5527 250.057 83.0567 249.973 83.6887 249.973H85.7047V250.801H83.7367C83.1607 250.801 82.7727 250.897 82.5727 251.089C82.3727 251.281 82.2727 251.513 82.2727 251.785C82.2727 252.097 82.3967 252.349 82.6447 252.541C82.8927 252.725 83.2367 252.817 83.6767 252.817C84.1087 252.817 84.4847 252.721 84.8047 252.529C85.1327 252.337 85.3687 252.057 85.5127 251.689L85.7407 252.481C85.5887 252.857 85.3207 253.157 84.9367 253.381C84.5527 253.597 84.0687 253.705 83.4847 253.705ZM94.6472 253.705C94.0312 253.705 93.4792 253.569 92.9912 253.297C92.5112 253.025 92.1312 252.645 91.8512 252.157C91.5712 251.669 91.4312 251.101 91.4312 250.453C91.4312 249.805 91.5712 249.241 91.8512 248.761C92.1312 248.273 92.5112 247.893 92.9912 247.621C93.4792 247.349 94.0312 247.213 94.6472 247.213C95.1992 247.213 95.6912 247.333 96.1232 247.573C96.5552 247.813 96.8952 248.173 97.1432 248.653C97.3992 249.133 97.5272 249.733 97.5272 250.453C97.5272 251.173 97.3952 251.773 97.1312 252.253C96.8752 252.733 96.5312 253.097 96.0992 253.345C95.6672 253.585 95.1832 253.705 94.6472 253.705ZM94.7432 252.697C95.1432 252.697 95.5032 252.605 95.8232 252.421C96.1512 252.237 96.4072 251.977 96.5912 251.641C96.7832 251.297 96.8792 250.901 96.8792 250.453C96.8792 249.997 96.7832 249.605 96.5912 249.277C96.4072 248.941 96.1512 248.681 95.8232 248.497C95.5032 248.313 95.1432 248.221 94.7432 248.221C94.3352 248.221 93.9712 248.313 93.6512 248.497C93.3312 248.681 93.0752 248.941 92.8832 249.277C92.6912 249.605 92.5952 249.997 92.5952 250.453C92.5952 250.901 92.6912 251.297 92.8832 251.641C93.0752 251.977 93.3312 252.237 93.6512 252.421C93.9712 252.605 94.3352 252.697 94.7432 252.697ZM96.8672 255.961V251.941L96.9872 250.465L96.9152 248.989V247.273H98.0192V255.961H96.8672ZM102.923 253.705C102.283 253.705 101.715 253.565 101.219 253.285C100.723 253.005 100.331 252.621 100.043 252.133C99.7549 251.637 99.6109 251.077 99.6109 250.453C99.6109 249.821 99.7549 249.261 100.043 248.773C100.331 248.285 100.723 247.905 101.219 247.633C101.715 247.353 102.283 247.213 102.923 247.213C103.555 247.213 104.119 247.353 104.615 247.633C105.119 247.905 105.511 248.285 105.791 248.773C106.079 249.253 106.223 249.813 106.223 250.453C106.223 251.085 106.079 251.645 105.791 252.133C105.511 252.621 105.119 253.005 104.615 253.285C104.119 253.565 103.555 253.705 102.923 253.705ZM102.923 252.697C103.331 252.697 103.695 252.605 104.015 252.421C104.343 252.237 104.599 251.977 104.783 251.641C104.967 251.297 105.059 250.901 105.059 250.453C105.059 249.997 104.967 249.605 104.783 249.277C104.599 248.941 104.343 248.681 104.015 248.497C103.695 248.313 103.331 248.221 102.923 248.221C102.515 248.221 102.151 248.313 101.831 248.497C101.511 248.681 101.255 248.941 101.063 249.277C100.871 249.605 100.775 249.997 100.775 250.453C100.775 250.901 100.871 251.297 101.063 251.641C101.255 251.977 101.511 252.237 101.831 252.421C102.151 252.605 102.515 252.697 102.923 252.697ZM107.348 248.005L107.948 245.569L108.104 246.265C107.872 246.265 107.676 246.193 107.516 246.049C107.364 245.905 107.288 245.713 107.288 245.473C107.288 245.225 107.364 245.029 107.516 244.885C107.676 244.733 107.868 244.657 108.092 244.657C108.324 244.657 108.512 244.737 108.656 244.897C108.8 245.049 108.872 245.241 108.872 245.473C108.872 245.545 108.868 245.621 108.86 245.701C108.852 245.773 108.832 245.857 108.8 245.953C108.776 246.049 108.736 246.173 108.68 246.325L108.104 248.005H107.348ZM112.148 253.705C111.62 253.705 111.116 253.633 110.636 253.489C110.164 253.345 109.792 253.169 109.52 252.961L110 252.049C110.272 252.233 110.608 252.389 111.008 252.517C111.408 252.645 111.816 252.709 112.232 252.709C112.768 252.709 113.152 252.633 113.384 252.481C113.624 252.329 113.744 252.117 113.744 251.845C113.744 251.645 113.672 251.489 113.528 251.377C113.384 251.265 113.192 251.181 112.952 251.125C112.72 251.069 112.46 251.021 112.172 250.981C111.884 250.933 111.596 250.877 111.308 250.813C111.02 250.741 110.756 250.645 110.516 250.525C110.276 250.397 110.084 250.225 109.94 250.009C109.796 249.785 109.724 249.489 109.724 249.121C109.724 248.737 109.832 248.401 110.048 248.113C110.264 247.825 110.568 247.605 110.96 247.453C111.36 247.293 111.832 247.213 112.376 247.213C112.792 247.213 113.212 247.265 113.636 247.369C114.068 247.465 114.42 247.605 114.692 247.789L114.2 248.701C113.912 248.509 113.612 248.377 113.3 248.305C112.988 248.233 112.676 248.197 112.364 248.197C111.86 248.197 111.484 248.281 111.236 248.449C110.988 248.609 110.864 248.817 110.864 249.073C110.864 249.289 110.936 249.457 111.08 249.577C111.232 249.689 111.424 249.777 111.656 249.841C111.896 249.905 112.16 249.961 112.448 250.009C112.736 250.049 113.024 250.105 113.312 250.177C113.6 250.241 113.86 250.333 114.092 250.453C114.332 250.573 114.524 250.741 114.668 250.957C114.82 251.173 114.896 251.461 114.896 251.821C114.896 252.205 114.784 252.537 114.56 252.817C114.336 253.097 114.02 253.317 113.612 253.477C113.204 253.629 112.716 253.705 112.148 253.705ZM119.732 247.213C120.252 247.213 120.708 247.313 121.1 247.513C121.5 247.713 121.812 248.017 122.036 248.425C122.26 248.833 122.372 249.349 122.372 249.973V253.633H121.22V250.105C121.22 249.489 121.068 249.025 120.764 248.713C120.468 248.401 120.048 248.245 119.504 248.245C119.096 248.245 118.74 248.325 118.436 248.485C118.132 248.645 117.896 248.881 117.728 249.193C117.568 249.505 117.488 249.893 117.488 250.357V253.633H116.336V244.729H117.488V248.989L117.26 248.533C117.468 248.117 117.788 247.793 118.22 247.561C118.652 247.329 119.156 247.213 119.732 247.213ZM124.504 253.633V247.273H125.656V253.633H124.504ZM125.08 246.049C124.856 246.049 124.668 245.977 124.516 245.833C124.372 245.689 124.3 245.513 124.3 245.305C124.3 245.089 124.372 244.909 124.516 244.765C124.668 244.621 124.856 244.549 125.08 244.549C125.304 244.549 125.488 244.621 125.632 244.765C125.784 244.901 125.86 245.073 125.86 245.281C125.86 245.497 125.788 245.681 125.644 245.833C125.5 245.977 125.312 246.049 125.08 246.049ZM131.251 247.213C131.771 247.213 132.227 247.313 132.619 247.513C133.019 247.713 133.331 248.017 133.555 248.425C133.779 248.833 133.891 249.349 133.891 249.973V253.633H132.739V250.105C132.739 249.489 132.587 249.025 132.283 248.713C131.987 248.401 131.567 248.245 131.023 248.245C130.615 248.245 130.259 248.325 129.955 248.485C129.651 248.645 129.415 248.881 129.247 249.193C129.087 249.505 129.007 249.893 129.007 250.357V253.633H127.855V247.273H128.959V248.989L128.779 248.533C128.987 248.117 129.307 247.793 129.739 247.561C130.171 247.329 130.675 247.213 131.251 247.213ZM138.807 256.033C138.223 256.033 137.655 255.949 137.103 255.781C136.559 255.621 136.115 255.389 135.771 255.085L136.323 254.197C136.619 254.453 136.983 254.653 137.415 254.797C137.847 254.949 138.299 255.025 138.771 255.025C139.523 255.025 140.075 254.849 140.427 254.497C140.779 254.145 140.955 253.609 140.955 252.889V251.545L141.075 250.285L141.015 249.013V247.273H142.107V252.769C142.107 253.889 141.827 254.713 141.267 255.241C140.707 255.769 139.887 256.033 138.807 256.033ZM138.663 253.369C138.047 253.369 137.495 253.241 137.007 252.985C136.527 252.721 136.143 252.357 135.855 251.893C135.575 251.429 135.435 250.893 135.435 250.285C135.435 249.669 135.575 249.133 135.855 248.677C136.143 248.213 136.527 247.853 137.007 247.597C137.495 247.341 138.047 247.213 138.663 247.213C139.207 247.213 139.703 247.325 140.151 247.549C140.599 247.765 140.955 248.101 141.219 248.557C141.491 249.013 141.627 249.589 141.627 250.285C141.627 250.973 141.491 251.545 141.219 252.001C140.955 252.457 140.599 252.801 140.151 253.033C139.703 253.257 139.207 253.369 138.663 253.369ZM138.795 252.361C139.219 252.361 139.595 252.273 139.923 252.097C140.251 251.921 140.507 251.677 140.691 251.365C140.883 251.053 140.979 250.693 140.979 250.285C140.979 249.877 140.883 249.517 140.691 249.205C140.507 248.893 140.251 248.653 139.923 248.485C139.595 248.309 139.219 248.221 138.795 248.221C138.371 248.221 137.991 248.309 137.655 248.485C137.327 248.653 137.067 248.893 136.875 249.205C136.691 249.517 136.599 249.877 136.599 250.285C136.599 250.693 136.691 251.053 136.875 251.365C137.067 251.677 137.327 251.921 137.655 252.097C137.991 252.273 138.371 252.361 138.795 252.361ZM144.584 253.705C144.36 253.705 144.168 253.629 144.008 253.477C143.848 253.317 143.768 253.117 143.768 252.877C143.768 252.637 143.848 252.441 144.008 252.289C144.168 252.137 144.36 252.061 144.584 252.061C144.8 252.061 144.984 252.137 145.136 252.289C145.296 252.441 145.376 252.637 145.376 252.877C145.376 253.117 145.296 253.317 145.136 253.477C144.984 253.629 144.8 253.705 144.584 253.705ZM156.442 245.233H157.642V253.633H156.442V245.233ZM151.618 253.633H150.418V245.233H151.618V253.633ZM156.55 249.889H151.498V248.845H156.55V249.889ZM163.936 253.633V252.289L163.876 252.037V249.745C163.876 249.257 163.732 248.881 163.444 248.617C163.164 248.345 162.74 248.209 162.172 248.209C161.796 248.209 161.428 248.273 161.068 248.401C160.708 248.521 160.404 248.685 160.156 248.893L159.676 248.029C160.004 247.765 160.396 247.565 160.852 247.429C161.316 247.285 161.8 247.213 162.304 247.213C163.176 247.213 163.848 247.425 164.32 247.849C164.792 248.273 165.028 248.921 165.028 249.793V253.633H163.936ZM161.848 253.705C161.376 253.705 160.96 253.625 160.6 253.465C160.248 253.305 159.976 253.085 159.784 252.805C159.592 252.517 159.496 252.193 159.496 251.833C159.496 251.489 159.576 251.177 159.736 250.897C159.904 250.617 160.172 250.393 160.54 250.225C160.916 250.057 161.42 249.973 162.052 249.973H164.068V250.801H162.1C161.524 250.801 161.136 250.897 160.936 251.089C160.736 251.281 160.636 251.513 160.636 251.785C160.636 252.097 160.76 252.349 161.008 252.541C161.256 252.725 161.6 252.817 162.04 252.817C162.472 252.817 162.848 252.721 163.168 252.529C163.496 252.337 163.732 252.057 163.876 251.689L164.104 252.481C163.952 252.857 163.684 253.157 163.3 253.381C162.916 253.597 162.432 253.705 161.848 253.705ZM167.16 253.633V247.273H168.264V249.001L168.156 248.569C168.332 248.129 168.628 247.793 169.044 247.561C169.46 247.329 169.972 247.213 170.58 247.213V248.329C170.532 248.321 170.484 248.317 170.436 248.317C170.396 248.317 170.356 248.317 170.316 248.317C169.7 248.317 169.212 248.501 168.852 248.869C168.492 249.237 168.312 249.769 168.312 250.465V253.633H167.16ZM172 253.633V247.273H173.152V253.633H172ZM172.576 246.049C172.352 246.049 172.164 245.977 172.012 245.833C171.868 245.689 171.796 245.513 171.796 245.305C171.796 245.089 171.868 244.909 172.012 244.765C172.164 244.621 172.352 244.549 172.576 244.549C172.8 244.549 172.984 244.621 173.128 244.765C173.28 244.901 173.356 245.073 173.356 245.281C173.356 245.497 173.284 245.681 173.14 245.833C172.996 245.977 172.808 246.049 172.576 246.049ZM177.979 253.705C177.363 253.705 176.811 253.569 176.323 253.297C175.843 253.025 175.463 252.645 175.183 252.157C174.903 251.669 174.763 251.101 174.763 250.453C174.763 249.805 174.903 249.241 175.183 248.761C175.463 248.273 175.843 247.893 176.323 247.621C176.811 247.349 177.363 247.213 177.979 247.213C178.515 247.213 178.999 247.333 179.431 247.573C179.863 247.813 180.207 248.173 180.463 248.653C180.727 249.133 180.859 249.733 180.859 250.453C180.859 251.173 180.731 251.773 180.475 252.253C180.227 252.733 179.887 253.097 179.455 253.345C179.023 253.585 178.531 253.705 177.979 253.705ZM178.075 252.697C178.475 252.697 178.835 252.605 179.155 252.421C179.483 252.237 179.739 251.977 179.923 251.641C180.115 251.297 180.211 250.901 180.211 250.453C180.211 249.997 180.115 249.605 179.923 249.277C179.739 248.941 179.483 248.681 179.155 248.497C178.835 248.313 178.475 248.221 178.075 248.221C177.667 248.221 177.303 248.313 176.983 248.497C176.663 248.681 176.407 248.941 176.215 249.277C176.023 249.605 175.927 249.997 175.927 250.453C175.927 250.901 176.023 251.297 176.215 251.641C176.407 251.977 176.663 252.237 176.983 252.421C177.303 252.605 177.667 252.697 178.075 252.697ZM180.247 253.633V251.917L180.319 250.441L180.199 248.965V244.729H181.351V253.633H180.247ZM183.531 253.633V244.729H184.683V253.633H183.531ZM190.831 253.633V252.289L190.771 252.037V249.745C190.771 249.257 190.627 248.881 190.339 248.617C190.059 248.345 189.635 248.209 189.067 248.209C188.691 248.209 188.323 248.273 187.963 248.401C187.603 248.521 187.299 248.685 187.051 248.893L186.571 248.029C186.899 247.765 187.291 247.565 187.747 247.429C188.211 247.285 188.695 247.213 189.199 247.213C190.071 247.213 190.743 247.425 191.215 247.849C191.687 248.273 191.923 248.921 191.923 249.793V253.633H190.831ZM188.743 253.705C188.271 253.705 187.855 253.625 187.495 253.465C187.143 253.305 186.871 253.085 186.679 252.805C186.487 252.517 186.391 252.193 186.391 251.833C186.391 251.489 186.471 251.177 186.631 250.897C186.799 250.617 187.067 250.393 187.435 250.225C187.811 250.057 188.315 249.973 188.947 249.973H190.963V250.801H188.995C188.419 250.801 188.031 250.897 187.831 251.089C187.631 251.281 187.531 251.513 187.531 251.785C187.531 252.097 187.655 252.349 187.903 252.541C188.151 252.725 188.495 252.817 188.935 252.817C189.367 252.817 189.743 252.721 190.063 252.529C190.391 252.337 190.627 252.057 190.771 251.689L190.999 252.481C190.847 252.857 190.579 253.157 190.195 253.381C189.811 253.597 189.327 253.705 188.743 253.705ZM194.054 253.633V247.273H195.158V249.001L195.05 248.569C195.226 248.129 195.522 247.793 195.938 247.561C196.354 247.329 196.866 247.213 197.474 247.213V248.329C197.426 248.321 197.378 248.317 197.33 248.317C197.29 248.317 197.25 248.317 197.21 248.317C196.594 248.317 196.106 248.501 195.746 248.869C195.386 249.237 195.206 249.769 195.206 250.465V253.633H194.054ZM201.464 253.705C200.848 253.705 200.296 253.569 199.808 253.297C199.328 253.025 198.948 252.645 198.668 252.157C198.388 251.669 198.248 251.101 198.248 250.453C198.248 249.805 198.388 249.241 198.668 248.761C198.948 248.273 199.328 247.893 199.808 247.621C200.296 247.349 200.848 247.213 201.464 247.213C202 247.213 202.484 247.333 202.916 247.573C203.348 247.813 203.692 248.173 203.948 248.653C204.212 249.133 204.344 249.733 204.344 250.453C204.344 251.173 204.216 251.773 203.96 252.253C203.712 252.733 203.372 253.097 202.94 253.345C202.508 253.585 202.016 253.705 201.464 253.705ZM201.56 252.697C201.96 252.697 202.32 252.605 202.64 252.421C202.968 252.237 203.224 251.977 203.408 251.641C203.6 251.297 203.696 250.901 203.696 250.453C203.696 249.997 203.6 249.605 203.408 249.277C203.224 248.941 202.968 248.681 202.64 248.497C202.32 248.313 201.96 248.221 201.56 248.221C201.152 248.221 200.788 248.313 200.468 248.497C200.148 248.681 199.892 248.941 199.7 249.277C199.508 249.605 199.412 249.997 199.412 250.453C199.412 250.901 199.508 251.297 199.7 251.641C199.892 251.977 200.148 252.237 200.468 252.421C200.788 252.605 201.152 252.697 201.56 252.697ZM203.732 253.633V251.917L203.804 250.441L203.684 248.965V244.729H204.836V253.633H203.732ZM210.963 253.633V252.289L210.903 252.037V249.745C210.903 249.257 210.759 248.881 210.471 248.617C210.191 248.345 209.767 248.209 209.199 248.209C208.823 248.209 208.455 248.273 208.095 248.401C207.735 248.521 207.431 248.685 207.183 248.893L206.703 248.029C207.031 247.765 207.423 247.565 207.879 247.429C208.343 247.285 208.827 247.213 209.331 247.213C210.203 247.213 210.875 247.425 211.347 247.849C211.819 248.273 212.055 248.921 212.055 249.793V253.633H210.963ZM208.875 253.705C208.403 253.705 207.987 253.625 207.627 253.465C207.275 253.305 207.003 253.085 206.811 252.805C206.619 252.517 206.523 252.193 206.523 251.833C206.523 251.489 206.603 251.177 206.763 250.897C206.931 250.617 207.199 250.393 207.567 250.225C207.943 250.057 208.447 249.973 209.079 249.973H211.095V250.801H209.127C208.551 250.801 208.163 250.897 207.963 251.089C207.763 251.281 207.663 251.513 207.663 251.785C207.663 252.097 207.787 252.349 208.035 252.541C208.283 252.725 208.627 252.817 209.067 252.817C209.499 252.817 209.875 252.721 210.195 252.529C210.523 252.337 210.759 252.057 210.903 251.689L211.131 252.481C210.979 252.857 210.711 253.157 210.327 253.381C209.943 253.597 209.459 253.705 208.875 253.705ZM220.038 253.705C219.422 253.705 218.87 253.569 218.382 253.297C217.902 253.025 217.522 252.645 217.242 252.157C216.962 251.669 216.822 251.101 216.822 250.453C216.822 249.805 216.962 249.241 217.242 248.761C217.522 248.273 217.902 247.893 218.382 247.621C218.87 247.349 219.422 247.213 220.038 247.213C220.574 247.213 221.058 247.333 221.49 247.573C221.922 247.813 222.266 248.173 222.522 248.653C222.786 249.133 222.918 249.733 222.918 250.453C222.918 251.173 222.79 251.773 222.534 252.253C222.286 252.733 221.946 253.097 221.514 253.345C221.082 253.585 220.59 253.705 220.038 253.705ZM220.134 252.697C220.534 252.697 220.894 252.605 221.214 252.421C221.542 252.237 221.798 251.977 221.982 251.641C222.174 251.297 222.27 250.901 222.27 250.453C222.27 249.997 222.174 249.605 221.982 249.277C221.798 248.941 221.542 248.681 221.214 248.497C220.894 248.313 220.534 248.221 220.134 248.221C219.726 248.221 219.362 248.313 219.042 248.497C218.722 248.681 218.466 248.941 218.274 249.277C218.082 249.605 217.986 249.997 217.986 250.453C217.986 250.901 218.082 251.297 218.274 251.641C218.466 251.977 218.722 252.237 219.042 252.421C219.362 252.605 219.726 252.697 220.134 252.697ZM222.306 253.633V251.917L222.378 250.441L222.258 248.965V244.729H223.41V253.633H222.306ZM229.538 253.633V252.289L229.478 252.037V249.745C229.478 249.257 229.334 248.881 229.046 248.617C228.766 248.345 228.342 248.209 227.774 248.209C227.398 248.209 227.03 248.273 226.67 248.401C226.31 248.521 226.006 248.685 225.758 248.893L225.278 248.029C225.606 247.765 225.998 247.565 226.454 247.429C226.918 247.285 227.402 247.213 227.906 247.213C228.778 247.213 229.45 247.425 229.922 247.849C230.394 248.273 230.63 248.921 230.63 249.793V253.633H229.538ZM227.45 253.705C226.978 253.705 226.562 253.625 226.202 253.465C225.85 253.305 225.578 253.085 225.386 252.805C225.194 252.517 225.098 252.193 225.098 251.833C225.098 251.489 225.178 251.177 225.338 250.897C225.506 250.617 225.774 250.393 226.142 250.225C226.518 250.057 227.022 249.973 227.654 249.973H229.67V250.801H227.702C227.126 250.801 226.738 250.897 226.538 251.089C226.338 251.281 226.238 251.513 226.238 251.785C226.238 252.097 226.362 252.349 226.61 252.541C226.858 252.725 227.202 252.817 227.642 252.817C228.074 252.817 228.45 252.721 228.77 252.529C229.098 252.337 229.334 252.057 229.478 251.689L229.706 252.481C229.554 252.857 229.286 253.157 228.902 253.381C228.518 253.597 228.034 253.705 227.45 253.705ZM234.312 253.633L231.528 247.273H232.728L235.2 253.033H234.624L237.144 247.273H238.272L235.488 253.633H234.312ZM241.896 253.705C241.256 253.705 240.688 253.565 240.192 253.285C239.696 253.005 239.304 252.621 239.016 252.133C238.728 251.637 238.584 251.077 238.584 250.453C238.584 249.821 238.728 249.261 239.016 248.773C239.304 248.285 239.696 247.905 240.192 247.633C240.688 247.353 241.256 247.213 241.896 247.213C242.528 247.213 243.092 247.353 243.588 247.633C244.092 247.905 244.484 248.285 244.764 248.773C245.052 249.253 245.196 249.813 245.196 250.453C245.196 251.085 245.052 251.645 244.764 252.133C244.484 252.621 244.092 253.005 243.588 253.285C243.092 253.565 242.528 253.705 241.896 253.705ZM241.896 252.697C242.304 252.697 242.668 252.605 242.988 252.421C243.316 252.237 243.572 251.977 243.756 251.641C243.94 251.297 244.032 250.901 244.032 250.453C244.032 249.997 243.94 249.605 243.756 249.277C243.572 248.941 243.316 248.681 242.988 248.497C242.668 248.313 242.304 248.221 241.896 248.221C241.488 248.221 241.124 248.313 240.804 248.497C240.484 248.681 240.228 248.941 240.036 249.277C239.844 249.605 239.748 249.997 239.748 250.453C239.748 250.901 239.844 251.297 240.036 251.641C240.228 251.977 240.484 252.237 240.804 252.421C241.124 252.605 241.488 252.697 241.896 252.697ZM254.745 247.213C255.257 247.213 255.709 247.313 256.101 247.513C256.493 247.713 256.797 248.017 257.013 248.425C257.237 248.833 257.349 249.349 257.349 249.973V253.633H256.197V250.105C256.197 249.489 256.053 249.025 255.765 248.713C255.477 248.401 255.073 248.245 254.553 248.245C254.169 248.245 253.833 248.325 253.545 248.485C253.257 248.645 253.033 248.881 252.873 249.193C252.721 249.505 252.645 249.893 252.645 250.357V253.633H251.493V250.105C251.493 249.489 251.349 249.025 251.061 248.713C250.781 248.401 250.377 248.245 249.849 248.245C249.473 248.245 249.141 248.325 248.853 248.485C248.565 248.645 248.341 248.881 248.181 249.193C248.021 249.505 247.941 249.893 247.941 250.357V253.633H246.789V247.273H247.893V248.965L247.713 248.533C247.913 248.117 248.221 247.793 248.637 247.561C249.053 247.329 249.537 247.213 250.089 247.213C250.697 247.213 251.221 247.365 251.661 247.669C252.101 247.965 252.389 248.417 252.525 249.025L252.057 248.833C252.249 248.345 252.585 247.953 253.065 247.657C253.545 247.361 254.105 247.213 254.745 247.213ZM265.523 253.705C264.843 253.705 264.243 253.565 263.723 253.285C263.211 253.005 262.811 252.621 262.523 252.133C262.243 251.645 262.103 251.085 262.103 250.453C262.103 249.821 262.239 249.261 262.511 248.773C262.791 248.285 263.171 247.905 263.651 247.633C264.139 247.353 264.687 247.213 265.295 247.213C265.911 247.213 266.455 247.349 266.927 247.621C267.399 247.893 267.767 248.277 268.031 248.773C268.303 249.261 268.439 249.833 268.439 250.489C268.439 250.537 268.435 250.593 268.427 250.657C268.427 250.721 268.423 250.781 268.415 250.837H263.003V250.009H267.815L267.347 250.297C267.355 249.889 267.271 249.525 267.095 249.205C266.919 248.885 266.675 248.637 266.363 248.461C266.059 248.277 265.703 248.185 265.295 248.185C264.895 248.185 264.539 248.277 264.227 248.461C263.915 248.637 263.671 248.889 263.495 249.217C263.319 249.537 263.231 249.905 263.231 250.321V250.513C263.231 250.937 263.327 251.317 263.519 251.653C263.719 251.981 263.995 252.237 264.347 252.421C264.699 252.605 265.103 252.697 265.559 252.697C265.935 252.697 266.275 252.633 266.579 252.505C266.891 252.377 267.163 252.185 267.395 251.929L268.031 252.673C267.743 253.009 267.383 253.265 266.951 253.441C266.527 253.617 266.051 253.705 265.523 253.705ZM272.223 253.705C271.583 253.705 271.087 253.533 270.735 253.189C270.383 252.845 270.207 252.353 270.207 251.713V245.881H271.359V251.665C271.359 252.009 271.443 252.273 271.611 252.457C271.787 252.641 272.035 252.733 272.355 252.733C272.715 252.733 273.015 252.633 273.255 252.433L273.615 253.261C273.439 253.413 273.227 253.525 272.979 253.597C272.739 253.669 272.487 253.705 272.223 253.705ZM269.127 248.221V247.273H273.183V248.221H269.127ZM275.008 253.633V247.273H276.16V253.633H275.008ZM275.584 246.049C275.36 246.049 275.172 245.977 275.02 245.833C274.876 245.689 274.804 245.513 274.804 245.305C274.804 245.089 274.876 244.909 275.02 244.765C275.172 244.621 275.36 244.549 275.584 244.549C275.808 244.549 275.992 244.621 276.136 244.765C276.288 244.901 276.364 245.073 276.364 245.281C276.364 245.497 276.292 245.681 276.148 245.833C276.004 245.977 275.816 246.049 275.584 246.049ZM281.755 247.213C282.275 247.213 282.731 247.313 283.123 247.513C283.523 247.713 283.835 248.017 284.059 248.425C284.283 248.833 284.395 249.349 284.395 249.973V253.633H283.243V250.105C283.243 249.489 283.091 249.025 282.787 248.713C282.491 248.401 282.071 248.245 281.527 248.245C281.119 248.245 280.763 248.325 280.459 248.485C280.155 248.645 279.919 248.881 279.751 249.193C279.591 249.505 279.511 249.893 279.511 250.357V253.633H278.359V247.273H279.463V248.989L279.283 248.533C279.491 248.117 279.811 247.793 280.243 247.561C280.675 247.329 281.179 247.213 281.755 247.213ZM289.311 256.033C288.727 256.033 288.159 255.949 287.607 255.781C287.063 255.621 286.619 255.389 286.275 255.085L286.827 254.197C287.123 254.453 287.487 254.653 287.919 254.797C288.351 254.949 288.803 255.025 289.275 255.025C290.027 255.025 290.579 254.849 290.931 254.497C291.283 254.145 291.459 253.609 291.459 252.889V251.545L291.579 250.285L291.519 249.013V247.273H292.611V252.769C292.611 253.889 292.331 254.713 291.771 255.241C291.211 255.769 290.391 256.033 289.311 256.033ZM289.167 253.369C288.551 253.369 287.999 253.241 287.511 252.985C287.031 252.721 286.647 252.357 286.359 251.893C286.079 251.429 285.939 250.893 285.939 250.285C285.939 249.669 286.079 249.133 286.359 248.677C286.647 248.213 287.031 247.853 287.511 247.597C287.999 247.341 288.551 247.213 289.167 247.213C289.711 247.213 290.207 247.325 290.655 247.549C291.103 247.765 291.459 248.101 291.723 248.557C291.995 249.013 292.131 249.589 292.131 250.285C292.131 250.973 291.995 251.545 291.723 252.001C291.459 252.457 291.103 252.801 290.655 253.033C290.207 253.257 289.711 253.369 289.167 253.369ZM289.299 252.361C289.723 252.361 290.099 252.273 290.427 252.097C290.755 251.921 291.011 251.677 291.195 251.365C291.387 251.053 291.483 250.693 291.483 250.285C291.483 249.877 291.387 249.517 291.195 249.205C291.011 248.893 290.755 248.653 290.427 248.485C290.099 248.309 289.723 248.221 289.299 248.221C288.875 248.221 288.495 248.309 288.159 248.485C287.831 248.653 287.571 248.893 287.379 249.205C287.195 249.517 287.103 249.877 287.103 250.285C287.103 250.693 287.195 251.053 287.379 251.365C287.571 251.677 287.831 251.921 288.159 252.097C288.495 252.273 288.875 252.361 289.299 252.361Z" fill="#B4B4B4"/>
<defs>
<filter id="filter0_f_853_6820" x="81.395" y="121.49" width="135.281" height="47.4056" filterUnits="userSpaceOnUse" color-interpolation-filters="sRGB">
<feFlood flood-opacity="0" result="BackgroundImageFix"/>
<feBlend mode="normal" in="SourceGraphic" in2="BackgroundImageFix" result="shape"/>
<feGaussianBlur stdDeviation="9.49108" result="effect1_foregroundBlur_853_6820"/>
</filter>
<filter id="filter1_d_853_6820" x="192.985" y="119.241" width="40.1822" height="40.2514" filterUnits="userSpaceOnUse" color-interpolation-filters="sRGB">
<feFlood flood-opacity="0" result="BackgroundImageFix"/>
<feColorMatrix in="SourceAlpha" type="matrix" values="0 0 0 0 0 0 0 0 0 0 0 0 0 0 0 0 0 0 127 0" result="hardAlpha"/>
<feOffset dy="1.56962"/>
<feGaussianBlur stdDeviation="3.13924"/>
<feColorMatrix type="matrix" values="0 0 0 0 1 0 0 0 0 0.415686 0 0 0 0 0.596078 0 0 0 0.3 0"/>
<feBlend mode="normal" in2="BackgroundImageFix" result="effect1_dropShadow_853_6820"/>
<feBlend mode="normal" in="SourceGraphic" in2="effect1_dropShadow_853_6820" result="shape"/>
</filter>
</defs>
</svg>
