<svg width="20" height="20" viewBox="0 0 20 20" fill="none" xmlns="http://www.w3.org/2000/svg">
<path d="M9.58333 10.2032C12.1146 10.2032 14.1667 8.15121 14.1667 5.61991C14.1667 3.0886 12.1146 1.03658 9.58333 1.03658C7.05203 1.03658 5 3.0886 5 5.61991C5 8.15121 7.05203 10.2032 9.58333 10.2032Z" fill="#10355B"/>
<path fill-rule="evenodd" clip-rule="evenodd" d="M10.7707 18.1299C9.90484 17.1999 9.37484 15.9532 9.37484 14.5832C9.37484 13.1807 9.93067 11.9066 10.834 10.9699C10.4257 10.9382 10.0082 10.9216 9.58317 10.9216C6.81484 10.9216 4.364 11.6141 2.84234 12.6516C1.6815 13.4432 1.0415 14.4491 1.0415 15.5049V16.7132C1.0415 17.0891 1.19067 17.4499 1.4565 17.7149C1.72234 17.9807 2.08234 18.1299 2.45817 18.1299H10.7707Z" fill="#10355B"/>
<path fill-rule="evenodd" clip-rule="evenodd" d="M14.583 10.2083C12.168 10.2083 10.208 12.1683 10.208 14.5833C10.208 16.9983 12.168 18.9583 14.583 18.9583C16.998 18.9583 18.958 16.9983 18.958 14.5833C18.958 12.1683 16.998 10.2083 14.583 10.2083ZM13.958 14.5833V16.6666C13.958 17.0116 14.238 17.2916 14.583 17.2916C14.928 17.2916 15.208 17.0116 15.208 16.6666V14.5833C15.208 14.2383 14.928 13.9583 14.583 13.9583C14.238 13.9583 13.958 14.2383 13.958 14.5833ZM14.583 11.8749C15.043 11.8749 15.4163 12.2483 15.4163 12.7083C15.4163 13.1683 15.043 13.5416 14.583 13.5416C14.123 13.5416 13.7497 13.1683 13.7497 12.7083C13.7497 12.2483 14.123 11.8749 14.583 11.8749Z" fill="#10355B"/>
</svg>
