<svg width="20" height="20" viewBox="0 0 20 20" fill="none" xmlns="http://www.w3.org/2000/svg">
<path d="M9.85547 1H10.1445C10.3778 1 10.6029 1.08132 10.7812 1.22852L10.8545 1.2959L18.71 9.21094C18.8957 9.39822 19 9.65128 19 9.91504V18C19 18.5523 18.5523 19 18 19H13.7295C13.1772 19 12.7295 18.5523 12.7295 18V14.2314C12.7295 13.4073 12.3673 12.6276 11.7441 12.0967L11.6152 11.9941C10.6773 11.2855 9.40544 11.2411 8.42578 11.8613L8.23438 11.9941C7.53298 12.5242 7.12014 13.3523 7.12012 14.2314V18C7.12012 18.5523 6.6724 19 6.12012 19H2C1.44772 19 1 18.5523 1 18V9.91504C1 9.68419 1.08019 9.46171 1.22461 9.28418L1.29004 9.21094L9.14551 1.2959C9.33326 1.10673 9.58894 1 9.85547 1Z" stroke="#969B9F" stroke-width="2"/>
</svg>
