<svg width="26" height="21" viewBox="0 0 26 21" fill="none" xmlns="http://www.w3.org/2000/svg">
<path d="M8.78807 0.0172043C8.64823 0.0529079 8.556 0.0975361 8.46972 0.171919C8.42806 0.210596 7.41052 1.47211 6.21149 2.9776C3.59027 6.26527 2.96547 7.05074 2.95654 7.06264C2.95357 7.06562 2.37636 7.07157 1.6742 7.07752C0.240122 7.08347 0.299627 7.07454 0.103259 7.31554C0.0169766 7.42265 0.0110261 7.44943 0.00210025 7.71125C-0.0127761 8.0534 0.0497045 8.21407 0.243097 8.34201C0.350207 8.41341 0.397811 8.42234 0.656659 8.43126C0.817324 8.43721 0.948236 8.44912 0.948236 8.46102C0.948236 8.55027 3.46829 18.4877 3.51887 18.5978C3.70036 18.9964 4.08119 19.5141 4.43823 19.8533C4.99163 20.3799 5.65511 20.7161 6.42868 20.8649C6.68753 20.9155 7.08324 20.9185 12.9981 20.9185C19.9364 20.9185 19.4693 20.9304 20.0822 20.737C20.9272 20.4722 21.6531 19.9099 22.1946 19.1095C22.5338 18.6037 22.4743 18.815 23.7477 13.6737C24.3963 11.0644 24.9497 8.8121 24.9795 8.66631L25.033 8.40746H25.2562C25.5359 8.40746 25.6757 8.36878 25.8066 8.25572C25.9316 8.14266 25.9613 8.0534 25.9821 7.67257L26 7.36909L25.9078 7.26198C25.7501 7.08347 25.6876 7.07454 24.3219 7.07157C23.6525 7.07157 23.0961 7.06264 23.0872 7.05074C23.0783 7.04181 21.8495 5.48575 20.3619 3.59348C17.3598 -0.214867 17.5621 0.0142288 17.2081 0.0142288C17.0147 0.0142288 16.9254 0.0588589 16.6606 0.284979C16.4137 0.496223 16.3423 0.644985 16.3691 0.883007C16.381 0.966314 16.4137 1.07937 16.4434 1.13293C16.497 1.21921 17.1456 2.04336 20.1952 5.90229C20.6921 6.53007 21.0849 7.05371 21.073 7.06264C21.0581 7.07454 17.4312 7.07752 13.013 7.06859L4.97675 7.05371L7.30638 4.1082C8.95468 2.02254 9.64792 1.124 9.68065 1.03177C9.78181 0.734243 9.72528 0.537876 9.46345 0.293903C9.19568 0.0410061 9.00229 -0.0393257 8.78807 0.0172043ZM7.02373 10.3503C7.16952 10.4098 7.33316 10.5645 7.42837 10.7252L7.5087 10.8621V14.3729V17.8837L7.44027 18.0176C7.34804 18.1901 7.27068 18.2735 7.11002 18.3687C6.9315 18.4728 6.52389 18.4996 6.31264 18.4192C6.12818 18.3478 5.93776 18.1693 5.8604 17.9908C5.79792 17.845 5.79792 17.8331 5.79792 14.3788C5.79792 11.9689 5.80685 10.8888 5.82768 10.8293C5.91693 10.5943 6.1252 10.4009 6.36917 10.3265C6.52686 10.2789 6.88092 10.2908 7.02373 10.3503ZM10.2817 10.389C10.4572 10.4723 10.5673 10.5913 10.6595 10.7877C10.722 10.9216 10.722 10.9335 10.722 14.3878V17.8539L10.6595 17.9878C10.5732 18.1663 10.4274 18.3092 10.237 18.3984C10.1002 18.4609 10.0466 18.4668 9.82049 18.4579C9.44263 18.443 9.22543 18.3151 9.06477 18.0087L8.99634 17.8837V14.3878V10.8918L9.06774 10.7579C9.19271 10.514 9.3861 10.3622 9.63602 10.3087C9.81156 10.27 10.1121 10.3057 10.2817 10.389ZM13.4592 10.3682C13.6199 10.4425 13.7657 10.5913 13.849 10.7728L13.9204 10.9216V14.3907V17.8569L13.8431 18.0116C13.7568 18.1872 13.605 18.33 13.4206 18.4133C13.3105 18.4609 13.2391 18.4698 13.013 18.4579C12.769 18.449 12.7184 18.4371 12.5934 18.3568C12.4238 18.2526 12.2691 18.0622 12.2245 17.9045C12.2067 17.8331 12.1948 16.6341 12.1948 14.358C12.1948 10.9662 12.1977 10.9186 12.2572 10.7877C12.3643 10.5497 12.5875 10.3622 12.8255 10.3116C13.001 10.2759 13.3135 10.3027 13.4592 10.3682ZM16.6487 10.389C16.8243 10.4723 16.9344 10.5913 17.0266 10.7877C17.0891 10.9216 17.0891 10.9335 17.0891 14.3878C17.0891 17.8391 17.0891 17.8539 17.0266 17.9878C16.9463 18.1634 16.8005 18.3062 16.613 18.3925C16.494 18.449 16.4167 18.4639 16.2262 18.4609C15.9555 18.4579 15.8543 18.4282 15.6669 18.2973C15.5747 18.2318 15.5092 18.1485 15.4497 18.0295L15.3634 17.8539V14.3729V10.8918L15.4348 10.7579C15.5598 10.514 15.7532 10.3622 16.0031 10.3087C16.1786 10.27 16.4791 10.3057 16.6487 10.389ZM19.8263 10.3682C19.9721 10.4336 20.1417 10.6002 20.2191 10.752C20.2696 10.8561 20.2726 11.0376 20.2815 14.352L20.2875 17.842L20.225 17.9878C20.1536 18.1574 19.981 18.324 19.7995 18.4073C19.7103 18.446 19.6061 18.4639 19.4217 18.4639C19.2075 18.4639 19.145 18.452 19.0141 18.3865C18.9278 18.3449 18.8118 18.2556 18.7552 18.1901C18.5499 17.9462 18.5589 18.1693 18.5678 14.3253L18.5767 10.8621L18.6422 10.743C18.6987 10.6359 18.8177 10.508 18.9575 10.4009C19.1242 10.2759 19.5794 10.2581 19.8263 10.3682Z" fill="#10355B"/>
</svg>
