<svg width="24" height="24" viewBox="0 0 24 24" fill="none" xmlns="http://www.w3.org/2000/svg">
<g clip-path="url(#clip0_853_4134)">
<path d="M12 0C5.36756 0 0 5.36705 0 12C0 18.6325 5.36705 24 12 24C18.6324 24 24 18.633 24 12C24 5.36752 18.633 0 12 0ZM12 22.125C6.40387 22.125 1.875 17.5965 1.875 12C1.875 6.40383 6.40345 1.875 12 1.875C17.5961 1.875 22.125 6.40345 22.125 12C22.125 17.5962 17.5965 22.125 12 22.125Z" fill="#E31E25"/>
<path d="M16.1059 14.7797L13.3262 12L16.1059 9.22017C16.472 8.85408 16.4721 8.2605 16.106 7.89436C15.7398 7.52822 15.1462 7.52826 14.7802 7.89436L12.0003 10.6741L9.22051 7.89436C8.85447 7.52822 8.26079 7.52822 7.8947 7.89436C7.52861 8.2605 7.52861 8.85408 7.89475 9.22017L10.6745 12L7.89475 14.7797C7.52861 15.1459 7.52856 15.7394 7.8947 16.1055C8.26093 16.4717 8.85451 16.4716 9.22051 16.1055L12.0003 13.3258L14.7802 16.1055C15.1462 16.4716 15.7398 16.4717 16.106 16.1055C16.4721 15.7394 16.4721 15.1458 16.1059 14.7797Z" fill="#E31E25"/>
</g>
<defs>
<clipPath id="clip0_853_4134">
<rect width="24" height="24" fill="white"/>
</clipPath>
</defs>
</svg>
