<svg width="24" height="24" viewBox="0 0 24 24" fill="none" xmlns="http://www.w3.org/2000/svg">
<circle cx="12" cy="12" r="12" fill="white"/>
<path fill-rule="evenodd" clip-rule="evenodd" d="M6.38305 12.7125L9.80063 15.851C10.2991 16.3099 11.0708 16.2855 11.5396 15.8021L17.6366 9.96453C18.1325 9.48767 18.1476 8.6987 17.6705 8.20252C17.1935 7.70711 16.4049 7.69158 15.909 8.16844L10.6278 13.2249L8.0714 10.8775C7.56494 10.4115 6.7759 10.4442 6.30964 10.9511C5.84348 11.4576 5.87634 12.2461 6.38305 12.7125ZM12 0C18.6275 0 24 5.37248 24 12C24 18.6275 18.6275 24 12 24C5.37248 24 0 18.6275 0 12C0 5.37248 5.37248 0 12 0Z" fill="#10355B"/>
</svg>
