<svg width="16" height="20" viewBox="0 0 16 20" fill="none" xmlns="http://www.w3.org/2000/svg">
<path d="M15.3094 5.18479C15.3001 4.65508 15.2913 4.15468 15.2913 3.67057C15.2913 3.2913 15.0104 2.98383 14.6635 2.98383C11.9782 2.98383 9.93379 2.13977 8.22967 0.32751C7.98588 0.0681898 7.59793 0.0682878 7.35421 0.32751C5.65026 2.13977 3.60614 2.98383 0.921083 2.98383C0.574331 2.98383 0.293208 3.2913 0.293208 3.67057C0.293208 4.15476 0.2845 4.65536 0.275213 5.18515C0.189151 10.1147 0.0712736 16.8659 7.58627 19.715C7.65296 19.7402 7.72243 19.7529 7.7919 19.7529C7.86137 19.7529 7.931 19.7402 7.99754 19.715C15.5131 16.8658 15.3955 10.1144 15.3094 5.18479ZM7.79198 18.3373C1.34687 15.7765 1.44432 10.1667 1.5308 5.21134C1.53599 4.91394 1.54101 4.62568 1.54453 4.34311C4.05939 4.22701 6.07041 3.39349 7.79198 1.75318C9.51372 3.39349 11.5251 4.2271 14.0402 4.34311C14.0437 4.6256 14.0487 4.91366 14.0539 5.21088C14.1403 10.1665 14.2376 15.7764 7.79198 18.3373Z" fill="#7D7D7D"/>
<path d="M9.95407 7.55742L6.92359 10.8719L5.6304 9.45745C5.3852 9.18928 4.98762 9.18928 4.7425 9.45745C4.49729 9.72571 4.49729 10.1605 4.7425 10.4286L6.47962 12.3286C6.60217 12.4627 6.76296 12.5297 6.92359 12.5297C7.08421 12.5297 7.245 12.4627 7.36755 12.3286L10.8418 8.52863C11.0872 8.26046 11.0872 7.82562 10.8419 7.55751C10.5968 7.28932 10.1992 7.28923 9.95407 7.55742Z" fill="#7D7D7D"/>
</svg>
